<?xml version="1.0" standalone="no"?>
<!DOCTYPE svg PUBLIC "-//W3C//DTD SVG 1.1//EN" "http://www.w3.org/Graphics/SVG/1.1/DTD/svg11.dtd" >
<svg xmlns="http://www.w3.org/2000/svg">
<metadata>
Created by FontPrep 20130207 at Tue Feb 16 12:29:16 2016
 By Dennis Perremans
vernon adams 2011
</metadata>
<defs>
<font id="4c55e49cb4f37618a2e9fd5482d4c55d" horiz-adv-x='1024' >
  <font-face 
    font-family="Amatic-Bold"
    font-weight="700"
    font-stretch="condensed"
    units-per-em="2048"
    panose-1="2 0 8 3 0 0 0 0 0 0"
    ascent="1638"
    descent="-410"
    x-height="1357"
    cap-height="1553.5"
    bbox="-195.043 -550 1560 2219.01"
    underline-thickness="102"
    underline-position="-204"
    unicode-range="U+0020-2212"
  />
<missing-glyph horiz-adv-x="233" 
 />
    <glyph glyph-name=".notdef" horiz-adv-x="233" 
 />
    <glyph glyph-name=".null" horiz-adv-x="0" 
 />
    <glyph glyph-name="nonmarkingreturn" horiz-adv-x="682" 
 />
    <glyph glyph-name="space" unicode=" " horiz-adv-x="233" 
 />
    <glyph glyph-name="exclam" unicode="!" horiz-adv-x="286" 
d="M146 306q-21 0 -38.5 50t-17.5 126l8 339l-10 672q0 32 27 55.5t54 23.5t41.5 -14.5t14.5 -35.5q0 -164 -21.5 -490t-21.5 -489l2 -97q0 -140 -38 -140zM210 26q0 -72 -101 -72q-23 0 -45.5 21.5t-22.5 57t25 64t62 28.5t59.5 -29t22.5 -70z" />
    <glyph glyph-name="quotedbl" unicode="&#x22;" horiz-adv-x="359" 
d="M1 1578q45 0 50 -67q0 -89 -23.5 -203.5t-51.5 -114.5h-7q-9 0 -9 338q0 20 13 33.5t28 13.5zM175 1193q-9 0 -19 128.5t-10 209.5q0 20 19.5 33.5t43 13.5t32.5 -47q-3 -98 -20 -218t-39 -120h-7z" />
    <glyph glyph-name="numbersign" unicode="#" horiz-adv-x="748" 
d="M351 685q61 0 112 6q32 184 33 261q-35 8 -91.5 8t-90.5 -6q-26 -95 -32 -268q8 -1 69 -1zM676 637h1q-1 -51 -78 -51h-6l-30 1q-5 -71 -30 -273t-26 -353l-35 -42q-71 0 -71 44q0 110 31 316t34 302q-47 4 -142 4l-50 -3q-3 -20 -11.5 -161.5t-29.5 -320.5
q-22 -179 -70 -180q-21 0 -39.5 12t-18.5 32q0 246 71 612q-45 -5 -60 -5q-85 0 -85 66q0 46 96 46l62 -2q19 109 31 267q-39 -3 -51 -3q-97 0 -97 59v10l30 33l63 -1q31 0 63 3q4 35 24 167t21 241l-1 37q0 33 10.5 53t42.5 20h15l23 -47q0 -80 -18 -233.5t-19 -228.5
q18 -4 82.5 -4t96.5 8q25 125 45 272t29 201q24 31 46.5 31t38.5 -13t16 -28q0 -80 -35.5 -231t-37.5 -227h66l43 -47q-7 -28 -18.5 -44.5t-35.5 -16.5l-67 3q-23 -106 -25 -264l21 1q85 0 85 -62z" />
    <glyph glyph-name="dollar" unicode="$" horiz-adv-x="519" 
d="M419 345q0 135 -106 302l24 -534q39 48 60.5 116t21.5 116zM98 1240q0 -126 122 -303q-4 108 -15 496q-107 -67 -107 -193zM327 1471q-15 0 -51 -7l29 -642q159 -208 192 -344q16 -66 16 -153t-41.5 -187t-122.5 -148v-158q0 -90 -59 -90q-36 0 -36 63v16l-4 136
q-12 -2 -38 -2t-59 5t-66 22t-33 42q0 55 46 55q24 0 61 -15.5t54 -15.5t32 4q-5 162 -22 722q-5 7 -78.5 108t-110.5 191q-37 89 -37 172.5t53 164.5t150 125q0 42 -2 68t6 43t18 17t29 -13t19 -64v-27q63 15 112.5 15t84.5 -20.5t49 -53.5l-35 -44l-136 15h-20z" />
    <glyph glyph-name="percent" unicode="%" horiz-adv-x="1077" 
d="M241 700q-73 0 -115 58t-61 152.5t-19 195t8 159t25 127t53 115t83 46.5q229 0 229 -406v-7l-1 1q-15 -41 -17 -156t-14 -169q-26 -116 -171 -116zM807.5 2q-71.5 0 -114.5 100q-50 122 -50 213t0.5 114.5t5.5 140t75 210.5q42 58 122 58t124 -64q46 -64 58 -142
q12 -76 12 -154v-100q0 -132 -42 -242q-23 -60 -71 -97t-119.5 -37zM712.5 1536q24.5 0 40.5 -13.5t16 -35.5q1 -143 -181 -825q-84 -317 -100.5 -406t-44.5 -176q-28 -86 -76 -88q-39 22 -39 72t27 191.5t140 578.5q113 436 162 604l1 -1q1 32 15.5 65.5t39 33.5zM222 1449
q-25 0 -51 -117t-26 -226.5t31 -224.5q32 -68 62 -81q112 0 112 292q0 357 -128 357zM940 467q0 71 -14 138q-44 106 -94 128q-59 -1 -75 -143t-16 -205t24.5 -166t50.5 -103q124 0 124 270v81z" />
    <glyph glyph-name="ampersand" unicode="&#x26;" horiz-adv-x="903" 
d="M143 389q1 -104 49 -195t157 -91q33 0 81 17t69 38q-189 273 -248 631q-108 -170 -108 -400zM216 1396q0 148 102 148t169 -55t67 -129q0 -123 -41.5 -221.5t-124.5 -194.5q-4 -8 -28 -42t-24 -56q0 -89 75.5 -320t129.5 -288q64 146 64 362v9q-15 0 -19 6t-5.5 8
t-5 10.5t-4.5 10.5v52q156 0 232 26q58 -12 58 -54q0 -56 -107 -56l-6 1h-51q0 -327 -84 -438q61 -63 130 -63l83 6l38 -31q0 -41 -28.5 -54.5t-75.5 -13.5q-92 0 -198 77q-115 -78 -212.5 -78t-164.5 52.5t-102 129.5t-35 223.5t82 318.5q54 112 100 203l-14 281v170z
M462 1283.5q0 45.5 -33 106t-65.5 60.5t-54.5 -50v-109l3 -275v-23q52 65 101 155t49 135.5z" />
    <glyph glyph-name="quotesingle" unicode="'" horiz-adv-x="359" 
d="M182 1193h-7q-9 0 -19 128.5t-10 209.5q0 20 19.5 33.5t41.5 13.5q37 0 54 -47l-5 -6l1 -14q0 -89 -23.5 -203.5t-51.5 -114.5z" />
    <glyph glyph-name="parenleft" unicode="(" horiz-adv-x="418" 
d="M338 -361q-54 0 -118 146.5t-116 535.5q-52 390 -52 501.5t15 230.5t41.5 256.5t71 239.5t93.5 102h9l36 -30q0 -54 -33 -121t-40 -84q-91 -224 -91 -516t38 -591t146 -497q44 -82 58 -131l-2 1q-18 -43 -56 -43z" />
    <glyph glyph-name="parenright" unicode=")" horiz-adv-x="434" 
d="M388 815q0 -165 -90 -619q-40 -198 -100 -348.5t-119 -150.5q-21 0 -37.5 13.5t-16.5 38.5t57 125q94 166 148.5 455.5t54.5 464.5q0 458 -120 681q-45 84 -45 135v11l37 29q114 0 190 -444q39 -226 41 -389v-2z" />
    <glyph glyph-name="asterisk" unicode="*" horiz-adv-x="1051" 
d="M728 745.5q0 -45.5 -45 -45.5t-64 38.5t-21 82.5l-87 190q-11 -26 -51 -140t-83 -181h-49l-44 46l-1 9q3 41 74.5 182t81.5 169h-133q-132 0 -151 7t-19 36.5t13.5 43t32.5 13.5h243q-2 5 -23.5 46.5t-37.5 72.5q-14 31 -44 95t-30.5 88t16.5 36.5t40.5 12.5t54 -58.5
t60.5 -139.5t35 -91q3 8 23 75t54 151q35 84 76 83q22 0 39.5 -16.5t17.5 -42.5t-22.5 -85t-58 -135.5t-42.5 -93.5q39 -5 92 -5l135 10q104 0 104 -62q0 -52 -71 -52q-45 0 -134 4.5t-133 4.5q6 -16 79 -159.5t73 -189z" />
    <glyph glyph-name="plus" unicode="+" horiz-adv-x="853" 
d="M421 333q-25 0 -46 14.5t-21 37.5l-13 199v15l-114 -9q-87 0 -87 65q0 21 12.5 37t33.5 16l121 -7q26 0 47 4l-12 150q0 113 66 113q23 0 37.5 -17t14.5 -42v-25q0 -183 27 -183l119 8q106 0 106 -62q0 -24 -17 -40t-41 -16l-121 11q-65 0 -65 -49l19 -164
q0 -25 -20.5 -40.5t-45.5 -15.5z" />
    <glyph glyph-name="comma" unicode="," horiz-adv-x="451" 
d="M141.5 -202q-39.5 0 -39.5 25.5t25 46.5q45 52 65 184t81 131q71 0 71 -108q0 -47 -30.5 -112t-81.5 -116t-90.5 -51z" />
    <glyph glyph-name="hyphen" unicode="-" horiz-adv-x="731" 
d="M587 727q0 -38 -148 -55q-148 -16 -227 -16q-26 0 -46.5 17t-20.5 54.5t145 53.5q145 17 229 17q26 0 47 -16.5t21 -54.5z" />
    <glyph glyph-name="period" unicode="." horiz-adv-x="445" 
d="M148 42.5q0 29.5 23 53.5t53 24t52 -24t22 -55.5t-23 -52t-54.5 -20.5t-52 22.5t-20.5 52z" />
    <glyph glyph-name="slash" unicode="/" horiz-adv-x="512" 
d="M55 -54q-24 0 -24 45q0 17 9.5 50t174.5 701.5t208 810.5q5 14 19.5 14t26 -12.5t11.5 -26t-21.5 -125.5t-170.5 -704t-213 -730q-5 -23 -20 -23z" />
    <glyph glyph-name="zero" unicode="0" horiz-adv-x="660" 
d="M98 1222q0 251 88 315q36 26 86 26q294 0 294 -1042q0 -514 -220 -514q-162 0 -219 501q-29 254 -29 714zM457 346q19 160 13.5 316t-15.5 315t-59 343t-147 198q-32 -27 -42.5 -53t-10.5 -70l8 -405l21 -200q1 -312 45 -533q32 -157 95 -157q62 0 92 246z" />
    <glyph glyph-name="one" unicode="1" horiz-adv-x="452" 
d="M116 41q0 29 9.5 37t49 8t39.5 34q0 201 -31 599t-31 589l3 75q0 96 -71 96l-47 -2q-58 0 -58 44q0 54 165 54q86 0 105 -34q-12 -56 -12 -102.5t15.5 -171.5t15.5 -237t22 -435.5t22 -485.5v-13q48 6 75 6v1q87 0 87 -51q0 -60 -233 -60l-61 -1q-34 0 -49 10.5t-15 39.5
z" />
    <glyph glyph-name="two" unicode="2" horiz-adv-x="537" 
d="M38 47v8q43 51 72 134.5t41 109.5q117 259 174 475t57 467t-98 259q-34 -18 -46 -96t-61 -77.5t-49 63.5q0 100 58 162q32 34 74 34v1q106 1 148 -57t57 -121.5t15 -210t-36 -311.5t-78.5 -279.5t-106.5 -275.5t-92 -246q124 21 242 21q43 -31 43 -55.5t-27 -47.5
l-312 -19q-29 0 -52 17t-23 45z" />
    <glyph glyph-name="three" unicode="3" horiz-adv-x="476" 
d="M222 847q-63 0 -63 42q0 32 45 80q86 93 86 177t-14 167q-27 164 -93 164q-25 0 -41.5 -18.5t-23.5 -40t-24.5 -40t-43 -18.5t-42.5 16.5t-21 39.5q28 69 79.5 113t152.5 44t147 -204q26 -119 26 -197t-9.5 -107t-19 -44.5t-32.5 -48.5t-31 -45q126 -75 163 -425
q8 -76 8 -131t-5 -147.5t-64 -177.5q-46 -66 -133 -66t-124 31.5t-37 58t5.5 33.5t25.5 7t31 -12q45 -31 73 -34q125 0 125 230q0 300 -54 434q-27 66 -71 121q-6 -2 -21 -2z" />
    <glyph glyph-name="four" unicode="4" horiz-adv-x="554" 
d="M373 1072q0 -319 -4 -476l59 5q61 0 61 -44q0 -50 -82 -50q-33 0 -33 -18q0 -69 5.5 -190t15.5 -144q-4 -24 -4 -44t9 -35v-37q0 -77 -48 -77q-31 0 -48 32t-17 65v7q11 38 11 74l-15 199l2 89q0 35 -4 63l-112 -11v-1q-38 0 -80 33q0 46 9 79q-9 48 -9 116.5t15.5 209.5
t15.5 207v379q0 20 7 30t31 10t43 -14t19 -37l-9 -159l-1 -37q0 -21 4 -37v-7q6 -54 6 -125t-14.5 -244.5t-14.5 -228.5t3 -78q35 1 75 11l19 573q0 21 18 33.5t35 12.5l32 -36v-98z" />
    <glyph glyph-name="five" unicode="5" horiz-adv-x="429" 
d="M113 21q0 46 46.5 46t69.5 -17q49 17 77.5 112t28.5 157.5t-0.5 96t-5 156.5t-56.5 212q-27 48 -49 66q-52 40 -112 40t-72 37q-13 36 -13 81l11 104q0 128 -50 428l35 36h167q85 0 85 -52v-11l-38 -31h-51v6h-87q5 -129 40 -486q5 -1 68 -7t104 -34q41 -29 81 -175
t41 -336q0 -190 -10.5 -230t-22.5 -78q-31 -94 -140 -178l-35 -1q-112 0 -112 58z" />
    <glyph glyph-name="six" unicode="6" horiz-adv-x="562" 
d="M195 603.5q0 -246.5 57 -439.5q27 -90 73 -91q53 0 53 139t-18 312q-36 341 -120 358q-45 -32 -45 -278.5zM95 880q0 706 220 706q16 0 32 -12.5t16 -34t-24 -40t-54 -24.5q-26 -25 -53 -177t-36 -349q17 3 32 3q202 0 238 -505q8 -104 8 -179.5t-4 -131.5t-40 -103
t-121 -47q-193 12 -214 611v283z" />
    <glyph glyph-name="seven" unicode="7" horiz-adv-x="467" 
d="M70 1547q0 35 188 35h38q55 0 76 -16.5t28 -42.5q-37 -182 -71 -539q-62 -652 -136 -865q1 -5 1 -31t-22.5 -62.5t-57.5 -36.5l-39 35q1 42 17 93q85 259 141 659t63 718q-32 4 -56.5 4t-121.5 -9q-48 23 -48 58z" />
    <glyph glyph-name="eight" unicode="8" horiz-adv-x="531" 
d="M191 1515v1q-28 -31 -28 -101t26 -200.5t51 -207.5q45 159 45 305q0 43 -14 123.5t-37 80.5l-22 -1h-21zM203 190v-2q0 -52 26 -107v-10q2 -21 13.5 -43t29.5 -22q100 0 100 137t-29 279t-82 328q-58 -191 -58 -560zM466 119q0 -36 -2 -58v-1q-63 -142 -194 -142
q-92 0 -138 124q-24 66 -24 168.5t48 331.5t48 327.5t-70 264.5t-71 264q0 209 142 209h43q66 -40 91 -80t31 -88q6 -49 6 -100t-1 -76t-4.5 -52.5t-5.5 -48t-8 -52.5l-9 -48q-12 -64 -18 -88t-15 -64t-11 -48q70 -163 116 -369t46 -374z" />
    <glyph glyph-name="nine" unicode="9" horiz-adv-x="563" 
d="M366 1427q0 100 -64.5 100t-86.5 -107q-21 -107 -21 -152t2 -65.5t4.5 -36.5t9.5 -31t11 -25t16 -21.5t17.5 -17t22.5 -16t23.5 -14.5t27.5 -15.5t29 -16.5q9 156 9 418zM94 1243q0 262 112 344q37 27 86 27q100 0 136 -46t36 -148l-24 -1183l-14 -147l1 -41
q0 -34 -16.5 -58.5t-51.5 -24.5l-32 38q32 96 32 682l-4 245q-114 26 -187.5 111.5t-73.5 200.5z" />
    <glyph glyph-name="colon" unicode=":" horiz-adv-x="443" 
d="M159 1025q0 29 23 53.5t52.5 24.5t51.5 -24t22 -55.5t-23 -52t-54.5 -20.5t-51.5 22.5t-20 51.5zM138 251.5q0 29.5 23 53.5t53 24t51.5 -24t21.5 -55.5t-23 -52t-54 -20.5t-51.5 22.5t-20.5 52z" />
    <glyph glyph-name="semicolon" unicode=";" horiz-adv-x="438" 
d="M179 1026q0 29 23 53.5t52.5 24.5t51.5 -24t22 -55.5t-23 -52t-54.5 -20.5t-51.5 22.5t-20 51.5zM139 -28q-36 0 -36 25.5t25 46.5q25 37 39 119t28.5 139t48.5 57q71 0 71 -108q0 -47 -26 -112t-70 -116t-80 -51z" />
    <glyph glyph-name="less" unicode="&#x3c;" horiz-adv-x="524" 
d="M154 702q0 -16 139 -305t172 -348h26q-5 -71 -51 -71t-96.5 61.5t-97.5 159t-86 192t-75 188t-48 119.5q1 31 67.5 214.5t146.5 359t109 175.5l7 -1l45 -35q-18 -134 -138 -370t-120 -339z" />
    <glyph glyph-name="equal" unicode="=" horiz-adv-x="684" 
d="M57 634q0 21 12.5 33.5t33.5 12.5h307q209 0 209 -54q0 -21 -13.5 -34t-34.5 -13l-432 10q-82 0 -82 45zM57 826q0 21 12.5 33.5t33.5 12.5h367q159 0 159 -54t-216 -54q-92 0 -146 6h-9l-78 -3q-123 0 -123 59z" />
    <glyph glyph-name="greater" unicode="&#x3e;" horiz-adv-x="523" 
d="M45 33.5q0 30.5 81 189.5t162 309.5t81 169.5q-1 102 -91 280q-38 74 -74 147q-90 177 -92 282l55 35v-2q40 -18 118.5 -186t139 -341t62.5 -219l-361 -717l-38 -4q-17 0 -30 13t-13 43.5z" />
    <glyph glyph-name="question" unicode="?" horiz-adv-x="464" 
d="M63 1336q0 72 11 111.5t44 69.5t82 30t96 -26t65 -96q17 -70 17 -212t-62 -349t-63 -498q0 -99 1 -137q-36 0 -41.5 -3t-9.5 -3q-38 0 -50 46q0 226 57.5 515t57.5 476t-61 187q-39 0 -39 -91q0 -16 14 -111q0 -9 -25 -25.5t-36 -16.5q-58 1 -58 133zM286 70
q0 -78 -83 -78q-29 0 -50.5 23.5t-21.5 52.5t25 54.5t53.5 25.5t52.5 -26.5t24 -51.5z" />
    <glyph glyph-name="at" unicode="@" horiz-adv-x="1030" 
d="M365 824.5q0 -169.5 36 -292t102 -122.5q43 0 89 74t46 121v154q0 122 -21 246q-66 207 -126 241q-58 0 -92 -126t-34 -295.5zM430 -120q-415 0 -415 1076q-1 296 43 445t129 221q114 96 291 97q249 -1 378 -253t129 -699q0 -234 -71 -317q-38 -44 -105 -44
q-50 0 -103 113q-34 -94 -93.5 -153.5t-125.5 -59.5q-109 0 -161 100q-68 131 -68 445q0 152 7 200t17.5 101.5t38.5 97.5q27 44 65 72t96 28.5t97.5 -24t66.5 -62t49 -96t34.5 -114.5t22.5 -130t15 -128.5t11 -125t10 -105.5v-9l29 -46q21 12 37 82t16 164.5t-13.5 332
t-162.5 419.5q-85 104 -226 104q-187 0 -263 -144q-61 -116 -67 -307q-2 -46 -2 -111v-120q0 -800 212 -936q76 -50 204.5 -15.5t211.5 103.5q84 68 107 68t23 -22t-29.5 -62t-83.5 -82.5t-147.5 -73t-203.5 -30.5z" />
    <glyph glyph-name="A" unicode="A" horiz-adv-x="656" 
d="M394 1214.5q0 34.5 1 39.5q-32 -33 -92.5 -367t-64.5 -423q85 -23 142.5 -23t81.5 6q-3 41 -21 222.5t-32.5 346t-14.5 199zM527 1q-63 0 -63 53v267q-29 20 -104.5 34t-134.5 18q-21 -36 -34.5 -104t-28 -137t-38.5 -109q-80 0 -90 41q28 40 91 409t103.5 577.5
t87.5 350.5t90 142t66 -18q0 -73 40 -395t40 -416.5t21.5 -314t21.5 -329.5q0 -69 -68 -69z" />
    <glyph glyph-name="B" unicode="B" horiz-adv-x="576" 
d="M74 1382q0 110 34 140q17 15 43 15q146 0 228 -94t82 -242q0 -93 -49 -193t-117 -149q125 -84 178.5 -213.5t53.5 -271.5q0 -75 -37.5 -154t-75 -126t-98.5 -79t-134 -32h-8q-96 0 -96 51l10 504l-14 832v12zM421 442q0 180 -102 286q-33 34 -54 41h-73q10 -283 10 -679
q103 16 161 94t58 258zM214 1421q-29 0 -29 -73.5t4 -231t4 -228.5q53 12 87 82t54.5 129.5t26.5 73.5v73q0 60 -44.5 117.5t-102.5 57.5z" />
    <glyph glyph-name="C" unicode="C" horiz-adv-x="649" 
d="M530 1464q0 -46 -57.5 -45.5t-72.5 25.5v-1h-28v5q-118 0 -160 -71t-42 -237l6 -141l-18 -143v-49q0 -238 10.5 -315t25.5 -159.5t64 -160.5q50 -79 135 -79q35 0 87 36.5t79 36.5t58 -31q0 -103 -117 -147q-58 -21 -154 -21t-161.5 89.5t-100.5 255.5q-31 177 -33 480
l2 245q0 117 14 189q-6 33 -6 64q0 126 94 200.5t232 74.5q49 0 96 -27.5t47 -73.5z" />
    <glyph glyph-name="D" unicode="D" horiz-adv-x="653" 
d="M113 306q0 114 -19 339t-19 337l6 224q0 54 -22.5 145.5t-22.5 129.5q0 71 157 71h31q209 0 303 -234q66 -163 66 -450v-95q-5 -9 -5 -19l5 -43q1 -145 -82 -356t-203 -305q-68 -54 -123 -54q-117 -1 -117 69q45 47 45 241zM211 310v-196q77 50 134 139.5t87 195.5
q56 203 56 420t-58 353t-146 180q-54 28 -122 27v-2q0 -185 24.5 -557t24.5 -560z" />
    <glyph glyph-name="E" unicode="E" horiz-adv-x="457" 
d="M314 111q117 0 117 -54v-7q-14 -28 -48 -43t-60 -17t-67 -2h-64q-76 0 -94 30q-8 14 -8 37v1190q0 35 -14 104t-14 105v7q34 56 51 72l152 18q31 0 62.5 -18.5t31.5 -48.5q0 -61 -93 -61l-59 2q-15 0 -22 -1l16 -338q0 -41 -5 -119.5t-5 -114.5q11 2 41 10t54 8t42.5 -17
t18.5 -41t-15 -43t-39 -19l-51 2q-30 0 -42 -15v-632q105 6 114 6z" />
    <glyph glyph-name="F" unicode="F" horiz-adv-x="391" 
d="M229 49.5q0 -19.5 -19 -35.5t-50 -16q-59 0 -59 131q0 195 -20.5 737t-41.5 574q1 106 145 113q22 1 59.5 1t59 -14t21.5 -57t-57 -43l-50 2q-57 0 -57 -23q0 -95 15 -278.5t16 -271.5q13 2 50 12t62 10t41.5 -19.5t16.5 -43.5q0 -67 -170 -67q0 -111 19.5 -333
t19.5 -334l-5 -13q4 -12 4 -31.5z" />
    <glyph glyph-name="G" unicode="G" horiz-adv-x="727" 
d="M375 421q0 50 132 65q26 3 57 3t53 -32t22 -85.5t20.5 -174.5t20.5 -163q0 -75 -50.5 -75t-67.5 43v2q-12 -5 -60 -31t-100 -26t-96 18q-94 37 -146 127t-80 230.5t-28 388.5l-1 151q0 198 13 284t41.5 202t120.5 186q73 58 167 57.5t94 -58.5q0 -22 -16 -35t-38 -13
l-59 10q-76 -1 -122 -97t-59 -187.5t-24 -175.5t-8 -291l-1 -127q0 -196 25 -315t73 -178q85 -65 149 -73q91 0 151 86q-3 182 -33 234l-80 -8q-70 0 -70 58z" />
    <glyph glyph-name="H" unicode="H" horiz-adv-x="560" 
d="M440 -31q-52 0 -52 68q0 390 -18 722q-55 10 -103 10t-86 -16q0 -114 17 -345t17 -349q0 -20 -12 -37t-32 -17q-56 -1 -82 351q-35 477 -35 1154q0 37 35 37q19 0 41 -10.5t31 -22.5q-7 -73 -7 -154l14 -421l-2 -77q0 -29 4 -53l199 15l-8 672v54q78 0 93 -70
q7 -34 7 -173t19.5 -589.5t19.5 -674.5q0 -27 -17 -50.5t-43 -23.5z" />
    <glyph glyph-name="I" unicode="I" horiz-adv-x="432" 
d="M226 1401q0 -200 25 -599t25 -599v-79q21 3 42 3q85 0 85 -72v-12l-51 -35l-139 -5q-177 0 -177 61q0 49 62 49l43 -3q30 0 30 48q0 158 -19 473.5t-19 473.5l4 209q0 66 -5 114q-27 -9 -48 -9q-48 0 -48 49q0 52 128 74q66 12 107.5 11.5t59.5 -17t18 -39t-13.5 -39
t-34.5 -16.5l-36 1q-20 0 -29.5 -8.5t-9.5 -33.5z" />
    <glyph glyph-name="J" unicode="J" horiz-adv-x="419" 
d="M75.5 1428.5q-21.5 0.5 -37 16t-15.5 36.5q0 72 245 72h26q92 0 92 -54.5t-85 -54.5l-6 1h-28v-16q0 -53 12 -158.5t12 -198.5t18.5 -358.5t18.5 -398.5l-1 -163q0 -121 -50.5 -216.5t-147.5 -129.5q-32 0 -53 16t-21 44t25.5 51t54.5 35q28 36 55 116t27 173l1 284
q0 594 -54 920q-7 -1 -37 -9t-51.5 -7.5z" />
    <glyph glyph-name="K" unicode="K" horiz-adv-x="650" 
d="M70 1460.5q0 41.5 16.5 61t41.5 19.5q76 0 76 -166q0 -1 -9 -421q7 17 52.5 135t130.5 313q84 194 124 194q23 0 40.5 -15.5t17.5 -37t-111.5 -255.5t-125.5 -297v-36q30 -76 163.5 -497t133.5 -446.5t-20 -42.5t-45 -17l-48 8q-51 291 -106 507.5t-144 412.5
q-61 -109 -64 -132q-6 -62 -6 -98l13 -380v-168q0 -109 -70 -109q-60 0 -60 103.5t13.5 287.5t13.5 276l3 389q0 102 -15 236t-15 175.5z" />
    <glyph glyph-name="L" unicode="L" horiz-adv-x="430" 
d="M201 167v-52h156q44 -30 44 -57t-15 -44.5t-31 -17.5t-37 7q-17 -4 -39 -4l-66 3q-21 -25 -52.5 -25t-53 19.5t-21.5 45.5l13 90q0 233 -20.5 698.5t-20.5 698.5q0 19 15 30.5t37.5 11.5t41 -17t18.5 -42l21 -737l2 -65v-9q8 -178 8 -534z" />
    <glyph glyph-name="M" unicode="M" horiz-adv-x="824" 
d="M667 1587q23 0 37.5 -16.5t14.5 -35.5q0 -245 18.5 -734t18.5 -734q0 -49 -26 -85t-50 -36q-50 0 -50 81l-8 862v104q-14 -79 -63 -276.5t-63 -302.5v-13q-2 -8 -7.5 -49.5t-22.5 -85.5t-61 -44q-73 0 -73 190t-92 530q-46 170 -59 230q-4 -164 -4 -247l17 -842
q0 -44 -31 -77q-53 0 -71.5 34t-18.5 92l10 332l-7 793q0 133 3 265l57 32q62 -4 132 -296t109 -502t43 -228q14 66 52 236t76 354t50 399v12q4 26 25 42t44 16z" />
    <glyph glyph-name="N" unicode="N" horiz-adv-x="737" 
d="M81 1462q0 102 43 102t112 -190q126 -345 302 -1139l2 -10l8 714v606q12 51 67 51t55 -80v-12q-12 -25 -12 -60l-13 -757v-626q0 -31 -17 -61t-42 -30q-43 0 -168 421.5t-247 906.5v-672q0 -98 14.5 -292t14.5 -292q0 -19 -23 -31.5t-58.5 -12.5t-35.5 32l10 147
q0 106 -13 344t-13 291v261l14 376v13z" />
    <glyph glyph-name="O" unicode="O" horiz-adv-x="650" 
d="M289 1477q-30 0 -55.5 -27.5t-49.5 -129.5t-29 -255q-5 -152 -6 -204v-9q0 -137 21 -295.5t43.5 -259.5t60.5 -171.5t85 -70.5q81 0 113 314q19 187 17.5 293.5t-4 179t-8.5 136t-15.5 140.5t-25 137t-36 112.5t-51 81t-60.5 28.5zM551 227q0 -66 -23 -127.5t-70 -109
t-103 -47.5t-119.5 52.5t-107 208.5t-57.5 316q-15 160 -14.5 241.5t-0.5 157.5q-2 76 -2 83v73q3 197 27.5 298.5t71.5 156.5t112 55t111 -23.5t77.5 -75.5t55 -101t36.5 -136.5t25 -165.5t12 -347v-118l-18 -259v-9q-13 -57 -13 -123z" />
    <glyph glyph-name="P" unicode="P" horiz-adv-x="495" 
d="M338 1158v1q0 115 -21 149t-33 51.5t-126 99.5q0 -108 12 -324t12 -324q156 146 156 347zM122 1566q76 0 138.5 -34t101.5 -90q81 -117 81 -267t-65 -272.5t-191 -190.5l16 -638q0 -85 -68 -85q-25 0 -37 21.5t-12 47.5l10 731q0 482 -53 731q32 46 79 46z" />
    <glyph glyph-name="Q" unicode="Q" horiz-adv-x="676" 
d="M290 1576q210 0 271 -296q27 -132 29 -230.5t4 -149.5q2 -52 0 -84q0 -32 -1 -80t0 -77v-92q0 -173 -22 -278t-104 -219q2 -8 21 -123.5t66 -115.5h8q64 0 76 -16.5t12 -33.5q0 -63 -91 -63q-35 0 -85 29v1q-56 26 -76 84t-27 114t-11 74h-84q-195 130 -216 426
q-4 56 -4 128l10 334l-2 144q0 524 226 524zM482 911q0 563 -209 563q-75 0 -103 -423q-19 -295 -14 -413t13.5 -215t50 -216t128.5 -127v2q15 26 56 26v-1q77 71 77 220v504q1 41 1 80z" />
    <glyph glyph-name="R" unicode="R" horiz-adv-x="548" 
d="M286 1254q0 34 -24 117t-71 92l-11 -418q0 -63 2 -94q35 33 69 79l32 177q3 13 3 47zM187 52q0 -65 -40 -65t-54.5 16.5t-14.5 40.5v16l8 1201v252q0 24 10 34t78 10t134 -75q90 -112 90 -238.5t-37 -218.5t-58 -149q1 -152 77 -395q26 -82 74 -224.5t60 -180.5v-5
q0 -69 -16 -80.5t-34 -11.5q-38 0 -74 55v7q-10 186 -128 563q-54 172 -75 255v-807z" />
    <glyph glyph-name="S" unicode="S" horiz-adv-x="523" 
d="M38 24q0 55 46 55q23 0 60.5 -15.5t65 -15.5t59 35t59.5 114t28 164.5t-30 183.5t-73 184t-87 172q-104 205 -104 369t102 256q54 48 127 48q37 0 72 -20.5t49 -53.5l-35 -44q-51 0 -80 20q-38 -4 -66 -36q-51 -59 -51 -184t92.5 -307t127.5 -257q77 -162 77 -350
q1 -132 -67 -254q-32 -58 -88 -95.5t-128 -37.5t-114 22t-42 47z" />
    <glyph glyph-name="T" unicode="T" horiz-adv-x="492" 
d="M293 -14q-34 0 -50 32t-16 71l16 327q0 106 -14 319t-14 319l3 179q0 147 -19 191l-111 -11q-26 0 -46.5 15.5t-20.5 52t146 52.5q146 17 230 17q25 0 45.5 -16.5t20.5 -41.5t-18 -39.5t-44 -14.5l-73 4q-14 0 -21 -1q14 -118 14 -252l-4 -264l18 -471l17 -368
q0 -100 -59 -100z" />
    <glyph glyph-name="U" unicode="U" horiz-adv-x="699" 
d="M39 1477q0 25 17.5 44t41.5 19q74 0 74 -146l19 -712q12 -27 20.5 -109t8.5 -127.5t14.5 -112t40 -134.5t69 -116t97.5 -48t69 71q11 54 11 113v400q0 65 -13 193t-13 193v14l-4 119l-15 351q0 25 25 40.5t52 15.5l50 -48v-34l-15 -125q0 -171 18.5 -515t18.5 -465.5
t-6.5 -195t-50.5 -136.5t-145 -63q-125 -1 -203 112t-113 289q-55 277 -55 751l2 320q-15 17 -15 42z" />
    <glyph glyph-name="V" unicode="V" horiz-adv-x="620" 
d="M88 1563q56 0 189 -861q52 -337 57 -363q14 115 50 369q76 524 75 820q32 41 75 41l43 -23q-5 -35 -22 -199t-87 -772.5t-118 -608.5q-29 0 -48 22q-50 206 -146 799.5t-125 735.5q12 40 57 40z" />
    <glyph glyph-name="W" unicode="W" horiz-adv-x="901" 
d="M736 1506q0 86 49 86t68.5 -16t19.5 -41t-21 -46q0 -298 -77.5 -722.5t-77.5 -723.5q0 -31 -15.5 -51t-45.5 -20q-74 0 -186 787q-16 116 -20 134q-78 -560 -78 -865q0 -22 -18.5 -39.5t-40.5 -17.5q-75 0 -75 156q0 96 -84.5 701.5t-107.5 662.5q26 49 73 49t85.5 -213
t66 -516.5t28.5 -307.5q3 28 40.5 337.5t37.5 445.5v39q0 22 16.5 42.5t37.5 20.5q73 0 73 -60v-31q0 -198 92 -573q40 -164 57 -263q11 113 57 453t46 592z" />
    <glyph glyph-name="X" unicode="X" horiz-adv-x="520" 
d="M418 1550q61 0 61 -47.5t-76.5 -342t-76.5 -364.5q0 -24 52 -280t54 -268v-12q2 -25 18 -76t16 -76.5t-17 -42.5t-39 -17q-60 0 -60 49q0 106 -18 189t-38.5 165.5t-26.5 110.5q-5 -21 -24 -137t-56 -265q-36 -148 -94 -149q-20 0 -37.5 13t-17.5 33q0 78 43 230
t86 309.5t43 269.5t-66 308t-65 323v5q19 42 48.5 42t50 -35t36.5 -94.5t27 -112t21.5 -115.5t13.5 -76q4 10 26 142q55 321 116 321z" />
    <glyph glyph-name="Y" unicode="Y" horiz-adv-x="453" 
d="M183 823q0 107 -79 323q-79 215 -79 367q0 15 17.5 25.5t36.5 10.5t40.5 -47t39.5 -120t33.5 -146t28.5 -141.5t19 -88.5q4 18 13.5 137.5t28.5 230.5q27 165 81.5 165t54.5 -22q0 -115 -49 -343t-49 -346l-6 -71v-31l11 -543l7 -102v-46q0 -27 -20.5 -43.5t-44.5 -16.5
t-39.5 14.5t-15.5 35.5l10 396q0 60 -19.5 177.5t-19.5 224.5z" />
    <glyph glyph-name="Z" unicode="Z" horiz-adv-x="429" 
d="M388 1505q0 -536 -227 -1420l108 8q108 0 108 -63v-9l-32 -32l-253 -8q-39 0 -58 50q47 75 105.5 389.5t96 607.5t45.5 423q-70 -10 -117 -10q-111 0 -111 65v9l28 34v1q27 -7 58 -7l193 21q24 0 40 -17.5t16 -41.5z" />
    <glyph glyph-name="bracketleft" unicode="[" horiz-adv-x="467" 
d="M441 1532.5q0 -42.5 -17.5 -55t-38.5 -12.5l-115 13q-38 0 -38 -20q0 -238 -40 -711.5t-40 -698.5v-42h21q182 0 182 -74q0 -44 -66 -44q-247 0 -247 77q0 84 21.5 252.5t21.5 295t26.5 462.5t26.5 505l-2 39q0 23 8 35.5t33 22.5h78q186 -2 186 -44.5z" />
    <glyph glyph-name="backslash" unicode="\" horiz-adv-x="511" 
d="M477 34.5q0 -36.5 -46 -64.5v-1q-34 0 -79 120t-88.5 308.5t-79.5 366t-68 348.5t-38 196q-4 26 -23 88t-19 96.5t16.5 48.5t38.5 14q41 0 110 -224t128.5 -502.5t103.5 -518t44 -276z" />
    <glyph glyph-name="bracketright" unicode="]" horiz-adv-x="472" 
d="M336 1430.5q0 -112.5 28 -435.5t28 -450t20.5 -308t20.5 -272q0 -77 -248 -77q-67 0 -67 44q0 74 182 74h21v42q-6 204 -43.5 678.5t-37.5 731.5v18l-134 -11q-74 0 -74 46q0 66 193 66l42 1q40 0 54.5 -17.5t14.5 -130z" />
    <glyph glyph-name="asciicircum" unicode="^" horiz-adv-x="280" 
d="M73 1576q0 30 16.5 55t46.5 25t52 -21.5t22 -50.5t-18 -49t-47 -20t-50.5 15.5t-21.5 45.5z" />
    <glyph glyph-name="underscore" unicode="_" horiz-adv-x="844" 
d="M850 -36q0 -17 -16 -31.5t-58.5 -14.5t-70.5 -2l-632 -10q-32 0 -55.5 14t-23.5 32.5t14.5 33t35.5 14.5h659l97 2q50 0 50 -38z" />
    <glyph glyph-name="grave" unicode="`" horiz-adv-x="506" 
d="M113 1752q22 0 175 -84t153 -111q0 -14 -24.5 -14t-196.5 55.5t-172 73.5q0 23 21.5 51.5t43.5 28.5z" />
    <glyph glyph-name="a" unicode="a" 
d="M579 41v-2q0 -45 -34 -58q-43 0 -67 14t-24 54q0 87 -30 253l-202 30q-19 -68 -29 -149t-19 -118q-18 -76 -67 -76q-24 0 -44.5 15.5t-20.5 39.5l5 18q138 533 205 1038q2 14 9 123t35 150h69q28 0 49 -13t21 -39q0 -156 41.5 -463t41.5 -442l22 -126q0 -25 19.5 -122
t19.5 -127zM405 479.5q0 74.5 -8.5 185t-24.5 257t-22 212.5q-93 -515 -120 -726q35 -23 181 -33q-6 30 -6 104.5z" />
    <glyph glyph-name="b" unicode="b" horiz-adv-x="491" 
d="M83 1290q0 43 13.5 68t69 25t108.5 -29t84 -80q61 -100 61 -228t-19 -202.5t-64 -138.5q80 -77 89 -231t-8 -248t-90 -170q-72 -76 -198 -76q-43 0 -53 34t-11 74l20 436l9 649l-11 106v11zM321 287.5q0 56.5 -3 117.5t-30 143q-28 82 -91 95q-9 -132 -9 -310l-7 -147
l2 -10v-92q69 16 103.5 81.5t34.5 122zM194 1068v-305q108 3 108 259t-84 266q-24 -52 -24 -220z" />
    <glyph glyph-name="c" unicode="c" horiz-adv-x="505" 
d="M468 52q0 -81 -113 -81q-46 0 -96.5 13.5t-75.5 29.5q-136 88 -136 481l-1 120v49q0 302 33 434t97 188q87 78 220 78q32 0 47.5 -15t15.5 -36t-12.5 -37.5t-31.5 -17.5h-96q-84 0 -123 -221q-20 -113 -19 -210v-10l-9 -395q0 -227 81 -303q41 -40 113 -40q24 0 44 18
q62 0 62 -45z" />
    <glyph glyph-name="d" unicode="d" horiz-adv-x="610" 
d="M216 141v-49q178 0 214 360q8 83 8 160q0 618 -238 646q-15 -81 -15 -222.5t15.5 -442.5t15.5 -452zM55 1275q0 37 23 57.5t49 20.5q211 0 343 -247q76 -141 76 -298l-4 -103v-113q0 -206 -27 -306t-85 -174t-157 -124h-148q-52 0 -52 268l6 645q0 66 -12 201.5
t-12 172.5z" />
    <glyph glyph-name="e" unicode="e" horiz-adv-x="455" 
d="M161 1352q55 0 150 -25.5t95 -66.5t-60 -63q-95 32 -155 39q3 -44 3 -88l-9 -294q0 -2 6 -32l73 3q99 0 99 -56q0 -22 -18 -38.5t-45.5 -16.5t-59.5 4h-52q6 -78 6 -155l-9 -371q0 -115 4 -115l151 5q78 0 78 -50q0 -31 -27 -45t-61 -14h-173q-27 0 -49 18.5t-23 44.5v54
l-13 346l14 598l-11 173q0 145 86 145z" />
    <glyph glyph-name="f" unicode="f" horiz-adv-x="483" 
d="M305.5 1364q149.5 0 149.5 -85q0 -56 -104 -56q-41 20 -107 20h-24v-24l-19 -411v-55l38 1q99 0 99 -54q0 -27 -22 -43.5t-57.5 -16.5t-73.5 12v-580q0 -90 -53 -90q-32 0 -73 31q17 183 25.5 520.5t14.5 441.5v50q8 149 8 278q0 29 24.5 45t174 16z" />
    <glyph glyph-name="g" unicode="g" horiz-adv-x="638" 
d="M338 -16q-142 0 -206 106q-74 120 -83 343q-3 83 -3 135v88q0 289 29 420.5t81 189.5q77 88 178 88t101 -52q0 -24 -20 -39.5t-45 -15.5l-43 5q-71 0 -107 -140q-52 -200 -52 -438t13 -310t27 -122q44 -150 155 -151q99 0 99 326v94q-15 8 -48 8l-40 -1q-71 0 -71 47
q0 29 20.5 44t49.5 15v-1h28q184 0 184 -63l-22 -149l10 -217q0 -101 -70.5 -155.5t-164.5 -54.5z" />
    <glyph glyph-name="h" unicode="h" horiz-adv-x="571" 
d="M143 5q-41 0 -56.5 74.5t-15.5 203.5l6 312q0 97 -3 107v10q8 107 8 120l-14 462q0 24 17 42.5t41 18.5q65 0 65 -122l-8 -511q37 -10 112 -10h74q5 9 5 66t-13.5 250.5t-13.5 291.5q0 23 18 38.5t34 15.5t26 -3t22 -8t19 -7q0 -266 19.5 -777.5t19.5 -528.5t-21.5 -33.5
t-48 -16.5t-45.5 46.5t-23 155.5t-3 140l3 206v8l3 59l-12 19v2q-17 -4 -37 -4l-132 19v-235l12 -337q0 -29 -15 -51.5t-43 -22.5z" />
    <glyph glyph-name="i" unicode="i" horiz-adv-x="499" 
d="M465 79q0 -26 -20.5 -44.5t-47.5 -18.5h-90q-93 0 -119 4q-16 -2 -25 -2q-73 0 -73 46q0 19 12 36t24 18h58l4 27l-14 435l11 456q0 117 -10 220h-39l-47 -2q-30 0 -47 11.5t-17 43.5q0 47 101 47h244q83 0 83 -43q0 -19 -18 -35t-41 -16h-105q8 -84 8 -190l-11 -391
l10 -435v-61l-1 -57h27l59 2q84 0 84 -51z" />
    <glyph glyph-name="j" unicode="j" horiz-adv-x="520" 
d="M352 164q0 -102 -16.5 -147.5t-36.5 -86.5t-85 -82t-173 -41q-24 0 -24 25l2 34q0 12 29 22q106 37 133 66q59 64 59 233l-23 1046v9q-78 0 -111.5 13.5t-39.5 20.5t-6 21.5t23 28t74.5 13.5t193 -12.5t141.5 -34t-16.5 -34.5t-39.5 -13h-105l21 -863v-218z" />
    <glyph glyph-name="k" unicode="k" horiz-adv-x="637" 
d="M602 19q0 -23 -17.5 -38.5t-40.5 -15.5q-96 0 -206 402q-54 199 -88 385q-74 -147 -74 -356v-379q0 -48 -42 -48q-31 0 -49.5 17.5t-18.5 47.5v622q0 111 19.5 331.5t19.5 330.5q18 39 52.5 39t53 -18.5t18.5 -44.5v-6q-27 -47 -27 -373v-73q3 5 75 150q175 352 216 352
q30 0 54.5 -14t24.5 -41q0 -1 -100 -165t-120 -205l-4 -122q0 -88 70.5 -329t117.5 -319q6 -9 26.5 -37t30 -49t9.5 -44z" />
    <glyph glyph-name="l" unicode="l" horiz-adv-x="467" 
d="M184 586v-41l-8 -326q0 -141 69 -141l85 3q110 0 110 -60q0 -22 -19 -36.5t-43 -17.5q-75 24 -183 24q-33 -19 -63.5 -19t-47.5 21t-17 46q0 152 13 457.5t13 457.5v15q-12 128 -12 192q0 194 71 194q21 0 36.5 -15t15.5 -36l-14 -156l6 -492q-12 -28 -12 -70z" />
    <glyph glyph-name="m" unicode="m" horiz-adv-x="1013" 
d="M140 -40q-44 0 -63 14.5t-19 34.5q0 209 31.5 626t31.5 626q-12 19 -12 42.5t25 35.5t54 12q44 0 174 -411.5t160 -569.5q9 30 63 259.5t105 410.5q86 308 146 308q27 0 51 -15t24 -41q0 -148 13 -442t13 -427l-5 -216v-1q0 -23 12 -146l4 -40q9 -22 9 -46.5t-19 -52.5
t-50 -28q-64 0 -64 128l1 262q0 91 -15 267t-15 237t4 145.5t4 126.5q-9 -27 -69 -283q-156 -662 -223 -662q-40 0 -62.5 24t-22.5 64q0 97 -76.5 399.5t-129.5 463.5q-39 -722 -39 -976l3 -61q0 -68 -44 -68z" />
    <glyph glyph-name="n" unicode="n" horiz-adv-x="827" 
d="M197 56q0 -16 -18.5 -35t-43.5 -19q-67 0 -67 125l-4 702l12 382q0 95 75 151v-13q8 5 15 5q48 0 120 -165.5t130 -363.5t115.5 -399.5t71.5 -236.5q41 429 41 1039l-3 55q0 61 51 61q29 0 43.5 -24t14.5 -56v-155q-2 -241 -21.5 -643.5t-52.5 -454.5q-56 -17 -77.5 -17
t-33 14.5t-18.5 44.5t-12 40l1 9q0 76 -147 483t-213 560v-1031q21 -42 21 -58z" />
    <glyph glyph-name="o" unicode="o" horiz-adv-x="651" 
d="M478 568q0 77 -13.5 236t-13.5 237v36q-2 75 -48.5 133.5t-118.5 58.5q-72 -1 -93 -73t-21 -169l2 -121l-10 -189q0 -297 48 -518q51 -129 97 -152q129 0 161 335q10 109 10 186zM50 714v37q0 321 34 447t63 153t57 27q238 0 328 -240q52 -138 52 -340v-15l4 -232
q0 -589 -273 -589q-113 0 -171 122q-92 194 -93 542l2 78q0 10 -3 10z" />
    <glyph glyph-name="p" unicode="p" horiz-adv-x="483" 
d="M312 1059q0 97 -25 133t-79 36q0 3 -22 3v-116l4 -399v-3q122 16 122 346zM126 1342h90q118 0 163 -92t45 -221q0 -128 -12.5 -185.5t-49 -114.5t-173.5 -101v-219l16 -388q0 -25 -21 -42.5t-48 -17.5l-43 25q-25 113 -25 301l8 365q-12 27 -12 50v7q20 40 20 176l3 195
q0 125 -16 190q14 72 55 72z" />
    <glyph glyph-name="q" unicode="q" horiz-adv-x="644" 
d="M271 1288q-69 0 -102 -316q-20 -192 -18.5 -277t5.5 -256.5t53 -332.5q31 -100 84 -100q29 12 60 12q36 0 78 207t42 286v358q0 419 -202 419zM582 545.5q0 -518.5 -183 -594.5q0 -67 25 -158.5t31 -118.5q95 0 95 -58q0 -21 -13.5 -35.5t-34.5 -14.5v2q-115 0 -158 47
q0 53 -4.5 86.5t-6.5 51t-7.5 49t-8 43.5t-9.5 48t-9 45q-125 26 -183 142q-38 78 -48 149t-14 126t-4 117v76l1 216t26.5 317t63 194.5t142.5 93.5q16 -7 47.5 -14.5t62 -20t66 -46.5t79.5 -129t44 -613.5z" />
    <glyph glyph-name="r" unicode="r" horiz-adv-x="504" 
d="M98 218.5q0 114.5 -17.5 489.5t-17.5 560q0 97 68 97q107 0 180 -56t73 -160v-144q0 -59 -22 -107.5t-51 -102t-32 -59.5q11 -50 39 -196q60 -319 133 -459q21 -40 21 -62.5t-12.5 -38t-33.5 -15.5q-43 0 -82.5 98.5t-63.5 218.5q-73 367 -89 404h-25l-2 -222
q0 -271 39 -427l-23 -55h-57l-27 30q2 92 2 206.5zM282 1096q0 73 -16 124q-20 66 -92 69l-7 -29q0 -84 4 -242.5t4 -230.5q48 25 77.5 130.5t29.5 178.5z" />
    <glyph glyph-name="s" unicode="s" horiz-adv-x="445" 
d="M294.5 363.5q0.5 75.5 -24.5 149.5t-61.5 137.5t-72.5 129.5q-86 156 -86 306q0 92 31 163q58 132 154 132q36 0 68.5 -23t32.5 -50q0 -47 -50 -47q-22 0 -43 12q-65 -3 -88 -145q-5 -31 -5 -72.5t18 -102.5t61.5 -136.5t105.5 -194.5q61 -120 61 -262t-58 -255
q-28 -56 -79.5 -91.5t-117.5 -36.5v-5q-84 12 -92 79l23 35l85 -15q77 1 117 143q20 74 20.5 149.5z" />
    <glyph glyph-name="t" unicode="t" horiz-adv-x="493" 
d="M23 1316q0 19 22 31.5t43 12.5l278 -19l33 1q64 0 64 -49q0 -25 -21 -40.5t-47 -15.5l-94 14l-4 -21q0 -194 34 -581t34 -582q0 -24 -22 -42.5t-48 -18.5l-38 27l-4 157q0 1 3 70q-8 26 -32.5 462t-26.5 533h-8q-166 3 -166 61z" />
    <glyph glyph-name="u" unicode="u" horiz-adv-x="641" 
d="M464 1341q0 48 49 48t59 -29t11 -70l-14 -206l-9 -171l2 -35q0 -909 -264 -909q-102 -1 -152 84t-64 193t-16.5 277.5t-2.5 489.5l-9 293q19 43 43.5 43t43.5 -37.5t19 -79.5v-557q0 -73 14.5 -217t14.5 -217q0 -150 130 -150q146 0 146 1101v115z" />
    <glyph glyph-name="v" unicode="v" horiz-adv-x="666" 
d="M577 1396q18 0 32.5 -13t14.5 -32q0 -115 -49 -289.5t-57.5 -225t-23.5 -238.5t-53.5 -405t-136.5 -217l-38 31q0 400 -93 759.5t-119 438.5t-26 106t15.5 41t34.5 14q57 0 109 -196t78 -368t39 -263t24.5 -182.5t14.5 -109.5q45 226 110.5 653t77.5 496h46z" />
    <glyph glyph-name="w" unicode="w" horiz-adv-x="802" 
d="M634 1327q0 50 57.5 50t57.5 -48q0 -65 -5 -84v-11q-28 -85 -28 -188v-150q0 -128 -31.5 -385.5t-31.5 -371.5q0 -208 -79 -208q-59 0 -59 87.5t-6 176.5t-19.5 196t-23.5 176.5t-30 199t-27 175.5q-7 -68 -7 -137t-15.5 -260.5t-54 -389.5t-87.5 -198q-79 1 -119 429
q-18 184 -43 515t-52 392q17 36 59 36q66 0 66 -148.5t43 -453t48 -444.5q87 593 87 903l55 24q25 0 43 -13t18 -37v-17q58 -197 92 -571q16 -171 30 -265q38 284 38 677q0 52 15.5 154t15.5 154q-7 18 -7 35z" />
    <glyph glyph-name="x" unicode="x" horiz-adv-x="471" 
d="M362 1133v-24q-24 -65 -51 -228t-27 -235.5t37 -195t74 -235t37 -148t-16.5 -50t-36 -14.5t-36 19t-29.5 52.5t-24.5 72t-20.5 84t-16 81.5t-13 72t-9 49q-5 -30 -18.5 -153t-33.5 -187q1 -7 1 -24q0 -76 -53 -76q-23 0 -42.5 12.5t-19.5 34.5q0 89 29 199.5l58 221
t29 184t-51.5 307t-75.5 267.5v22q-19 19 -19 45q0 48 61 48q42 0 74 -124t46.5 -213t17.5 -103q2 13 18 98.5t16 165.5l-1 67q0 54 18 85.5t74 46.5l38 -48q-31 -47 -33 -91t-2 -85z" />
    <glyph glyph-name="y" unicode="y" horiz-adv-x="513" 
d="M355 109q0 -137 -67 -137q-37 0 -57 45q23 45 23 347q0 55 -11 156t-13 144v53q-4 9 -102 257t-98 314v11l46 34q63 -1 150 -317q38 -138 38 -139q8 23 32 153q61 332 128 332q19 0 34.5 -12t15.5 -31q0 -102 -58.5 -296.5t-60.5 -296.5v-617z" />
    <glyph glyph-name="z" unicode="z" horiz-adv-x="493" 
d="M92.5 -4q-17.5 0 -34.5 13.5t-17 47.5q0 183 138 638t165 561l-167 -12q-22 0 -37.5 17.5t-15.5 39.5q0 58 225 58q101 0 101 -57q0 -72 -44.5 -195.5t-52.5 -173.5q-26 -163 -107 -475t-89 -353h35l86 6v1q83 0 83 -50q0 -25 -22 -37.5t-49 -12.5l-121 6q-13 0 -36 -11
t-40.5 -11z" />
    <glyph glyph-name="braceleft" unicode="{" horiz-adv-x="649" 
d="M566 27q0 -35 -31 -55t-92 -20q-116 0 -159.5 62.5t-43.5 183.5v423q0 86 -50 96q-20 5 -40 5q-49 1 -49 44q0 48 49 50q20 2 40 6q50 11 50 94l-10 214q0 74 13 96q-5 30 -5 54q0 94 53 154.5t135 60.5t121 -19.5t39 -41t-17.5 -33.5t-39.5 -12l-101 19q-98 0 -98 -251
l8 -210q0 -132 -36 -179q34 -42 34 -146v-440q0 -143 92 -143l121 23q17 0 17 -35z" />
    <glyph glyph-name="bar" unicode="|" horiz-adv-x="467" 
d="M246 -29q0 -21 -15.5 -36t-36.5 -15q-51 0 -51 194l-14 1396q0 74 71 74q18 0 30 -16t12 -35l4 -1154v-408z" />
    <glyph glyph-name="braceright" unicode="}" horiz-adv-x="649" 
d="M121 1438q0 16 31 36t92 21q114 0 157.5 -63t44.5 -183l1 -373q0 -86 46 -96q19 -4 37 -6q46 -2 46 -46t-46 -47q-20 -1 -38 -5q-46 -10 -45 -95l8 -251q0 -91 -11 -109q4 -25 4 -55q0 -94 -52.5 -154t-134.5 -60t-121 19.5t-39 41t17.5 33.5t39.5 12l101 -19
q98 0 98 250l-10 245q0 147 38 195q-37 47 -37 146l10 252q0 281 -99 281l-121 -23q-17 0 -17 53z" />
    <glyph glyph-name="asciitilde" unicode="~" horiz-adv-x="675" 
d="M9 1100q0 54 40 89t99.5 35t185.5 -41.5t156 -41.5t40.5 13t13.5 28t14 28t37.5 13t43.5 -16t17 -37q0 -53 -39.5 -92.5t-92.5 -39.5q-190 0 -273 43t-115 44q-29 -11 -24 -39t-29 -40q-74 0 -74 54z" />
    <glyph glyph-name="exclamdown" unicode="&#xa1;" horiz-adv-x="286" 
d="M120 1026q20 0 38 -50t18 -126l-8 -339l10 -672q0 -31 -27 -55t-54 -24t-41 14t-15 36q-1 164 21 490t22 489l-2 97q0 140 38 140zM56 1306q0 72 101 72q23 0 45 -22t23 -56q0 -36 -25 -64t-62 -29q-38 0 -60 29t-22 70z" />
    <glyph glyph-name="cent" unicode="&#xa2;" horiz-adv-x="613" 
d="M335 -20h-9l-38 35q4 23 4 48t-4 71t-4 69l-3 -1l8 111q-88 33 -123.5 69t-53 59t-34 76.5t-20.5 109.5t-4 153.5t14 242t149 231.5q-11 104 -11 114q0 88 52 88h7l30 -20q-5 -37 -5 -70.5t10 -111.5q9 -3 33.5 -9.5t84 -24.5t66.5 -80h-2v-5q0 -17 -12.5 -34t-32 -17
t-38 16.5t-27.5 39.5l-58 29h-5q2 -118 31.5 -365t29.5 -376l-2 -25q0 -4 2 -12q54 1 86 35t66 85q59 0 59 -60q0 -53 -72.5 -99t-131.5 -51q-8 -52 -8 -79l14 -194q0 -20 -14.5 -34t-33.5 -14zM153 790q0 -345 123 -366q-2 416 -58 701q-65 -95 -65 -335z" />
    <glyph glyph-name="sterling" unicode="&#xa3;" horiz-adv-x="712" 
d="M94 6q-58 5 -58 51.5t57.5 68t71.5 32.5q31 24 46.5 95t15.5 140t-15.5 149.5t-48.5 196t-43 155.5q-94 0 -94 24v6q0 12 3 20q9 22 74 22q-1 42 -13 133t-12 133t3 83t14.5 100.5t30.5 105t54.5 78.5t82.5 33h25q37 0 77.5 -42.5t65 -96.5t24.5 -82.5t-6 -40t-31 -11.5
t-43.5 18t-26.5 44t-15 52q-17 62 -64 62q-64 1 -87 -193q-5 -42 -5 -72v-27q0 -176 19 -267l205 3q20 0 36 -15t16 -28.5t-9.5 -17t-33.5 -6t-47 -4t-68 -4t-78 -4.5q11 -62 59 -231t48 -262t-22 -160t-25 -78q39 -3 127.5 -23.5t137.5 -20.5l110 21q23 0 39 -15t16 -39.5
t-38.5 -44.5t-105 -20t-157.5 18.5t-128 22.5v3q-25 -1 -87.5 -26t-96.5 -43v4z" />
    <glyph glyph-name="currency" unicode="&#xa4;" horiz-adv-x="895" 
d="M451 305q54 0 110 48.5t86 180.5q31 131 31 217t-18.5 188t-42.5 132q-21 4 -35.5 21.5t-16.5 39.5q-45 49 -123 49q-17 0 -54.5 -30.5t-52.5 -50.5l15 -14q0 -77 -47 -77q-17 0 -36.5 -122.5t-19.5 -190.5h3q2 -18 2 -27l-5 -84q0 -117 54 -164q0 -116 150 -116z
M398 1285q116 0 222 -69q8 10 30 51q46 84 99 84h10l43 -47q-3 -42 -72 -126q-23 -28 -23 -37q0 -60 45 -181.5t45 -186.5t-33.5 -188.5t-33.5 -188.5q0 -30 38.5 -74t38.5 -70t-14.5 -41.5t-39.5 -15.5t-47.5 14t-26.5 39l-25 45q-99 -88 -239 -88q-95 0 -182 85
q-1 -2 -10 -23q-28 -66 -76 -66q-31 0 -47.5 21.5t-16.5 46t16.5 46t39.5 44t30 33.5q-32 60 -32 175q0 404 72 511q-6 12 -51.5 57.5t-45.5 69t14.5 37t28 13.5t21 -1.5t13 -3.5t12.5 -6.5t11.5 -7t11 -9.5t9.5 -10t9.5 -11t8.5 -11t9 -12t8 -11q90 113 130 113z" />
    <glyph glyph-name="yen" unicode="&#xa5;" horiz-adv-x="876" 
d="M444 -8q-74 0 -74 48v5q18 44 30.5 319t12.5 409h-7l-190 -11h-14l-31 1q-36 20 -54 60l16 52q135 0 289 8q2 24 2 71l-1 4l-153 -10q-132 0 -132 62v7l25 39l158 -4q54 0 102 7v12q-89 87 -165 253l-64 136q-76 157 -176 245v59l3 -5q34 15 50 15q34 0 97.5 -79
t118 -170t114 -195t71.5 -123q9 23 41 135.5t63 214.5t73.5 188.5t75.5 86.5q23 0 40.5 -15.5t17.5 -38.5q-7 -32 -77 -227q-69 -195 -87 -269t-42 -132.5t-32 -90.5l25 -3l155 10q127 0 127 -59t-113 -59h-9l-191 2v-63l148 8q160 0 160 -75q0 -22 -18.5 -38t-41.5 -16
h-108l21 10h-166q0 -104 -15.5 -315t-15.5 -319l1 -48q0 -102 -60 -102z" />
    <glyph glyph-name="brokenbar" unicode="&#xa6;" horiz-adv-x="325" 
d="M157 695q61 0 61 -74l2 -637q0 -64 -51 -64q-21 0 -36.5 15t-15.5 36l-3 368l1 305q0 19 12 35t30 16zM163 826q-51 0 -51 194l-8 490q0 74 71 74q45 0 45 -191l-2 -108l-3 -408q0 -21 -15.5 -36t-36.5 -15z" />
    <glyph glyph-name="section" unicode="&#xa7;" horiz-adv-x="520" 
d="M80 822q0 128 91 196q-58 120 -58 257q0 168 167 168q30 0 65.5 -13t35.5 -37t-19 -32.5t-46.5 -9t-55 -2.5t-46.5 -19.5t-19 -66.5t25 -110.5t61.5 -114.5t72.5 -109.5t61 -133t25 -175t-89 -155.5q75 -117 75 -233t-84 -192q-44 -40 -91 -39.5t-79.5 23.5t-32.5 50
q0 47 50 47q22 0 43 -12q42 1 67.5 51t25.5 96.5t-18 92.5t-45.5 82.5t-59.5 80.5q-30 44 -58 86q-64 96 -64 224zM180 810.5q0 -59.5 18.5 -107t38 -77t54.5 -77.5q49 42 49 101.5t-16.5 96t-21 47t-18.5 35t-18.5 31.5t-21.5 34t-20 31q-44 -55 -44 -114.5z" />
    <glyph glyph-name="dieresis" unicode="&#xa8;" horiz-adv-x="631" 
d="M385 1024q0 28 22 51t50 23t48.5 -22.5t20.5 -52t-23 -49.5t-51.5 -20t-47.5 21t-19 49zM165.5 954q-29.5 0 -45 19t-15.5 49t20 51.5t49.5 21.5t50.5 -20t21 -49.5t-25.5 -50.5t-55 -21z" />
    <glyph glyph-name="copyright" unicode="&#xa9;" horiz-adv-x="1207" 
d="M431 809v-51q0 -303 101 -393q37 -33 92.5 -33t96.5 54q40 54 73 54q60 0 60 -68q0 -40 -42 -76q-83 -70 -184 -71q-53 0 -115 30t-77 36q-83 158 -104 247.5t-21 274.5v12q0 174 13 281.5t60.5 250t167.5 142.5t201.5 -73.5t81.5 -150.5q0 -21 -14.5 -36.5t-39 -15.5
t-46.5 18.5t-55 81.5q-32 64 -72.5 64t-69 -28.5t-44 -68t-27.5 -98.5t-16 -102.5t-8 -99t-6 -69.5l4 -10h-1q-9 -37 -9 -102zM997 894q0 59 -17.5 132t-43 206t-99.5 253q-75 119 -193 199q-42 28 -98 28.5t-114.5 -40.5t-137.5 -193.5t-79 -538.5h1q0 -61 13 -258
t17.5 -242t25 -128t52 -123t92.5 -74t197.5 -34.5t228.5 101.5t134 282q-3 9 -3 19l24 106v305zM98 932.5q0 61.5 12.5 307.5t175.5 453q94 119 253 119q95 0 208 -56t202.5 -233t124.5 -383q36 -206 36.5 -335.5t-16.5 -356t-217 -382.5q-110 -86 -282 -86t-274 62
q-133 80 -177 287q-21 97 -33.5 319.5t-12.5 284z" />
    <glyph glyph-name="ordfeminine" unicode="&#xaa;" 
d="M619 309q0 -45 -34 -58q-43 0 -67 14t-24 54q0 87 -30 253l-202 30q-19 -68 -29 -149t-19 -118q-18 -76 -67 -76q-24 0 -44.5 15.5t-20.5 39.5q0 154 76 406t94 380q2 14 9 123t35 150h69q47 1 95 -147t82 -340q76 -438 77 -575v-2zM451 645q-11 57 -33 246t-38 293
q-89 -378 -110 -506q35 -23 181 -33zM14 112.5q0 18.5 14.5 33t35.5 14.5h506q50 0 50 -36q0 -17 -16 -31.5t-58.5 -14.5t-70.5 -2l-382 -10q-32 0 -55.5 14t-23.5 32.5z" />
    <glyph glyph-name="guillemotleft" unicode="&#xab;" horiz-adv-x="681" 
d="M453 -13q0 -22 -20.5 -34t-42.5 -12t-122 169.5t-191.5 356.5t-91.5 220t55.5 173t125 306.5t80.5 194.5q3 27 22 64t39 58v2l19 4q24 0 43.5 -13t20.5 -36q-47 -108 -139.5 -365t-154.5 -388q20 -100 188 -378t169 -322zM704 49q-5 -71 -43.5 -71t-50.5 4
q-32 10 -360 716q2 56 106 282t111.5 252.5t18 71.5t32.5 96q22 52 62 46l45 -35q-17 -134 -137 -370t-121 -339q0 -15 137.5 -292t173.5 -341z" />
    <glyph glyph-name="logicalnot" unicode="&#xac;" horiz-adv-x="467" 
d="M-21 763q0 72 218 72l183 -7l335 20q25 0 46 -17t21 -47.5t-19 -63.5q0 -108 24 -183q-3 -24 -17.5 -43t-36.5 -19q-63 0 -63 117l2 67q0 41 -5 68l-76 6l-561 -22q-21 0 -36 15.5t-15 36.5z" />
    <glyph glyph-name="uni00AD" unicode="&#xad;" horiz-adv-x="646" 
d="M544 727q0 -38 -148 -55q-148 -16 -227 -16q-26 0 -46.5 17t-20.5 54.5t146 53.5q146 17 228 17q26 0 47 -16.5t21 -54.5z" />
    <glyph glyph-name="registered" unicode="&#xae;" horiz-adv-x="1216" 
d="M695 1272v8q0 109 -11 142t-22 56q-22 47 -80 47t-80.5 -30.5t-22.5 -87.5l8 -144q0 -173 23 -263q185 75 185 272zM390 676v399q0 63 -12.5 189t-12.5 190q0 105 53 143t138 38t146 -32t88 -124q27 -93 27 -185.5t-13.5 -145t-33.5 -81t-39.5 -46.5t-35.5 -30.5
t-19 -21.5q3 -69 182 -655h7q0 -22 15 -58.5t15 -55.5t-20 -38t-37 -19q-42 0 -87.5 106t-76 234t-62 263.5t-44.5 167.5l-55 -23q-5 -80 -5 -136.5t22.5 -251.5t22.5 -293q0 -67 -56 -67q-28 0 -50.5 18.5t-22.5 46.5l1 48q0 167 -17.5 273.5t-17.5 146.5zM647 1832
q-425 0 -425 -878q0 -773 140 -927q21 -23 65.5 -52t57.5 -39l60 -12l19 -8q196 3 298 139q111 149 130 413q8 108 8 238l1 160q0 253 -24 440.5t-103 348.5q-25 50 -101.5 113.5t-125.5 63.5zM633.5 -190q-79.5 0 -148 20t-119 53t-139.5 144.5t-114 435.5q-11 133 -11 294
v160q0 263 27.5 434t84 300t159.5 208t259 79q88 0 170 -52t140 -131q86 -51 143 -529q29 -244 29 -370.5t-0.5 -172.5t-5 -136t-12.5 -149.5t-24.5 -143.5t-39.5 -140.5t-60 -119t-83 -99t-111 -61t-144.5 -24.5z" />
    <glyph glyph-name="macron" unicode="&#xaf;" horiz-adv-x="651" 
d="M546 749q0 -45 -66 -45l-148 -4q-228 0 -228 56q0 44 90 44l144 4q208 0 208 -55z" />
    <glyph glyph-name="degree" unicode="&#xb0;" horiz-adv-x="728" 
d="M375 901q-93 0 -132 -38q-65 -63 -65 -198q0 -48 50.5 -99t152.5 -51t150 105q58 127 -2.5 204t-153.5 77zM333 970q187 0 259 -116q36 -57 35.5 -103.5t-11.5 -105t-78 -133.5q-66 -74 -204 -74q-68 0 -116.5 29t-72.5 76q-44 86 -44 189t64 170.5t168 67.5z" />
    <glyph glyph-name="plusminus" unicode="&#xb1;" horiz-adv-x="773" 
d="M381 333q-25 0 -46 14.5t-21 37.5l6 199l-18 15l-114 -9q-88 0 -88 65q0 21 12.5 37t33.5 16l122 -7q25 0 46 4l-12 150q0 113 66 113q24 0 42 -17.5t18 -41.5v-5l-8 -20q0 -183 28 -183l118 8q106 0 106 -62q0 -24 -17 -40t-41 -16l-120 11q-66 0 -66 -49l20 -164
q0 -25 -21 -40.5t-46 -15.5zM100 200q0 21 12.5 33.5t33.5 12.5h302l126 7q98 0 98 -61q0 -47 -58 -47l-432 -10q-82 0 -82 65z" />
    <glyph glyph-name="uni00B2" unicode="&#xb2;" horiz-adv-x="529" 
d="M38 47v8q43 51 72 135t41 109q117 259 174 475t57 467t-98 259q-34 -18 -46 -96t-61 -77q-49 0 -49 63q0 100 58 162q32 34 74 34v1q106 1 148 -57t56 -122q16 -64 16 -210t-36 -311t-78 -279t-107 -276q-64 -161 -92 -246q124 21 242 21q43 -31 43 -55t-27 -48l-312 -19
q-29 0 -52 17t-23 45z" />
    <glyph glyph-name="uni00B3" unicode="&#xb3;" horiz-adv-x="545" 
d="M222 847q-63 0 -63 42q0 32 45 80q86 93 86 177t-14 167q-27 164 -93 164q-25 -1 -41 -19t-24 -40q-6 -22 -24 -40t-44 -18t-42 16q-17 16 -21 40q27 69 79 113t111 44q143 0 189 -204q26 -119 26 -197t-10 -107t-18 -45q-10 -16 -33 -48q-23 -33 -31 -45
q126 -75 163 -425q8 -76 8 -131t-4 -127q-6 -112 -65 -198q-46 -66 -133 -66t-124 32t-37 58t6 33t25 7q20 0 31 -12q45 -31 73 -34q125 0 125 230q0 300 -54 434q-27 66 -71 121q-6 -2 -21 -2z" />
    <glyph glyph-name="acute" unicode="&#xb4;" horiz-adv-x="453" 
d="M41 1318q0 11 28.5 37.5t129 112.5t121.5 105q12 4 27 4t36 -25.5t21 -49.5t-15 -34q-78 -57 -298 -173q-8 -4 -19 -4t-21 8t-10 19z" />
    <glyph glyph-name="uni00B5" unicode="&#xb5;" horiz-adv-x="641" 
d="M299 -31q-69 0 -117 42q4 -118 4 -177q0 -82 -65 -82q-21 0 -33.5 12.5t-12.5 33.5v301l-7 376v9l11 529q0 177 -25 293l22 49q84 0 84 -123v-557q0 -73 14.5 -217t14.5 -217q0 -210 130 -210q63 0 101 281q19 142 19 247q26 462 26 748l-1 34q0 48 49 47t59 -29t11 -69
l-14 -206l-9 -171l2 -35q0 -9 -5 -32t-10 -116t-7 -187t-15.5 -200t-36 -186.5t-71.5 -134t-118 -53.5z" />
    <glyph glyph-name="uni00B5" unicode="&#x3bc;" horiz-adv-x="641" 
d="M299 -31q-69 0 -117 42q4 -118 4 -177q0 -82 -65 -82q-21 0 -33.5 12.5t-12.5 33.5v301l-7 376v9l11 529q0 177 -25 293l22 49q84 0 84 -123v-557q0 -73 14.5 -217t14.5 -217q0 -210 130 -210q63 0 101 281q19 142 19 247q26 462 26 748l-1 34q0 48 49 47t59 -29t11 -69
l-14 -206l-9 -171l2 -35q0 -9 -5 -32t-10 -116t-7 -187t-15.5 -200t-36 -186.5t-71.5 -134t-118 -53.5z" />
    <glyph glyph-name="paragraph" unicode="&#xb6;" horiz-adv-x="887" 
d="M586 64q0 -72 -43 -72t-60.5 18.5t-17.5 45.5q0 152 21.5 454t21.5 454l-4 134q-215 0 -325 56q-114 56 -135 195q-4 23 -8 35q0 182 58 278t164 136.5t273 55.5q22 22 50 22t57.5 -8t34.5 -9l-1 -1l56 7l9 -11q123 -8 123 -47t-17 -54t-40 -15l-23 1l14 -597l-12 -877
l12 -229q0 -24 -17 -40t-41 -16q-75 0 -75 123l19 1074l-15 446l3 66q0 80 -62 80q-9 0 -9 -99.5t13.5 -335.5t13.5 -371.5t-19 -440.5t-19 -458zM406 1748q-106 0 -181.5 -93t-75.5 -201l-1 1q0 -189 139 -235q74 -24 204 -24l15 4l-20 497l2 43q-27 8 -82 8z" />
    <glyph glyph-name="periodcentered" unicode="&#xb7;" horiz-adv-x="295" 
d="M74 707.5q0 29.5 23 53.5t53 24t52 -24t22 -55.5t-23 -52t-54.5 -20.5t-52 22.5t-20.5 52z" />
    <glyph glyph-name="cedilla" unicode="&#xb8;" horiz-adv-x="404" 
d="M349 -305q0 -73 -53 -126t-107 -53t-92.5 15t-38.5 38.5t14 36.5t30.5 13t42.5 -11t51.5 -11t45.5 28.5t20 66t-26.5 63.5t-88.5 26t-65 12l9 166q0 39 6 59h56q-10 -51 -13 -109q109 -15 159 -78t50 -136z" />
    <glyph glyph-name="uni00B9" unicode="&#xb9;" horiz-adv-x="559" 
d="M116 41q0 29 10 37t48 8q40 0 40 34q0 201 -31 599t-31 589l3 75q0 96 -71 96l-47 -2q-58 0 -58 44q0 54 165 54q86 0 105 -34q-12 -57 -12 -103q-1 -46 15 -171t16 -237t22 -436t22 -485v-13q48 6 75 6v1q87 0 87 -51q0 -60 -233 -60l-61 -1q-34 1 -49 11t-15 39z" />
    <glyph glyph-name="ordmasculine" unicode="&#xba;" 
d="M14 112.5q0 18.5 14.5 33t35.5 14.5h506q50 0 50 -36q0 -17 -16 -31.5t-40 -14.5l-471 -12q-32 0 -55.5 14t-23.5 32.5zM322 1269q-74 1 -98 -17q-54 -40 -54 -195l2 -41l-10 -189q0 -291 78 -403q28 -40 79 -40t105 63.5t54 226.5l1 134q1 218 -33 314q-50 146 -124 147
zM204 1378q238 0 328 -194q52 -112 52 -276v-15l4 -232q0 -392 -273 -392q-113 1 -171 87q-92 137 -93 380l-2 144q0 498 155 498z" />
    <glyph glyph-name="guillemotright" unicode="&#xbb;" horiz-adv-x="682" 
d="M375 1486v-2l1 1q21 -21 39.5 -57t22.5 -65q10 -26 135 -326t125 -339.5t-91.5 -227t-191 -357t-122 -169.5t-43 12t-20.5 45t169 312q169 280 189 376q-60 126 -111 295q-92 309 -185 449q2 25 20.5 41t44.5 16l15 -4h3zM70 -19l-38 -4q-25 0 -39 22.5t-15 49.5l25 20
q40 75 175 347t135 286q-1 102 -91 280q-38 74 -74 147q-90 177 -92 282l45 35l10 -2q42 -20 59 -60t25 -77.5t17 -69.5t113 -256t106 -283l-357 -717h-4z" />
    <glyph glyph-name="onequarter" unicode="&#xbc;" horiz-adv-x="1551" 
d="M1444 1072q0 -319 -4 -476l59 5q61 0 61 -44q0 -50 -82 -50q-33 0 -33 -18q-1 -69 5 -190t16 -144q-4 -24 -4 -44t9 -35v-37q0 -77 -48 -77q-31 0 -48 32t-17 65v7q11 38 11 74l-15 199l2 89q0 35 -4 63l-112 -11v-1q-38 0 -80 33q0 46 9 79q-9 49 -9 117t16 209t15 207
v379q0 20 7 30t31 10t43 -14t19 -37l-9 -159l-1 -37q0 -21 4 -37v-7q6 -54 6 -125q-1 -71 -15 -245t-14 -228q0 -55 3 -78q35 1 75 11l19 573q0 22 18 34t35 12l32 -36v-98zM614 -54q-24 0 -24 45q0 17 10 50t174 701q165 668 208 811q6 14 20 14q14 -1 26 -13t11 -26
q1 -14 -21 -125q-22 -112 -171 -704t-213 -730q-5 -23 -20 -23zM116 41q0 29 10 37t48 8q40 0 40 34q0 201 -31 599t-31 589l3 75q0 96 -71 96l-47 -2q-58 0 -58 44q0 54 165 54q86 0 105 -34q-12 -57 -12 -103q-1 -46 15 -171t16 -237t22 -436t22 -485v-13q48 6 75 6v1
q87 0 87 -51q0 -60 -233 -60l-61 -1q-34 1 -49 11t-15 39z" />
    <glyph glyph-name="onehalf" unicode="&#xbd;" horiz-adv-x="1600" 
d="M1109 47v8q43 51 72 135t41 109q117 259 174 475t57 467t-98 259q-34 -18 -46 -96t-61 -77q-49 0 -49 63q0 100 58 162q32 34 74 34v1q105 1 147 -57t58 -122t15 -210q0 -146 -36 -311q-37 -165 -79 -279t-106 -276q-64 -161 -92 -246q124 21 242 21q43 -31 43 -55
t-27 -48l-312 -19q-29 0 -52 17t-23 45zM614 -54q-24 0 -24 45q0 17 10 50t174 701q165 668 208 811q6 14 20 14q14 -1 26 -13t11 -26q1 -14 -21 -125q-22 -112 -171 -704t-213 -730q-5 -23 -20 -23zM116 41q0 29 10 37t48 8q40 0 40 34q0 201 -31 599t-31 589l3 75
q0 96 -71 96l-47 -2q-58 0 -58 44q0 54 165 54q86 0 105 -34q-12 -57 -12 -103q-1 -46 15 -171t16 -237t22 -436t22 -485v-13q48 6 75 6v1q87 0 87 -51q0 -60 -233 -60l-61 -1q-34 1 -49 11t-15 39z" />
    <glyph glyph-name="threequarters" unicode="&#xbe;" horiz-adv-x="1537" 
d="M1430 1072q0 -319 -4 -476l59 5q61 0 61 -44q0 -50 -82 -50q-33 0 -33 -18q-1 -69 5 -190t16 -144q-4 -24 -4 -44t9 -35v-37q0 -77 -48 -77q-31 0 -48 32t-17 65v7q11 38 11 74l-15 199l2 89q0 35 -4 63l-112 -11v-1q-38 0 -80 33q0 46 9 79q-9 49 -9 117t16 209t15 207
v379q0 20 7 30t31 10t43 -14t19 -37l-9 -159l-1 -37q0 -21 4 -37v-7q6 -54 6 -125q-1 -71 -15 -245t-14 -228q0 -55 3 -78q35 1 75 11l19 573q0 22 18 34t35 12l32 -36v-98zM600 -54q-24 0 -24 45q0 17 10 50t174 701q165 668 208 811q6 14 20 14q14 -1 26 -13t11 -26
q1 -14 -21 -125q-22 -112 -171 -704t-213 -730q-5 -23 -20 -23zM222 847q-63 0 -63 42q0 32 45 80q86 93 86 177t-14 167q-27 164 -93 164q-25 -1 -41 -19t-24 -40q-6 -22 -24 -40t-44 -18t-42 16q-17 16 -21 40q27 69 79 113t111 44q143 0 189 -204q26 -119 26 -197
t-10 -107t-18 -45q-10 -16 -33 -48q-23 -33 -31 -45q126 -75 163 -425q8 -76 8 -131t-4 -127q-6 -112 -65 -198q-46 -66 -133 -66t-124 32t-37 58t6 33t25 7q20 0 31 -12q45 -31 73 -34q125 0 125 230q0 300 -54 434q-27 66 -71 121q-6 -2 -21 -2z" />
    <glyph glyph-name="questiondown" unicode="&#xbf;" horiz-adv-x="480" 
d="M400 30q0 -72 -11 -112t-44 -69q-33 -30 -82 -30q-49 1 -83 19q-61 34 -78 103t-17 169t20 205q18 105 42 184q62 210 63 501q0 99 -1 137q35 0 41 3t10 3q38 0 50 -46q0 -226 -58 -515t-57 -476q0 -187 61 -187q39 0 39 91q0 16 -14 111q0 9 25 25t36 17q58 -1 58 -133z
M177 1296q0 78 83 78q28 0 50 -24t22 -52t-25 -54t-53 -26t-53 26q-24 26 -24 52z" />
    <glyph glyph-name="Agrave" unicode="&#xc0;" horiz-adv-x="656" 
d="M102 1896q22 0 175 -84t153 -111q0 -14 -24 -14q-24 -1 -197 55q-172 56 -172 74q-1 24 21 52t44 28zM394 1214q0 34 1 40q-33 -33 -93 -367t-64 -423q84 -23 142 -23t82 6q-3 41 -21 223q-19 182 -33 346t-14 198zM527 1q-63 0 -63 53v267q-28 20 -104 34t-135 18
q-21 -36 -35 -104t-28 -137t-38 -109q-80 0 -90 41q28 40 91 409t103 577t88 351q47 142 90 142t66 -18q0 -73 40 -395t40 -416t22 -314t21 -330q0 -69 -68 -69z" />
    <glyph glyph-name="Aacute" unicode="&#xc1;" horiz-adv-x="656" 
d="M317 1714q1 12 29 38t128 112t122 105q12 4 27 4q15 1 36 -25t21 -50t-15 -34q-78 -57 -298 -173q-8 -4 -19 -4t-21 8t-10 19zM394 1214q0 34 1 40q-33 -33 -93 -367t-64 -423q84 -23 142 -23t82 6q-3 41 -21 223q-19 182 -33 346t-14 198zM527 1q-63 0 -63 53v267
q-28 20 -104 34t-135 18q-21 -36 -35 -104t-28 -137t-38 -109q-80 0 -90 41q28 40 91 409t103 577t88 351q47 142 90 142t66 -18q0 -73 40 -395t40 -416t22 -314t21 -330q0 -69 -68 -69z" />
    <glyph glyph-name="Acircumflex" unicode="&#xc2;" horiz-adv-x="656" 
d="M310 1691q-14 0 -26 19q-14 18 -14 50t33 124t81 173q48 82 84 82t84 -157t48 -238q0 -24 -18 -40t-42 -17q-55 1 -77 189q-10 86 -13 97q0 -7 -16 -49t-26 -74q-12 -32 -24 -58t-24 -50t-24 -38t-26 -13zM394 1214q0 34 1 40q-33 -33 -93 -367t-64 -423q84 -23 142 -23
t82 6q-3 41 -21 223q-19 182 -33 346t-14 198zM527 1q-63 0 -63 53v267q-28 20 -104 34t-135 18q-21 -36 -35 -104t-28 -137t-38 -109q-80 0 -90 41q28 40 91 409t103 577t88 351q47 142 90 142t66 -18q0 -73 40 -395t40 -416t22 -314t21 -330q0 -69 -68 -69z" />
    <glyph glyph-name="Atilde" unicode="&#xc3;" horiz-adv-x="656" 
d="M174 1764q0 39 40 74t108 35q25 1 89 -41t84 -42q21 0 31 13t13 28t14 28t37 13t44 -16q17 -16 17 -37q1 -53 -39 -93t-94 -39q-99 0 -136 44t-81 43q-29 -11 -24 -39t-29 -40q-74 0 -74 69zM394 1214q0 34 1 40q-33 -33 -93 -367t-64 -423q84 -23 142 -23t82 6
q-3 41 -21 223q-19 182 -33 346t-14 198zM527 1q-63 0 -63 53v267q-28 20 -104 34t-135 18q-21 -36 -35 -104t-28 -137t-38 -109q-80 0 -90 41q28 40 91 409t103 577t88 351q47 142 90 142t66 -18q0 -73 40 -395t40 -416t22 -314t21 -330q0 -69 -68 -69z" />
    <glyph glyph-name="Adieresis" unicode="&#xc4;" horiz-adv-x="656" 
d="M504 1757q0 28 22 51t50 23q28 -1 48 -23t21 -52q0 -30 -23 -49q-24 -20 -52 -20t-47 21t-19 49zM284 1687q-30 0 -44 19q-16 19 -16 49q0 29 20 51t50 22t50 -20q21 -20 21 -50q1 -30 -25 -50q-26 -21 -56 -21zM394 1214q0 34 1 40q-33 -33 -93 -367t-64 -423
q84 -23 142 -23t82 6q-3 41 -21 223q-19 182 -33 346t-14 198zM527 1q-63 0 -63 53v267q-28 20 -104 34t-135 18q-21 -36 -35 -104t-28 -137t-38 -109q-80 0 -90 41q28 40 91 409t103 577t88 351q47 142 90 142t66 -18q0 -73 40 -395t40 -416t22 -314t21 -330q0 -69 -68 -69
z" />
    <glyph glyph-name="Aring" unicode="&#xc5;" horiz-adv-x="656" 
d="M257 1794q1 -48 51 -99t104 -51t100 15q47 15 75 53t40 76t12 64t-6 48q-15 53 -64 92q-49 38 -144 38t-131 -74t-37 -162zM409 2099q101 0 164 -31t84 -64q50 -76 50 -136q0 -129 -79 -215t-222 -86t-198 141q-27 68 -27 162q-1 94 63 162t165 67zM394 1214q0 34 1 40
q-33 -33 -93 -367t-64 -423q84 -23 142 -23t82 6q-3 41 -21 223q-19 182 -33 346t-14 198zM527 1q-63 0 -63 53v267q-28 20 -104 34t-135 18q-21 -36 -35 -104t-28 -137t-38 -109q-80 0 -90 41q28 40 91 409t103 577t88 351q47 142 90 142t66 -18q0 -73 40 -395t40 -416
t22 -314t21 -330q0 -69 -68 -69z" />
    <glyph glyph-name="AE" unicode="&#xc6;" horiz-adv-x="879" 
d="M850 53q0 -65 -244 -65h-32q-16 0 -42 -14.5t-39 -16.5l-45 45l2 1q17 176 17 250l-10 380q-15 -1 -73 -3t-104 -19l-101 -385q-2 -9 -10.5 -54t-16.5 -78t-26.5 -63t-38 -30t-31.5 15t-12 32q0 232 352 1332q0 16 10 41t18 47t16 30t22 27q15 19 50 19l158 10
q87 0 87 -56v-6l-21 -42q-103 0 -194 -10l14 -274l-6 -450q20 2 70 10.5t78 8.5h10l42 -48q0 -66 -113 -66h-9l-79 1l6 -540l227 21q25 0 46.5 -13.5t21.5 -36.5zM461 1154q0 86 -2 129q-113 -377 -159 -595q97 6 153 18q1 50 4.5 206t3.5 242z" />
    <glyph glyph-name="Ccedilla" unicode="&#xc7;" horiz-adv-x="649" 
d="M530 1464q0 -46 -74 -45q-40 0 -56 25v-1h-28v5q-118 0 -160 -71t-42 -237l6 -141l-18 -143v-49q0 -238 10 -315t26 -159q15 -82 64 -161q50 -79 135 -79q35 1 87 37t79 36t58 -31q0 -103 -117 -147q-44 -16 -94 -20q-8 -44 -10 -93q109 -15 159 -78t50 -136t-53 -126
t-107 -53q-55 0 -93 15t-38 39t14 36q14 13 30 13t43 -11q25 -11 51 -11q26 1 46 29t20 66t-26 63q-26 26 -89 26q-62 0 -65 12l9 166q0 26 3 43q-201 16 -265 344q-32 167 -34 480l2 245q0 117 14 189q-6 33 -6 64q0 126 94 200t232 75q49 1 96 -27t47 -74z" />
    <glyph glyph-name="Egrave" unicode="&#xc8;" horiz-adv-x="457" 
d="M-130 1896q22 0 175 -84t153 -111q0 -14 -24 -14q-24 -1 -197 55q-172 56 -172 74q-1 24 21 52t44 28zM314 111q117 0 117 -54v-7q-14 -28 -48 -43t-60 -17t-67 -2h-64q-76 0 -94 30q-8 14 -8 37v1190q0 35 -14 104t-14 105v7q34 56 51 72l152 18q31 -1 63 -19t31 -48
q0 -61 -93 -61l-59 2q-15 0 -22 -1l16 -338q0 -42 -5 -120t-5 -114q11 2 41 10t54 8t42 -17t19 -41q0 -24 -15 -43t-39 -19l-51 2q-30 0 -42 -15v-632q105 6 114 6z" />
    <glyph glyph-name="Eacute" unicode="&#xc9;" horiz-adv-x="457" 
d="M141 1714q1 12 29 38t128 112t122 105q12 4 27 4q15 1 36 -25t21 -50t-15 -34q-78 -57 -298 -173q-8 -4 -19 -4t-21 8t-10 19zM314 111q117 0 117 -54v-7q-14 -28 -48 -43t-60 -17t-67 -2h-64q-76 0 -94 30q-8 14 -8 37v1190q0 35 -14 104t-14 105v7q34 56 51 72l152 18
q31 -1 63 -19t31 -48q0 -61 -93 -61l-59 2q-15 0 -22 -1l16 -338q0 -42 -5 -120t-5 -114q11 2 41 10t54 8t42 -17t19 -41q0 -24 -15 -43t-39 -19l-51 2q-30 0 -42 -15v-632q105 6 114 6z" />
    <glyph glyph-name="Ecircumflex" unicode="&#xca;" horiz-adv-x="457" 
d="M54 1691q-14 0 -26 19q-14 18 -14 50t33 124t81 173q48 82 84 82t84 -157t48 -238q0 -24 -18 -40t-42 -17q-55 1 -77 189q-10 86 -13 97q0 -7 -16 -49t-26 -74q-12 -32 -24 -58t-24 -50t-24 -38t-26 -13zM314 111q117 0 117 -54v-7q-14 -28 -48 -43t-60 -17t-67 -2h-64
q-76 0 -94 30q-8 14 -8 37v1190q0 35 -14 104t-14 105v7q34 56 51 72l152 18q31 -1 63 -19t31 -48q0 -61 -93 -61l-59 2q-15 0 -22 -1l16 -338q0 -42 -5 -120t-5 -114q11 2 41 10t54 8t42 -17t19 -41q0 -24 -15 -43t-39 -19l-51 2q-30 0 -42 -15v-632q105 6 114 6z" />
    <glyph glyph-name="Edieresis" unicode="&#xcb;" horiz-adv-x="457" 
d="M248 1757q0 28 22 51t50 23q28 -1 48 -23t21 -52q0 -30 -23 -49q-24 -20 -52 -20t-47 21t-19 49zM28 1687q-30 0 -44 19q-16 19 -16 49q0 29 20 51t50 22t50 -20q21 -20 21 -50q1 -30 -25 -50q-26 -21 -56 -21zM314 111q117 0 117 -54v-7q-14 -28 -48 -43t-60 -17t-67 -2
h-64q-76 0 -94 30q-8 14 -8 37v1190q0 35 -14 104t-14 105v7q34 56 51 72l152 18q31 -1 63 -19t31 -48q0 -61 -93 -61l-59 2q-15 0 -22 -1l16 -338q0 -42 -5 -120t-5 -114q11 2 41 10t54 8t42 -17t19 -41q0 -24 -15 -43t-39 -19l-51 2q-30 0 -42 -15v-632q105 6 114 6z" />
    <glyph glyph-name="Igrave" unicode="&#xcc;" horiz-adv-x="432" 
d="M14 1896q22 0 175 -84t153 -111q0 -14 -24 -14q-24 -1 -197 55q-172 56 -172 74q-1 24 21 52t44 28zM226 1401q0 -200 25 -599t25 -599v-79q21 3 42 3q85 0 85 -72v-12l-51 -35l-139 -5q-177 0 -177 61q0 49 62 49l43 -3q30 0 30 48q0 158 -19 474t-19 473l4 209
q0 66 -5 114q-27 -9 -48 -9q-48 0 -48 49q0 52 128 74q66 12 108 11t59 -17q18 -16 18 -38q1 -22 -13 -40q-14 -16 -35 -16l-36 1q-19 -1 -29 -9t-10 -33z" />
    <glyph glyph-name="Iacute" unicode="&#xcd;" horiz-adv-x="432" 
d="M108 1714q0 12 28 38t130 112q100 86 121 105q12 4 27 4q15 1 36 -25t21 -50t-15 -34q-78 -57 -298 -173q-8 -4 -19 -4t-21 8t-10 19zM226 1401q0 -200 25 -599t25 -599v-79q21 3 42 3q85 0 85 -72v-12l-51 -35l-139 -5q-177 0 -177 61q0 49 62 49l43 -3q30 0 30 48
q0 158 -19 474t-19 473l4 209q0 66 -5 114q-27 -9 -48 -9q-48 0 -48 49q0 52 128 74q66 12 108 11t59 -17q18 -16 18 -38q1 -22 -13 -40q-14 -16 -35 -16l-36 1q-19 -1 -29 -9t-10 -33z" />
    <glyph glyph-name="Icircumflex" unicode="&#xce;" horiz-adv-x="432" 
d="M22 1691q-14 0 -28 19q-14 18 -13 50q0 32 33 124q34 92 82 173q48 82 83 82t83 -157t49 -238q-1 -24 -19 -40t-41 -17q-55 1 -77 189q-10 86 -13 97q1 -7 -15 -49t-28 -74t-22 -58q-12 -26 -24 -50t-25 -38q-11 -14 -25 -13zM226 1401q0 -200 25 -599t25 -599v-79
q21 3 42 3q85 0 85 -72v-12l-51 -35l-139 -5q-177 0 -177 61q0 49 62 49l43 -3q30 0 30 48q0 158 -19 474t-19 473l4 209q0 66 -5 114q-27 -9 -48 -9q-48 0 -48 49q0 52 128 74q66 12 108 11t59 -17q18 -16 18 -38q1 -22 -13 -40q-14 -16 -35 -16l-36 1q-19 -1 -29 -9
t-10 -33z" />
    <glyph glyph-name="Idieresis" unicode="&#xcf;" horiz-adv-x="432" 
d="M215 1757q0 28 22 51t50 23q29 -1 49 -23t20 -52t-23 -49q-23 -20 -51 -20t-48 21q-19 21 -19 49zM-4 1687q-30 0 -46 19t-15 49q0 29 20 51q19 22 49 22t51 -20t21 -50t-26 -50q-24 -21 -54 -21zM226 1401q0 -200 25 -599t25 -599v-79q21 3 42 3q85 0 85 -72v-12
l-51 -35l-139 -5q-177 0 -177 61q0 49 62 49l43 -3q30 0 30 48q0 158 -19 474t-19 473l4 209q0 66 -5 114q-27 -9 -48 -9q-48 0 -48 49q0 52 128 74q66 12 108 11t59 -17q18 -16 18 -38q1 -22 -13 -40q-14 -16 -35 -16l-36 1q-19 -1 -29 -9t-10 -33z" />
    <glyph glyph-name="Eth" unicode="&#xd0;" horiz-adv-x="810" 
d="M211 310v-196q77 50 134 139.5t87 195.5q56 203 56 420t-58 353t-146 180q-54 28 -122 27v-2q0 -184 21 -503q126 16 159.5 16t51.5 -25t20 -55l-34 -41q-111 0 -190 -5q21 -321 21 -504zM113 270q0 158 -14 320t-17 212q-42 -7 -70 -7t-42 17.5t-14 41.5t28 42t92 18
q-1 23 -1 68l6 224q0 54 -22.5 145.5t-22.5 129.5q0 71 157 71h31q209 0 303 -234q66 -163 66 -450v-95q-5 -9 -5 -19l5 -43q1 -145 -82 -356t-203 -305q-68 -54 -123 -54q-117 -1 -117 69q45 47 45 205z" />
    <glyph glyph-name="Ntilde" unicode="&#xd1;" horiz-adv-x="737" 
d="M88 1775q0 39 40 74t108 35q25 0 89 -42t84 -41q21 0 31 13t13 28t14 28t37 13t44 -16q17 -16 17 -37q1 -52 -39 -92t-94 -40q-99 0 -136 44t-81 43q-29 -11 -24 -39t-29 -40q-74 0 -74 69zM81 1462q0 102 43 102t112 -190q126 -345 302 -1139l2 -10l8 714v606
q12 51 67 51t55 -80v-12q-12 -25 -12 -60l-13 -757v-626q0 -31 -17 -61t-42 -30q-43 0 -168 422t-247 906v-672q1 -98 15 -292t14 -292q0 -20 -23 -32t-59 -12t-35 32l10 147q0 106 -13 344t-13 291v261l14 376v13z" />
    <glyph glyph-name="Ograve" unicode="&#xd2;" horiz-adv-x="650" 
d="M-41 1896q22 0 175 -84t153 -111q-1 -14 -25 -14q-24 -1 -196 55t-172 74q0 24 22 52t43 28zM289 1477q-29 0 -49 -21q-31 -34 -56 -136q-24 -102 -29 -255q-5 -152 -6 -204v-9q0 -138 21 -296q22 -158 44 -259t60 -171t85 -71q81 0 113 314q19 187 17 293q-1 108 -3 180
t-9 136q-5 64 -15 140q-10 77 -26 137q-16 61 -36 113t-50 80t-61 29zM551 227q0 -65 -23 -127t-70 -110t-103 -47q-56 0 -102 38q-81 67 -124 223t-58 316t-14 242t-1 157t-2 101v55q3 197 28 299t71 156q47 55 112 55q65 1 111 -23t78 -76t54 -101q24 -49 38 -137t24 -165
q12 -78 12 -347v-118l-18 -259v-9q-13 -57 -13 -123z" />
    <glyph glyph-name="Oacute" unicode="&#xd3;" horiz-adv-x="650" 
d="M230 1714q0 12 28 38t130 112q100 86 121 105q12 4 27 4q15 1 36 -25t21 -50t-15 -34q-78 -57 -298 -173q-8 -4 -19 -4t-21 8t-10 19zM289 1477q-29 0 -49 -21q-31 -34 -56 -136q-24 -102 -29 -255q-5 -152 -6 -204v-9q0 -138 21 -296q22 -158 44 -259t60 -171t85 -71
q81 0 113 314q19 187 17 293q-1 108 -3 180t-9 136q-5 64 -15 140q-10 77 -26 137q-16 61 -36 113t-50 80t-61 29zM551 227q0 -65 -23 -127t-70 -110t-103 -47q-56 0 -102 38q-81 67 -124 223t-58 316t-14 242t-1 157t-2 101v55q3 197 28 299t71 156q47 55 112 55
q65 1 111 -23t78 -76t54 -101q24 -49 38 -137t24 -165q12 -78 12 -347v-118l-18 -259v-9q-13 -57 -13 -123z" />
    <glyph glyph-name="Ocircumflex" unicode="&#xd4;" horiz-adv-x="650" 
d="M144 1691q-14 0 -26 19q-14 18 -14 50t33 124t81 173q48 82 84 82t84 -157t48 -238q0 -24 -18 -40t-42 -17q-55 1 -77 189q-10 86 -13 97q0 -7 -16 -49t-26 -74q-12 -32 -24 -58t-24 -50t-24 -38t-26 -13zM289 1477q-29 0 -49 -21q-31 -34 -56 -136q-24 -102 -29 -255
q-5 -152 -6 -204v-9q0 -138 21 -296q22 -158 44 -259t60 -171t85 -71q81 0 113 314q19 187 17 293q-1 108 -3 180t-9 136q-5 64 -15 140q-10 77 -26 137q-16 61 -36 113t-50 80t-61 29zM551 227q0 -65 -23 -127t-70 -110t-103 -47q-56 0 -102 38q-81 67 -124 223t-58 316
t-14 242t-1 157t-2 101v55q3 197 28 299t71 156q47 55 112 55q65 1 111 -23t78 -76t54 -101q24 -49 38 -137t24 -165q12 -78 12 -347v-118l-18 -259v-9q-13 -57 -13 -123z" />
    <glyph glyph-name="Otilde" unicode="&#xd5;" horiz-adv-x="650" 
d="M29 1764q0 39 40 74t108 35q25 1 89 -41t84 -42t30 13t14 28q3 15 14 28q12 13 38 13t43 -16t17 -37q0 -53 -40 -93t-92 -39q-99 0 -137 44q-37 44 -81 43q-29 -11 -24 -39t-29 -40q-74 0 -74 69zM289 1477q-29 0 -49 -21q-31 -34 -56 -136q-24 -102 -29 -255
q-5 -152 -6 -204v-9q0 -138 21 -296q22 -158 44 -259t60 -171t85 -71q81 0 113 314q19 187 17 293q-1 108 -3 180t-9 136q-5 64 -15 140q-10 77 -26 137q-16 61 -36 113t-50 80t-61 29zM551 227q0 -65 -23 -127t-70 -110t-103 -47q-56 0 -102 38q-81 67 -124 223t-58 316
t-14 242t-1 157t-2 101v55q3 197 28 299t71 156q47 55 112 55q65 1 111 -23t78 -76t54 -101q24 -49 38 -137t24 -165q12 -78 12 -347v-118l-18 -259v-9q-13 -57 -13 -123z" />
    <glyph glyph-name="Odieresis" unicode="&#xd6;" horiz-adv-x="650" 
d="M338 1757q0 28 22 51t50 23q28 -1 48 -23t21 -52q0 -30 -23 -49q-24 -20 -52 -20t-47 21t-19 49zM118 1687q-30 0 -44 19q-16 19 -16 49q0 29 20 51t50 22t50 -20q21 -20 21 -50q1 -30 -25 -50q-26 -21 -56 -21zM289 1477q-29 0 -49 -21q-31 -34 -56 -136
q-24 -102 -29 -255q-5 -152 -6 -204v-9q0 -138 21 -296q22 -158 44 -259t60 -171t85 -71q81 0 113 314q19 187 17 293q-1 108 -3 180t-9 136q-5 64 -15 140q-10 77 -26 137q-16 61 -36 113t-50 80t-61 29zM551 227q0 -65 -23 -127t-70 -110t-103 -47q-56 0 -102 38
q-81 67 -124 223t-58 316t-14 242t-1 157t-2 101v55q3 197 28 299t71 156q47 55 112 55q65 1 111 -23t78 -76t54 -101q24 -49 38 -137t24 -165q12 -78 12 -347v-118l-18 -259v-9q-13 -57 -13 -123z" />
    <glyph glyph-name="multiply" unicode="&#xd7;" horiz-adv-x="684" 
d="M181 430q-23 0 -42.5 19t-19.5 38.5t27 47.5t62 58.5t45 44.5q-5 5 -58 47q-107 85 -107 138q0 23 18.5 40t36 17t55.5 -32t85 -76.5t54 -50.5q28 14 62 60q63 85 111 85q21 0 37.5 -17t16.5 -49t-69 -75t-69 -80t79.5 -84.5t79.5 -82t-22.5 -57t-50.5 -22.5l-33 13
q-7 8 -71 78t-75 70q-11 1 -35 -32q-73 -98 -117 -98z" />
    <glyph glyph-name="Oslash" unicode="&#xd8;" horiz-adv-x="728" 
d="M597 227q0 -66 -23 -127.5t-70 -109t-99 -47.5t-87 26t-68 78l-72 -327l-45 56l62 367q-53 138 -72.5 324t-19.5 332l-3 240q0 208 24 317.5t70 168.5q46 60 121.5 60t129.5 -40l45 254h79l-64 -318q124 -181 124 -747l-1 -116l-18 -259v-9q-13 -57 -13 -123zM405 55
q81 0 113 314q16 159 17 284q0 427 -64 646l-195 -1060q53 -184 129 -184zM195 852q0 -204 45 -456l182 1019q-40 62 -93 62q-49 -1 -79 -85t-40.5 -204.5t-14.5 -326.5v-9z" />
    <glyph glyph-name="Ugrave" unicode="&#xd9;" horiz-adv-x="699" 
d="M-2 1896q22 0 175 -84t153 -111q0 -14 -24 -14q-24 -1 -197 55q-172 56 -172 74q-1 24 21 52t44 28zM39 1477q-1 25 17 44t42 19q74 0 74 -146l19 -712q13 -27 21 -109q8 -81 8 -127t14 -112t40 -135q26 -68 70 -116t82 -48q69 0 84 71q11 54 11 113v400q0 65 -13 193
t-13 193v14l-4 119l-15 351q0 25 25 41t52 15l50 -48v-34l-15 -125q0 -171 18 -515q18 -343 19 -465t-3 -162q-9 -106 -54 -170q-44 -63 -145 -63q-125 -1 -203 112t-113 289q-55 277 -55 751l2 320q-15 17 -15 42z" />
    <glyph glyph-name="Uacute" unicode="&#xda;" horiz-adv-x="699" 
d="M269 1714q1 12 29 38t128 112t122 105q12 4 27 4q15 1 36 -25t21 -50t-15 -34q-78 -57 -298 -173q-8 -4 -19 -4t-21 8t-10 19zM39 1477q-1 25 17 44t42 19q74 0 74 -146l19 -712q13 -27 21 -109q8 -81 8 -127t14 -112t40 -135q26 -68 70 -116t82 -48q69 0 84 71
q11 54 11 113v400q0 65 -13 193t-13 193v14l-4 119l-15 351q0 25 25 41t52 15l50 -48v-34l-15 -125q0 -171 18 -515q18 -343 19 -465t-3 -162q-9 -106 -54 -170q-44 -63 -145 -63q-125 -1 -203 112t-113 289q-55 277 -55 751l2 320q-15 17 -15 42z" />
    <glyph glyph-name="Ucircumflex" unicode="&#xdb;" horiz-adv-x="699" 
d="M182 1691q-14 0 -26 19q-14 18 -14 50t33 124t81 173q48 82 84 82t84 -157t48 -238q0 -24 -18 -40t-42 -17q-55 1 -77 189q-10 86 -13 97q0 -7 -16 -49t-26 -74q-12 -32 -24 -58t-24 -50t-24 -38t-26 -13zM39 1477q-1 25 17 44t42 19q74 0 74 -146l19 -712
q13 -27 21 -109q8 -81 8 -127t14 -112t40 -135q26 -68 70 -116t82 -48q69 0 84 71q11 54 11 113v400q0 65 -13 193t-13 193v14l-4 119l-15 351q0 25 25 41t52 15l50 -48v-34l-15 -125q0 -171 18 -515q18 -343 19 -465t-3 -162q-9 -106 -54 -170q-44 -63 -145 -63
q-125 -1 -203 112t-113 289q-55 277 -55 751l2 320q-15 17 -15 42z" />
    <glyph glyph-name="Udieresis" unicode="&#xdc;" horiz-adv-x="699" 
d="M376 1757q0 28 22 51t50 23q28 -1 48 -23t21 -52q0 -30 -23 -49q-24 -20 -52 -20t-47 21t-19 49zM156 1687q-30 0 -44 19q-16 19 -16 49q0 29 20 51t50 22t50 -20q21 -20 21 -50q1 -30 -25 -50q-26 -21 -56 -21zM39 1477q-1 25 17 44t42 19q74 0 74 -146l19 -712
q13 -27 21 -109q8 -81 8 -127t14 -112t40 -135q26 -68 70 -116t82 -48q69 0 84 71q11 54 11 113v400q0 65 -13 193t-13 193v14l-4 119l-15 351q0 25 25 41t52 15l50 -48v-34l-15 -125q0 -171 18 -515q18 -343 19 -465t-3 -162q-9 -106 -54 -170q-44 -63 -145 -63
q-125 -1 -203 112t-113 289q-55 277 -55 751l2 320q-15 17 -15 42z" />
    <glyph glyph-name="Yacute" unicode="&#xdd;" horiz-adv-x="453" 
d="M172 1714q0 12 28 38t130 112q100 86 121 105q12 4 27 4q15 1 36 -25t21 -50t-15 -34q-78 -57 -298 -173q-8 -4 -19 -4t-21 8t-10 19zM183 788q0 143 -79 358t-79 367q-1 15 17 25t37 11q19 0 41 -47t39 -120t33 -146q16 -74 29 -142t19 -88q4 18 14 137t28 231
q28 165 82 165t54 -22q0 -115 -49 -343t-49 -346l-6 -71v-31l11 -543l7 -102v-46q0 -27 -20 -43t-45 -17q-23 1 -39 15t-16 35l10 396q0 59 -20 177t-19 190z" />
    <glyph glyph-name="Thorn" unicode="&#xde;" horiz-adv-x="495" 
d="M113 1548q70 0 70 -124l-2 -71q85 -12 147 -76q114 -119 115 -312q0 -150 -65 -272.5t-191 -190.5l16 -428q0 -85 -68 -85q-25 0 -37 21.5t-12 47.5l-22 1239l-2 190q0 61 51 61zM337 948q0 150 -54 212q-28 32 -99 89h-6q0 -108 2 -324t2 -324q155 147 155 347z" />
    <glyph glyph-name="germandbls" unicode="&#xdf;" horiz-adv-x="576" 
d="M520 462q0 -269 -182 -413l-15 -4q-17 0 -33 10t-16 26t23 50t50.5 70t50.5 93t23 139t-18.5 159.5t-44.5 116t-52 63.5t-45 43.5t-19 36.5t30 88q88 213 89 334q0 49 -14 100q-40 84 -76 99q-73 0 -93 -127q-12 -82 7 -586.5t19 -713.5q0 -43 -13.5 -68t-52.5 -25
q-60 0 -60 51l10 534l-15 711q0 241 114 313q37 24 88 23.5t91 -35t68 -113.5t27 -188q0 -183 -126 -390q110 -83 147.5 -173.5t37.5 -223.5z" />
    <glyph glyph-name="agrave" unicode="&#xe0;" 
d="M106 1689q22 0 175 -84t153 -111q0 -14 -24 -14t-197 56q-172 56 -172 73q-1 23 21 51t44 29zM579 41v-2q0 -45 -34 -58q-43 0 -67 14t-24 54q0 87 -30 253l-202 30q-19 -68 -29 -149t-19 -118q-18 -76 -67 -76q-25 -1 -45 15t-20 40l5 18q138 533 205 1038q2 14 9 123
t35 150h69q28 0 49 -13t21 -39q-1 -156 41 -463t42 -442l22 -126q0 -25 20 -122t19 -127zM405 480q-1 74 -9 184t-24 258q-16 146 -22 212q-93 -515 -120 -726q35 -23 181 -33q-6 31 -6 105z" />
    <glyph glyph-name="aacute" unicode="&#xe1;" 
d="M199 1507q1 11 29 37t128 113q100 86 122 105q12 4 27 4t36 -26t21 -49q0 -24 -15 -34q-78 -57 -298 -173q-8 -4 -19 -4t-21 8t-10 19zM579 41v-2q0 -45 -34 -58q-43 0 -67 14t-24 54q0 87 -30 253l-202 30q-19 -68 -29 -149t-19 -118q-18 -76 -67 -76q-25 -1 -45 15
t-20 40l5 18q138 533 205 1038q2 14 9 123t35 150h69q28 0 49 -13t21 -39q-1 -156 41 -463t42 -442l22 -126q0 -25 20 -122t19 -127zM405 480q-1 74 -9 184t-24 258q-16 146 -22 212q-93 -515 -120 -726q35 -23 181 -33q-6 31 -6 105z" />
    <glyph glyph-name="acircumflex" unicode="&#xe2;" 
d="M248 1484q-14 0 -26 19q-14 19 -14 51t33 122q33 92 81 174t84 82t84 -157t48 -238q0 -25 -18 -41t-42 -16q-55 1 -77 189q-10 86 -13 97q0 -6 -16 -48t-26 -75q-12 -32 -24 -58t-24 -50q-12 -23 -24 -37t-26 -14zM579 41v-2q0 -45 -34 -58q-43 0 -67 14t-24 54
q0 87 -30 253l-202 30q-19 -68 -29 -149t-19 -118q-18 -76 -67 -76q-25 -1 -45 15t-20 40l5 18q138 533 205 1038q2 14 9 123t35 150h69q28 0 49 -13t21 -39q-1 -156 41 -463t42 -442l22 -126q0 -25 20 -122t19 -127zM405 480q-1 74 -9 184t-24 258q-16 146 -22 212
q-93 -515 -120 -726q35 -23 181 -33q-6 31 -6 105z" />
    <glyph glyph-name="atilde" unicode="&#xe3;" 
d="M118 1557q0 39 40 74t108 35q25 0 89 -42t84 -41q21 0 31 13t13 28t14 28t37 13t44 -16q17 -16 17 -37q1 -52 -39 -92t-94 -40q-99 0 -136 44t-81 43q-29 -11 -24 -39t-29 -40q-74 0 -74 69zM579 41v-2q0 -45 -34 -58q-43 0 -67 14t-24 54q0 87 -30 253l-202 30
q-19 -68 -29 -149t-19 -118q-18 -76 -67 -76q-25 -1 -45 15t-20 40l5 18q138 533 205 1038q2 14 9 123t35 150h69q28 0 49 -13t21 -39q-1 -156 41 -463t42 -442l22 -126q0 -25 20 -122t19 -127zM405 480q-1 74 -9 184t-24 258q-16 146 -22 212q-93 -515 -120 -726
q35 -23 181 -33q-6 31 -6 105z" />
    <glyph glyph-name="adieresis" unicode="&#xe4;" 
d="M445 1550q0 28 22 51t50 23q29 0 49 -22t20 -52t-23 -50t-51 -20t-48 21q-19 21 -19 49zM226 1480q-30 0 -46 19t-15 49q0 30 20 52q19 22 49 21q30 0 51 -20q21 -19 21 -49t-26 -51q-24 -21 -54 -21zM579 41v-2q0 -45 -34 -58q-43 0 -67 14t-24 54q0 87 -30 253l-202 30
q-19 -68 -29 -149t-19 -118q-18 -76 -67 -76q-25 -1 -45 15t-20 40l5 18q138 533 205 1038q2 14 9 123t35 150h69q28 0 49 -13t21 -39q-1 -156 41 -463t42 -442l22 -126q0 -25 20 -122t19 -127zM405 480q-1 74 -9 184t-24 258q-16 146 -22 212q-93 -515 -120 -726
q35 -23 181 -33q-6 31 -6 105z" />
    <glyph glyph-name="aring" unicode="&#xe5;" 
d="M196 1707q0 -48 50 -99t104 -51t101 15t75 53q28 37 40 75t12 66q0 26 -6 48q-15 53 -64 91t-144 38q-96 1 -132 -73t-36 -163zM348 2012q101 0 164 -31t84 -64q50 -75 50 -135q0 -129 -79 -216q-79 -86 -222 -86t-198 141q-27 69 -27 163t64 160q64 68 164 68zM579 41
v-2q0 -45 -34 -58q-43 0 -67 14t-24 54q0 87 -30 253l-202 30q-19 -68 -29 -149t-19 -118q-18 -76 -67 -76q-25 -1 -45 15t-20 40l5 18q138 533 205 1038q2 14 9 123t35 150h69q28 0 49 -13t21 -39q-1 -156 41 -463t42 -442l22 -126q0 -25 20 -122t19 -127zM405 480
q-1 74 -9 184t-24 258q-16 146 -22 212q-93 -515 -120 -726q35 -23 181 -33q-6 31 -6 105z" />
    <glyph glyph-name="ae" unicode="&#xe6;" horiz-adv-x="879" 
d="M461 969q0 71 -2 114q-14 -36 -67.5 -164.5t-91.5 -270.5q87 3 153 18q1 32 4.5 132t3.5 171zM88 1q-20 0 -32 15t-12 32q0 131 96 409t170.5 484.5t82 228t19 61.5t30.5 73q20 34 83 42t147.5 8t84.5 -56v-6l-21 -42q-64 -10 -194 -10l14 -274l-6 -290l158 9l42 -38
q0 -50 -100 -50h-22l-79 1l6 -516l227 21q25 0 46.5 -13.5t21.5 -36.5q0 -67 -277 -67l-80 1q-14 0 -28 9t-14 23l16 234l-10 340q-15 -1 -73 -3t-104 -19l-101 -345q-3 -10 -11 -54.5t-16 -78t-26 -63t-38 -29.5z" />
    <glyph glyph-name="ccedilla" unicode="&#xe7;" horiz-adv-x="505" 
d="M468 52q0 -81 -113 -81h-9q-7 -44 -10 -92q109 -15 159 -78t50 -136t-53 -126t-107 -53q-55 0 -93 15t-38 39t14 36q14 13 30 13t43 -11q25 -11 51 -11q26 1 46 29t20 66t-26 63q-26 26 -89 26q-62 0 -65 12l9 166q0 30 3 48q-71 13 -107 37q-136 88 -136 481l-1 120v49
q0 302 33 434t97 188q87 78 220 78q32 0 48 -15t15 -36t-13 -37t-31 -18h-96q-84 0 -123 -221q-20 -113 -19 -210v-10l-9 -395q0 -227 81 -303q41 -40 113 -40q24 0 44 18q62 0 62 -45z" />
    <glyph glyph-name="egrave" unicode="&#xe8;" horiz-adv-x="455" 
d="M-107 1689q22 0 175 -84t153 -111q-1 -14 -25 -14t-196 56t-172 73q0 23 22 51t43 29zM161 1352q55 0 150 -26t95 -66q0 -41 -60 -63q-95 32 -155 39q3 -44 3 -88l-9 -294q0 -2 6 -32l73 3q99 0 99 -56q0 -23 -18 -39q-17 -16 -45 -16t-60 4h-52q6 -78 6 -155l-9 -371
q0 -115 4 -115l151 5q78 0 78 -50q0 -31 -27 -45t-61 -14h-173q-27 1 -49 19t-23 44v54l-13 346l14 598l-11 173q0 145 86 145z" />
    <glyph glyph-name="eacute" unicode="&#xe9;" horiz-adv-x="455" 
d="M164 1507q0 11 28 37t130 113q100 86 121 105q12 4 27 4t36 -26t21 -49q0 -24 -15 -34q-78 -57 -298 -173q-8 -4 -19 -4t-21 8t-10 19zM161 1352q55 0 150 -26t95 -66q0 -41 -60 -63q-95 32 -155 39q3 -44 3 -88l-9 -294q0 -2 6 -32l73 3q99 0 99 -56q0 -23 -18 -39
q-17 -16 -45 -16t-60 4h-52q6 -78 6 -155l-9 -371q0 -115 4 -115l151 5q78 0 78 -50q0 -31 -27 -45t-61 -14h-173q-27 1 -49 19t-23 44v54l-13 346l14 598l-11 173q0 145 86 145z" />
    <glyph glyph-name="ecircumflex" unicode="&#xea;" horiz-adv-x="455" 
d="M78 1484q-14 0 -26 19q-14 19 -14 51t33 122q33 92 81 174t84 82t84 -157t48 -238q0 -25 -18 -41t-42 -16q-55 1 -77 189q-10 86 -13 97q0 -6 -16 -48t-26 -75q-12 -32 -24 -58t-24 -50q-12 -23 -24 -37t-26 -14zM161 1352q55 0 150 -26t95 -66q0 -41 -60 -63
q-95 32 -155 39q3 -44 3 -88l-9 -294q0 -2 6 -32l73 3q99 0 99 -56q0 -23 -18 -39q-17 -16 -45 -16t-60 4h-52q6 -78 6 -155l-9 -371q0 -115 4 -115l151 5q78 0 78 -50q0 -31 -27 -45t-61 -14h-173q-27 1 -49 19t-23 44v54l-13 346l14 598l-11 173q0 145 86 145z" />
    <glyph glyph-name="edieresis" unicode="&#xeb;" horiz-adv-x="455" 
d="M272 1550q0 28 22 51t50 23t48 -22t21 -52q0 -30 -23 -50q-24 -20 -52 -20t-47 21t-19 49zM52 1480q-30 0 -44 19q-16 19 -16 49t20 52t50 21q30 0 50 -20q21 -19 21 -49q1 -30 -25 -51t-56 -21zM161 1352q55 0 150 -26t95 -66q0 -41 -60 -63q-95 32 -155 39q3 -44 3 -88
l-9 -294q0 -2 6 -32l73 3q99 0 99 -56q0 -23 -18 -39q-17 -16 -45 -16t-60 4h-52q6 -78 6 -155l-9 -371q0 -115 4 -115l151 5q78 0 78 -50q0 -31 -27 -45t-61 -14h-173q-27 1 -49 19t-23 44v54l-13 346l14 598l-11 173q0 145 86 145z" />
    <glyph glyph-name="igrave" unicode="&#xec;" horiz-adv-x="499" 
d="M72 1689q22 0 175 -84t153 -111q0 -14 -24 -14t-197 56q-172 56 -172 73q-1 23 21 51t44 29zM465 79q-1 -27 -21 -45t-47 -18l-68 7q-5 1 -31 -11t-58 -12t-52 20q-16 -2 -25 -2q-57 0 -76 37q0 40 32 55l7 8h58l4 27l-14 435l11 456q0 115 -10 218l-39 2q-8 2 -24 0
t-34 -2t-36 12q-17 12 -17 43q0 47 101 47h17q263 0 263 -83q0 -11 -12 -38l-70 -5l-35 12q8 -75 8 -170l-11 -391l15 -435l-3 -62l-2 1q0 -39 10 -54l16 -3l59 2q84 0 84 -51z" />
    <glyph glyph-name="iacute" unicode="&#xed;" horiz-adv-x="499" 
d="M166 1507q0 11 28 37t130 113q100 86 121 105q12 4 27 4t36 -26t21 -49q0 -24 -15 -34q-78 -57 -298 -173q-8 -4 -19 -4t-21 8t-10 19zM465 79q-1 -27 -21 -45t-47 -18l-68 7q-5 1 -31 -11t-58 -12t-52 20q-16 -2 -25 -2q-57 0 -76 37q0 40 32 55l7 8h58l4 27l-14 435
l11 456q0 115 -10 218l-39 2q-8 2 -24 0t-34 -2t-36 12q-17 12 -17 43q0 47 101 47h17q263 0 263 -83q0 -11 -12 -38l-70 -5l-35 12q8 -75 8 -170l-11 -391l15 -435l-3 -62l-2 1q0 -39 10 -54l16 -3l59 2q84 0 84 -51z" />
    <glyph glyph-name="icircumflex" unicode="&#xee;" horiz-adv-x="499" 
d="M80 1484q-14 0 -28 19t-13 51q0 32 33 122q34 92 82 174t83 82t83 -157t49 -238q-1 -25 -19 -41t-41 -16q-55 1 -77 189q-10 86 -13 97q1 -6 -15 -48t-28 -75q-12 -32 -22 -58q-12 -26 -24 -50q-12 -23 -25 -37q-11 -14 -25 -14zM465 79q-1 -27 -21 -45t-47 -18l-68 7
q-5 1 -31 -11t-58 -12t-52 20q-16 -2 -25 -2q-57 0 -76 37q0 40 32 55l7 8h58l4 27l-14 435l11 456q0 115 -10 218l-39 2q-8 2 -24 0t-34 -2t-36 12q-17 12 -17 43q0 47 101 47h17q263 0 263 -83q0 -11 -12 -38l-70 -5l-35 12q8 -75 8 -170l-11 -391l15 -435l-3 -62l-2 1
q0 -39 10 -54l16 -3l59 2q84 0 84 -51z" />
    <glyph glyph-name="idieresis" unicode="&#xef;" horiz-adv-x="499" 
d="M274 1550q0 28 22 51t50 23t48 -22t21 -52q0 -30 -23 -50q-24 -20 -52 -20t-47 21t-19 49zM54 1480q-30 0 -44 19q-16 19 -16 49t20 52t50 21q30 0 50 -20q21 -19 21 -49q1 -30 -25 -51t-56 -21zM465 79q-1 -27 -21 -45t-47 -18l-68 7q-5 1 -31 -11t-58 -12t-52 20
q-16 -2 -25 -2q-57 0 -76 37q0 40 32 55l7 8h58l4 27l-14 435l11 456q0 115 -10 218l-39 2q-8 2 -24 0t-34 -2t-36 12q-17 12 -17 43q0 47 101 47h17q263 0 263 -83q0 -11 -12 -38l-70 -5l-35 12q8 -75 8 -170l-11 -391l15 -435l-3 -62l-2 1q0 -39 10 -54l16 -3l59 2
q84 0 84 -51z" />
    <glyph glyph-name="eth" unicode="&#xf0;" horiz-adv-x="473" 
d="M476 1355q17 0 17 -29q0 -39 -105 -59q52 -242 52 -626l-9 -358q-1 -164 -41 -231t-125 -67t-122 54.5t-46 120.5t-11 124q-2 56 -1.5 118.5t4 126t17 144.5t35.5 140.5t63 101t95 41.5q8 0 26 -2q-25 189 -48 297q-84 -9 -169 -9q-17 0 -17 30q0 47 166 68
q-29 111 -56 133q-30 5 -56 22t-26 39.5t17 35t36 12.5q127 0 194 -231q74 4 110 4zM254 72q60 0 67 80q1 12 1.5 32t11.5 162.5t11 322.5t-59 216q-99 -26 -99 -495l-1 -65q0 -253 68 -253z" />
    <glyph glyph-name="ntilde" unicode="&#xf1;" horiz-adv-x="827" 
d="M128 1557q0 39 40 74t108 35q25 0 89 -42t84 -41q21 0 31 13t13 28t14 28t37 13t44 -16q17 -16 17 -37q1 -52 -39 -92t-94 -40q-99 0 -136 44t-81 43q-29 -11 -24 -39t-29 -40q-74 0 -74 69zM197 56q-1 -16 -19 -35t-43 -19q-67 0 -67 125l-4 702l12 382q0 95 75 151v-13
q8 5 15 5q48 0 120 -166t130 -363t116 -399t71 -237q41 429 41 1039l-3 55q0 61 51 61q30 0 44 -24t14 -56v-155q-2 -241 -22 -643t-52 -455q-56 -17 -78 -17t-32 14q-12 14 -19 45q-7 30 -12 40l1 9q0 76 -147 483t-213 560v-1031q21 -42 21 -58z" />
    <glyph glyph-name="ograve" unicode="&#xf2;" horiz-adv-x="651" 
d="M-32 1689q22 0 175 -84t153 -111q0 -14 -24 -14t-197 56q-172 56 -172 73q-1 23 21 51t44 29zM478 568q0 77 -14 236t-13 237v36q-2 75 -49 133q-46 58 -118 59q-72 -1 -93 -73t-21 -169l2 -121l-10 -189q0 -297 48 -518q51 -129 97 -152q129 0 161 335q10 109 10 186z
M50 714v37q0 321 34 447t63 153t57 27q238 0 328 -240q52 -138 52 -340v-15l4 -232q0 -589 -273 -589q-113 0 -171 122q-92 194 -93 542l2 78q0 10 -3 10z" />
    <glyph glyph-name="oacute" unicode="&#xf3;" horiz-adv-x="651" 
d="M239 1507q1 11 29 37t128 113q100 86 122 105q12 4 27 4t36 -26t21 -49q0 -24 -15 -34q-78 -57 -298 -173q-8 -4 -19 -4t-21 8t-10 19zM478 568q0 77 -14 236t-13 237v36q-2 75 -49 133q-46 58 -118 59q-72 -1 -93 -73t-21 -169l2 -121l-10 -189q0 -297 48 -518
q51 -129 97 -152q129 0 161 335q10 109 10 186zM50 714v37q0 321 34 447t63 153t57 27q238 0 328 -240q52 -138 52 -340v-15l4 -232q0 -589 -273 -589q-113 0 -171 122q-92 194 -93 542l2 78q0 10 -3 10z" />
    <glyph glyph-name="ocircumflex" unicode="&#xf4;" horiz-adv-x="651" 
d="M152 1484q-14 0 -26 19q-14 19 -14 51t33 122q33 92 81 174t84 82t84 -157t48 -238q0 -25 -18 -41t-42 -16q-55 1 -77 189q-10 86 -13 97q0 -6 -16 -48t-26 -75q-12 -32 -24 -58t-24 -50q-12 -23 -24 -37t-26 -14zM478 568q0 77 -14 236t-13 237v36q-2 75 -49 133
q-46 58 -118 59q-72 -1 -93 -73t-21 -169l2 -121l-10 -189q0 -297 48 -518q51 -129 97 -152q129 0 161 335q10 109 10 186zM50 714v37q0 321 34 447t63 153t57 27q238 0 328 -240q52 -138 52 -340v-15l4 -232q0 -589 -273 -589q-113 0 -171 122q-92 194 -93 542l2 78
q0 10 -3 10z" />
    <glyph glyph-name="otilde" unicode="&#xf5;" horiz-adv-x="651" 
d="M37 1557q0 39 40 74t108 35q25 0 89 -42t84 -41q20 0 30 13t14 28q3 15 14 28q12 13 38 13t43 -16t17 -37q0 -52 -40 -92t-92 -40q-99 0 -137 44q-37 44 -81 43q-29 -11 -24 -39t-29 -40q-74 0 -74 69zM478 568q0 77 -14 236t-13 237v36q-2 75 -49 133q-46 58 -118 59
q-72 -1 -93 -73t-21 -169l2 -121l-10 -189q0 -297 48 -518q51 -129 97 -152q129 0 161 335q10 109 10 186zM50 714v37q0 321 34 447t63 153t57 27q238 0 328 -240q52 -138 52 -340v-15l4 -232q0 -589 -273 -589q-113 0 -171 122q-92 194 -93 542l2 78q0 10 -3 10z" />
    <glyph glyph-name="odieresis" unicode="&#xf6;" horiz-adv-x="651" 
d="M346 1550q0 28 22 51t50 23t48 -22t21 -52q0 -30 -23 -50q-24 -20 -52 -20t-47 21t-19 49zM126 1480q-30 0 -44 19q-16 19 -16 49t20 52t50 21q30 0 50 -20q21 -19 21 -49q1 -30 -25 -51t-56 -21zM478 568q0 77 -14 236t-13 237v36q-2 75 -49 133q-46 58 -118 59
q-72 -1 -93 -73t-21 -169l2 -121l-10 -189q0 -297 48 -518q51 -129 97 -152q129 0 161 335q10 109 10 186zM50 714v37q0 321 34 447t63 153t57 27q238 0 328 -240q52 -138 52 -340v-15l4 -232q0 -589 -273 -589q-113 0 -171 122q-92 194 -93 542l2 78q0 10 -3 10z" />
    <glyph glyph-name="divide" unicode="&#xf7;" horiz-adv-x="684" 
d="M57 655q0 21 12.5 33.5t33.5 12.5h301l126 7q99 0 99 -61q0 -47 -58 -47l-432 -10q-82 0 -82 65zM341 789q-28 0 -51 22t-23 50t22.5 48.5t52 20.5t49.5 -23t20 -51.5t-21 -47.5t-49 -19zM411 429.5q0 -29.5 -19 -45t-49 -15.5t-51.5 20t-21.5 49.5t20 50.5t49.5 21
t50.5 -25.5t21 -55z" />
    <glyph glyph-name="oslash" unicode="&#xf8;" horiz-adv-x="741" 
d="M320 1268.5q-56 -0.5 -77 -72.5t-21 -169l2 -121l-10 -189q0 -310 44 -502l154 1032q-36 22 -92 21.5zM361.5 47q34.5 0 85.5 51t73 284q10 109 10 186t-13.5 236t-13.5 237v36q-2 63 -35 115l-166 -1103q25 -42 59.5 -42zM367 -38q-44 0 -81 21l-44 -257l-50 47l38 259
q-100 122 -122 448q-5 72 -5 146l2 78q0 10 -3 10v37q0 321 34 447t63 153t57 27q97 0 170 -40l36 222h61l-40 -264q153 -140 153 -498v-15l4 -232q0 -589 -273 -589z" />
    <glyph glyph-name="ugrave" unicode="&#xf9;" horiz-adv-x="641" 
d="M-17 1700q22 0 175 -84t153 -111q-1 -14 -25 -14q-24 -1 -196 55t-172 74q0 24 22 52t43 28zM464 1341q0 48 49 48t59 -29t11 -70l-14 -206l-9 -171l2 -35q0 -909 -264 -909q-102 -1 -152 84t-64 193t-16 278t-3 489l-9 293q20 43 44 43q24 1 43 -37t19 -80v-557
q0 -73 14 -217t15 -217q0 -150 130 -150q146 0 146 1101v115z" />
    <glyph glyph-name="uacute" unicode="&#xfa;" horiz-adv-x="641" 
d="M254 1518q0 12 28 38t130 112q100 86 121 105q12 4 27 4q15 1 36 -25t21 -50t-15 -34q-78 -57 -298 -173q-8 -4 -19 -4t-21 8t-10 19zM464 1341q0 48 49 48t59 -29t11 -70l-14 -206l-9 -171l2 -35q0 -909 -264 -909q-102 -1 -152 84t-64 193t-16 278t-3 489l-9 293
q20 43 44 43q24 1 43 -37t19 -80v-557q0 -73 14 -217t15 -217q0 -150 130 -150q146 0 146 1101v115z" />
    <glyph glyph-name="ucircumflex" unicode="&#xfb;" horiz-adv-x="641" 
d="M168 1495q-14 0 -26 19q-14 18 -14 50t33 124t81 173q48 82 84 82t84 -157t48 -238q0 -24 -18 -40t-42 -17q-55 1 -77 189q-10 86 -13 97q0 -7 -16 -49t-26 -74q-12 -32 -24 -58t-24 -50t-24 -38t-26 -13zM464 1341q0 48 49 48t59 -29t11 -70l-14 -206l-9 -171l2 -35
q0 -909 -264 -909q-102 -1 -152 84t-64 193t-16 278t-3 489l-9 293q20 43 44 43q24 1 43 -37t19 -80v-557q0 -73 14 -217t15 -217q0 -150 130 -150q146 0 146 1101v115z" />
    <glyph glyph-name="udieresis" unicode="&#xfc;" horiz-adv-x="641" 
d="M362 1561q0 28 22 51t50 23q28 -1 48 -23t21 -52q0 -30 -23 -49q-24 -20 -52 -20t-47 21t-19 49zM142 1491q-30 0 -44 19q-16 19 -16 49q0 29 20 51t50 22t50 -20q21 -20 21 -50q1 -30 -25 -50q-26 -21 -56 -21zM464 1341q0 48 49 48t59 -29t11 -70l-14 -206l-9 -171
l2 -35q0 -909 -264 -909q-102 -1 -152 84t-64 193t-16 278t-3 489l-9 293q20 43 44 43q24 1 43 -37t19 -80v-557q0 -73 14 -217t15 -217q0 -150 130 -150q146 0 146 1101v115z" />
    <glyph glyph-name="yacute" unicode="&#xfd;" horiz-adv-x="513" 
d="M202 1507q0 11 28 37t130 113q100 86 121 105q12 4 27 4t36 -26t21 -49q0 -24 -15 -34q-78 -57 -298 -173q-8 -4 -19 -4t-21 8t-10 19zM355 109q0 -137 -67 -137q-37 0 -57 45q23 45 23 347q0 55 -11 156t-13 144v53q-4 9 -102 257t-98 314v11l46 34q63 -1 150 -317
q38 -138 38 -139q8 23 32 153q61 332 128 332q18 0 34 -12t16 -31q0 -103 -58 -297t-61 -296v-617z" />
    <glyph glyph-name="thorn" unicode="&#xfe;" horiz-adv-x="495" 
d="M113 1548q75 0 75 -168l-7 -147q85 -12 147 -76q114 -119 115 -312q0 -129 -67.5 -225t-188.5 -148l16 -398q0 -85 -68 -85q-25 0 -37 21t-12 48l-22 1120l-2 309q0 61 51 61zM337 819q0 75 -5 113t-24.5 72.5t-44.5 58t-79 66.5h-6q0 -93 2 -279t2 -279q155 106 155 248
z" />
    <glyph glyph-name="ydieresis" unicode="&#xff;" horiz-adv-x="513" 
d="M310 1550q0 28 22 51t50 23t48 -22t21 -52q0 -30 -23 -50q-24 -20 -52 -20t-47 21t-19 49zM90 1480q-30 0 -44 19q-16 19 -16 49t20 52t50 21q30 0 50 -20q21 -19 21 -49q1 -30 -25 -51t-56 -21zM355 109q0 -137 -67 -137q-37 0 -57 45q23 45 23 347q0 55 -11 156
t-13 144v53q-4 9 -102 257t-98 314v11l46 34q63 -1 150 -317q38 -138 38 -139q8 23 32 153q61 332 128 332q18 0 34 -12t16 -31q0 -103 -58 -297t-61 -296v-617z" />
    <glyph glyph-name="Amacron" unicode="&#x100;" horiz-adv-x="656" 
d="M605 1736q0 -45 -66 -45l-148 -4q-228 0 -228 56q0 44 90 44l144 4q208 0 208 -55zM394 1214q0 34 1 40q-33 -33 -93 -367t-64 -423q84 -23 142 -23t82 6q-3 41 -21 223q-19 182 -33 346t-14 198zM527 1q-63 0 -63 53v267q-28 20 -104 34t-135 18q-21 -36 -35 -104
t-28 -137t-38 -109q-80 0 -90 41q28 40 91 409t103 577t88 351q47 142 90 142t66 -18q0 -73 40 -395t40 -416t22 -314t21 -330q0 -69 -68 -69z" />
    <glyph glyph-name="amacron" unicode="&#x101;" 
d="M579 1529q0 -45 -66 -45l-148 -4q-228 0 -228 56q0 44 90 44l144 4q208 0 208 -55zM579 41v-2q0 -45 -34 -58q-43 0 -67 14t-24 54q0 87 -30 253l-202 30q-19 -68 -29 -149t-19 -118q-18 -76 -67 -76q-25 -1 -45 15t-20 40l5 18q138 533 205 1038q2 14 9 123t35 150h69
q28 0 49 -13t21 -39q-1 -156 41 -463t42 -442l22 -126q0 -25 20 -122t19 -127zM405 480q-1 74 -9 184t-24 258q-16 146 -22 212q-93 -515 -120 -726q35 -23 181 -33q-6 31 -6 105z" />
    <glyph glyph-name="Abreve" unicode="&#x102;" horiz-adv-x="656" 
d="M408 1687q-49 0 -89 37q-72 65 -72 196v10l38 32q47 0 61 -78t47 -102h44q14 0 30 32t16 52t1 31t6 27q6 16 18 22q12 7 33 7q21 1 37 -15t17 -29q0 -13 -8 -41l4 -16v-1q-52 -133 -108 -154q-26 -10 -75 -10zM394 1214q0 34 1 40q-33 -33 -93 -367t-64 -423
q84 -23 142 -23t82 6q-3 41 -21 223q-19 182 -33 346t-14 198zM527 1q-63 0 -63 53v267q-28 20 -104 34t-135 18q-21 -36 -35 -104t-28 -137t-38 -109q-80 0 -90 41q28 40 91 409t103 577t88 351q47 142 90 142t66 -18q0 -73 40 -395t40 -416t22 -314t21 -330q0 -69 -68 -69
z" />
    <glyph glyph-name="abreve" unicode="&#x103;" 
d="M370 1480q-49 0 -89 37q-72 65 -72 196v10l38 32q47 0 61 -78t47 -102h44q14 0 30 32t16 52t1 31q1 10 6 26q6 16 18 23t33 7t37 -16t17 -28q0 -13 -8 -41l4 -16v-1q-52 -133 -108 -154q-26 -10 -75 -10zM579 41v-2q0 -45 -34 -58q-43 0 -67 14t-24 54q0 87 -30 253
l-202 30q-19 -68 -29 -149t-19 -118q-18 -76 -67 -76q-25 -1 -45 15t-20 40l5 18q138 533 205 1038q2 14 9 123t35 150h69q28 0 49 -13t21 -39q-1 -156 41 -463t42 -442l22 -126q0 -25 20 -122t19 -127zM405 480q-1 74 -9 184t-24 258q-16 146 -22 212q-93 -515 -120 -726
q35 -23 181 -33q-6 31 -6 105z" />
    <glyph glyph-name="Aogonek" unicode="&#x104;" horiz-adv-x="656" 
d="M421 -283q40 0 86 33l14 -34q0 -28 -38 -46t-74 -18q-37 0 -61 32t-24 94t50 128q50 65 106 108q-16 13 -16 40v267q-28 20 -104 34t-135 18q-21 -36 -35 -104t-28 -137t-38 -109q-80 0 -90 41q28 40 91 409t103 577t88 351q47 142 90 142t66 -18q0 -73 40 -395t40 -416
t22 -314t21 -330q0 -42 -25 -58l1 -1q-11 -7 -31 -25t-38 -34t-24 -22l-22 -22q-14 -16 -30 -41t-24 -49t-8 -62t27 -39zM394 1214q0 34 1 40q-33 -33 -93 -367t-64 -423q84 -23 142 -23t82 6q-3 41 -21 223q-19 182 -33 346t-14 198z" />
    <glyph glyph-name="aogonek" unicode="&#x105;" 
d="M407 -297q40 0 86 33l14 -34q0 -28 -38 -46t-74 -18q-37 0 -61 32t-24 75q0 82 50 148t109 109q-15 15 -15 75q0 59 -30 225l-202 30q-19 -68 -29 -149t-19 -118q-18 -76 -67 -76q-25 -1 -45 15t-20 40l5 18q138 533 205 1038q2 14 9 123t35 150h69q28 0 49 -13t21 -39
q-1 -156 41 -463t42 -442l22 -126q0 -25 20 -122t19 -127v-2q0 -45 -34 -58q-9 1 -24 -13t-33 -30t-24 -22l-22 -22q-14 -16 -30 -41t-24 -49t-8 -62t27 -39zM405 480q-1 74 -9 184t-24 258q-16 146 -22 212q-93 -515 -120 -726q35 -23 181 -33q-6 31 -6 105z" />
    <glyph glyph-name="Cacute" unicode="&#x106;" horiz-adv-x="649" 
d="M234 1714q0 12 28 38t130 112q100 86 121 105q12 4 27 4q15 1 36 -25t21 -50t-15 -34q-78 -57 -298 -173q-8 -4 -19 -4t-21 8t-10 19zM530 1464q0 -46 -74 -45q-40 0 -56 25v-1h-28v5q-118 0 -160 -71t-42 -237l6 -141l-18 -143v-49q0 -238 10 -315t26 -159
q15 -82 64 -161q50 -79 135 -79q35 1 87 37t79 36t58 -31q0 -103 -117 -147q-58 -21 -126 -21q-124 0 -189 90q-66 90 -101 255q-31 177 -33 480l2 245q0 117 14 189q-6 33 -6 64q0 126 94 200t232 75q49 1 96 -27t47 -74z" />
    <glyph glyph-name="cacute" unicode="&#x107;" horiz-adv-x="505" 
d="M184 1507q0 11 28 37t130 113q100 86 121 105q12 4 27 4t36 -26t21 -49q0 -24 -15 -34q-78 -57 -298 -173q-8 -4 -19 -4t-21 8t-10 19zM468 52q0 -81 -113 -81q-47 -1 -97 13t-75 30q-136 88 -136 481l-1 120v49q0 302 33 434t97 188q87 78 220 78q32 0 48 -15t15 -36
t-13 -37t-31 -18h-96q-84 0 -123 -221q-20 -113 -19 -210v-10l-9 -395q0 -227 81 -303q41 -40 113 -40q24 0 44 18q62 0 62 -45z" />
    <glyph glyph-name="Ccircumflex" unicode="&#x108;" horiz-adv-x="649" 
d="M148 1691q-14 0 -28 19q-14 18 -13 50q0 32 33 124q34 92 82 173q48 82 83 82t83 -157t49 -238q-1 -24 -19 -40t-41 -17q-55 1 -77 189q-10 86 -13 97q1 -7 -15 -49t-28 -74t-22 -58q-12 -26 -24 -50t-25 -38q-11 -14 -25 -13zM530 1464q0 -46 -74 -45q-40 0 -56 25v-1
h-28v5q-118 0 -160 -71t-42 -237l6 -141l-18 -143v-49q0 -238 10 -315t26 -159q15 -82 64 -161q50 -79 135 -79q35 1 87 37t79 36t58 -31q0 -103 -117 -147q-58 -21 -126 -21q-124 0 -189 90q-66 90 -101 255q-31 177 -33 480l2 245q0 117 14 189q-6 33 -6 64q0 126 94 200
t232 75q49 1 96 -27t47 -74z" />
    <glyph glyph-name="ccircumflex" unicode="&#x109;" horiz-adv-x="505" 
d="M98 1484q-14 0 -28 19t-13 51q0 32 33 122q34 92 82 174t83 82t83 -157t49 -238q-1 -25 -19 -41t-41 -16q-55 1 -77 189q-10 86 -13 97q1 -6 -15 -48t-28 -75q-12 -32 -22 -58q-12 -26 -24 -50q-12 -23 -25 -37q-11 -14 -25 -14zM468 52q0 -81 -113 -81q-47 -1 -97 13
t-75 30q-136 88 -136 481l-1 120v49q0 302 33 434t97 188q87 78 220 78q32 0 48 -15t15 -36t-13 -37t-31 -18h-96q-84 0 -123 -221q-20 -113 -19 -210v-10l-9 -395q0 -227 81 -303q41 -40 113 -40q24 0 44 18q62 0 62 -45z" />
    <glyph glyph-name="Cdotaccent" unicode="&#x10a;" horiz-adv-x="649" 
d="M197 1762q0 30 23 53q23 24 53 24t52 -24q22 -23 22 -55t-23 -52q-22 -20 -54 -21q-32 1 -52 23t-21 52zM530 1464q0 -46 -74 -45q-40 0 -56 25v-1h-28v5q-118 0 -160 -71t-42 -237l6 -141l-18 -143v-49q0 -238 10 -315t26 -159q15 -82 64 -161q50 -79 135 -79
q35 1 87 37t79 36t58 -31q0 -103 -117 -147q-58 -21 -126 -21q-124 0 -189 90q-66 90 -101 255q-31 177 -33 480l2 245q0 117 14 189q-6 33 -6 64q0 126 94 200t232 75q49 1 96 -27t47 -74z" />
    <glyph glyph-name="cdotaccent" unicode="&#x10b;" horiz-adv-x="505" 
d="M147 1554q0 30 23 54t53 24t52 -24t22 -56t-23 -52q-22 -20 -54 -20t-52 22t-21 52zM468 52q0 -81 -113 -81q-47 -1 -97 13t-75 30q-136 88 -136 481l-1 120v49q0 302 33 434t97 188q87 78 220 78q32 0 48 -15t15 -36t-13 -37t-31 -18h-96q-84 0 -123 -221
q-20 -113 -19 -210v-10l-9 -395q0 -227 81 -303q41 -40 113 -40q24 0 44 18q62 0 62 -45z" />
    <glyph glyph-name="Ccaron" unicode="&#x10c;" horiz-adv-x="649" 
d="M338 1753q0 -66 -52 -66q-40 0 -112 166t-73 223q0 16 15 28t34 11q43 0 101 -211l27 -94q4 22 11 90t24 145q16 77 55 77q18 0 30 -12t13 -31l-15 -31v-37l-29 -112q-29 -112 -29 -146zM530 1464q0 -46 -74 -45q-40 0 -56 25v-1h-28v5q-118 0 -160 -71t-42 -237l6 -141
l-18 -143v-49q0 -238 10 -315t26 -159q15 -82 64 -161q50 -79 135 -79q35 1 87 37t79 36t58 -31q0 -103 -117 -147q-58 -21 -126 -21q-124 0 -189 90q-66 90 -101 255q-31 177 -33 480l2 245q0 117 14 189q-6 33 -6 64q0 126 94 200t232 75q49 1 96 -27t47 -74z" />
    <glyph glyph-name="ccaron" unicode="&#x10d;" horiz-adv-x="505" 
d="M288 1546q0 -66 -52 -66q-40 0 -112 166t-73 223q0 15 15 27t34 12q43 0 101 -211l27 -94q4 22 11 90t24 145q16 77 55 77q18 1 30 -11t13 -32l-15 -31v-37l-29 -112q-29 -112 -29 -146zM468 52q0 -81 -113 -81q-47 -1 -97 13t-75 30q-136 88 -136 481l-1 120v49
q0 302 33 434t97 188q87 78 220 78q32 0 48 -15t15 -36t-13 -37t-31 -18h-96q-84 0 -123 -221q-20 -113 -19 -210v-10l-9 -395q0 -227 81 -303q41 -40 113 -40q24 0 44 18q62 0 62 -45z" />
    <glyph glyph-name="Dcaron" unicode="&#x10e;" horiz-adv-x="653" 
d="M335 1753q0 -66 -52 -66q-41 0 -113 166t-72 223q0 16 15 28t34 11q43 0 101 -211l27 -94q4 22 11 90t24 145q16 77 55 77q19 0 31 -12t12 -31l-15 -31v-37l-29 -112q-29 -112 -29 -146zM113 306q0 114 -19 339t-19 337l6 224q-1 54 -23 146t-22 129q0 71 157 71h31
q209 0 303 -234q66 -163 66 -450v-95q-5 -9 -5 -19l5 -43q1 -145 -82 -356t-203 -305q-68 -54 -123 -54q-117 -1 -117 69q45 47 45 241zM211 310v-196q77 50 134 140t87 195q56 203 56 420t-58 353t-146 180q-54 28 -122 27v-2q0 -185 24 -557t25 -560z" />
    <glyph glyph-name="dcaron" unicode="&#x10f;" horiz-adv-x="610" 
d="M335 1498q0 -66 -52 -66q-41 0 -113 166t-72 223q0 15 15 27t34 12q43 0 101 -211l27 -94q4 22 11 90t24 145q16 77 55 77q19 1 31 -11t12 -32l-15 -31v-37l-29 -112q-29 -112 -29 -146zM216 141v-49q178 0 214 360q8 83 8 160q0 618 -238 646q-15 -80 -15 -222
q-1 -142 15 -443t16 -452zM55 1275q0 37 23 57t49 21q211 0 343 -247q76 -141 76 -298l-4 -103v-113q0 -206 -18 -275q-35 -131 -94 -205q-58 -74 -157 -124h-148q-52 0 -52 268l6 645q0 65 -12 201t-12 173z" />
    <glyph glyph-name="Dcroat" unicode="&#x110;" horiz-adv-x="653" 
d="M113 275q0 163 -27 469q-157 8 -157 53t90 45q32 0 60 1q-4 61 -4 139l6 224q0 54 -22.5 145.5t-22.5 129.5q0 71 157 71h31q209 0 303 -234q66 -163 66 -450v-95q-5 -9 -5 -19l5 -43q1 -145 -82 -356t-203 -305q-68 -54 -123 -54q-117 -1 -117 69q45 47 45 210zM211 310
v-196q77 50 134 139.5t87 195.5q56 203 56 420t-58 353t-146 180q-54 28 -122 27v-2q1 -210 26 -580h11q72 0 122 -14t50 -42q0 -45 -66 -45l-110 -4q16 -256 16 -432z" />
    <glyph glyph-name="dcroat" unicode="&#x111;" horiz-adv-x="610" 
d="M216 141v-49q178 0 214 360q8 83 8 160q0 618 -238 646q-15 -81 -15 -195t8 -308q140 -2 140 -54q0 -25 -66 -25l-71 -4q20 -393 20 -531zM31 751q57 0 52 68l-4 82q0 66 -12 201.5t-12 172.5t23 57.5t49 20.5q211 0 343 -247q76 -141 76 -298l-4 -103v-113
q0 -206 -27 -306t-85 -174t-157 -124h-148q-52 0 -52 268q0 139 4 417q-136 6 -136 34q0 44 90 44z" />
    <glyph glyph-name="Emacron" unicode="&#x112;" horiz-adv-x="457" 
d="M431 1736q0 -45 -66 -45l-148 -4q-228 0 -228 56q0 44 90 44l144 4q208 0 208 -55zM314 111q117 0 117 -54v-7q-14 -28 -48 -43t-60 -17t-67 -2h-64q-76 0 -94 30q-8 14 -8 37v1190q0 35 -14 104t-14 105v7q34 56 51 72l152 18q31 -1 63 -19t31 -48q0 -61 -93 -61l-59 2
q-15 0 -22 -1l16 -338q0 -42 -5 -120t-5 -114q11 2 41 10t54 8t42 -17t19 -41q0 -24 -15 -43t-39 -19l-51 2q-30 0 -42 -15v-632q105 6 114 6z" />
    <glyph glyph-name="emacron" unicode="&#x113;" horiz-adv-x="455" 
d="M454 1529q0 -45 -66 -45l-148 -4q-228 0 -228 56q0 44 90 44l144 4q208 0 208 -55zM161 1352q55 0 150 -26t95 -66q0 -41 -60 -63q-95 32 -155 39q3 -44 3 -88l-9 -294q0 -2 6 -32l73 3q99 0 99 -56q0 -23 -18 -39q-17 -16 -45 -16t-60 4h-52q6 -78 6 -155l-9 -371
q0 -115 4 -115l151 5q78 0 78 -50q0 -31 -27 -45t-61 -14h-173q-27 1 -49 19t-23 44v54l-13 346l14 598l-11 173q0 145 86 145z" />
    <glyph glyph-name="Edotaccent" unicode="&#x116;" horiz-adv-x="457" 
d="M104 1762q0 30 23 53q23 24 53 24t52 -24q22 -23 22 -55t-23 -52t-55 -21q-32 1 -52 23t-20 52zM314 111q117 0 117 -54v-7q-14 -28 -48 -43t-60 -17t-67 -2h-64q-76 0 -94 30q-8 14 -8 37v1190q0 35 -14 104t-14 105v7q34 56 51 72l152 18q31 -1 63 -19t31 -48
q0 -61 -93 -61l-59 2q-15 0 -22 -1l16 -338q0 -42 -5 -120t-5 -114q11 2 41 10t54 8t42 -17t19 -41q0 -24 -15 -43t-39 -19l-51 2q-30 0 -42 -15v-632q105 6 114 6z" />
    <glyph glyph-name="edotaccent" unicode="&#x117;" horiz-adv-x="455" 
d="M128 1554q0 30 23 54t53 24t52 -24t22 -56t-23 -52t-55 -20t-52 22t-20 52zM161 1352q55 0 150 -26t95 -66q0 -41 -60 -63q-95 32 -155 39q3 -44 3 -88l-9 -294q0 -2 6 -32l73 3q99 0 99 -56q0 -23 -18 -39q-17 -16 -45 -16t-60 4h-52q6 -78 6 -155l-9 -371
q0 -115 4 -115l151 5q78 0 78 -50q0 -31 -27 -45t-61 -14h-173q-27 1 -49 19t-23 44v54l-13 346l14 598l-11 173q0 145 86 145z" />
    <glyph glyph-name="Eogonek" unicode="&#x118;" horiz-adv-x="457" 
d="M63 -254q0 130 139 242h-10q-76 0 -94 30q-8 14 -8 37v1190q0 35 -14 104t-14 105v7q34 56 51 72l152 18q31 -1 63 -19t31 -48q0 -61 -93 -61l-59 2q-15 0 -22 -1l16 -338q0 -42 -5 -120t-5 -114q11 2 41 10t54 8t42 -17t19 -41q0 -24 -15 -43t-39 -19l-51 2
q-30 0 -42 -15v-632q105 6 114 6q117 0 117 -54v-7q-29 -58 -134 -61q-8 -7 -23 -21q-15 -12 -33 -28q-19 -16 -25 -23t-20 -23t-31 -40q-16 -25 -24 -49q-8 -25 -8 -63t27 -38q40 0 86 33l14 -34q0 -27 -38 -45t-74 -19q-36 0 -60 32t-25 75z" />
    <glyph glyph-name="eogonek" unicode="&#x119;" horiz-adv-x="455" 
d="M65 -272q0 132 143 245h-51q-27 1 -49 19t-23 44v54l-13 346l14 598l-11 173q0 145 86 145q55 0 150 -26t95 -66q0 -41 -60 -63q-95 32 -155 39q3 -44 3 -88l-9 -294q0 -2 6 -32l73 3q99 0 99 -56q0 -23 -18 -39q-17 -16 -45 -16t-60 4h-52q6 -78 6 -155l-9 -371
q0 -115 4 -115l151 5q78 0 78 -50q0 -31 -27 -45t-61 -14h-28q-9 -7 -25 -22q-16 -13 -34 -29q-19 -16 -25 -23t-20 -23t-31 -40q-16 -25 -24 -49q-8 -25 -8 -63t27 -38q40 0 86 33l14 -34q0 -27 -38 -45t-74 -19q-36 0 -60 32t-25 75z" />
    <glyph glyph-name="Ecaron" unicode="&#x11a;" horiz-adv-x="457" 
d="M245 1753q0 -66 -52 -66q-41 0 -113 166t-72 223q0 16 15 28t34 11q43 0 101 -211l27 -94q4 22 11 90t24 145q16 77 55 77q19 0 31 -12t12 -31l-15 -31v-37l-29 -112q-29 -112 -29 -146zM314 111q117 0 117 -54v-7q-14 -28 -48 -43t-60 -17t-67 -2h-64q-76 0 -94 30
q-8 14 -8 37v1190q0 35 -14 104t-14 105v7q34 56 51 72l152 18q31 -1 63 -19t31 -48q0 -61 -93 -61l-59 2q-15 0 -22 -1l16 -338q0 -42 -5 -120t-5 -114q11 2 41 10t54 8t42 -17t19 -41q0 -24 -15 -43t-39 -19l-51 2q-30 0 -42 -15v-632q105 6 114 6z" />
    <glyph glyph-name="ecaron" unicode="&#x11b;" horiz-adv-x="455" 
d="M269 1546q0 -66 -52 -66q-41 0 -113 166t-72 223q0 15 15 27t34 12q43 0 101 -211l27 -94q4 22 11 90t24 145q16 77 55 77q19 1 31 -11t12 -32l-15 -31v-37l-29 -112q-29 -112 -29 -146zM161 1352q55 0 150 -26t95 -66q0 -41 -60 -63q-95 32 -155 39q3 -44 3 -88l-9 -294
q0 -2 6 -32l73 3q99 0 99 -56q0 -23 -18 -39q-17 -16 -45 -16t-60 4h-52q6 -78 6 -155l-9 -371q0 -115 4 -115l151 5q78 0 78 -50q0 -31 -27 -45t-61 -14h-173q-27 1 -49 19t-23 44v54l-13 346l14 598l-11 173q0 145 86 145z" />
    <glyph glyph-name="Gcircumflex" unicode="&#x11c;" horiz-adv-x="727" 
d="M174 1697q-14 0 -28 19q-14 18 -13 50q0 32 33 124q34 92 82 173q48 82 83 82t83 -157t49 -238q-1 -24 -19 -40t-41 -17q-55 1 -77 189q-10 86 -13 97q1 -7 -15 -49t-28 -74t-22 -58q-12 -26 -24 -50t-25 -38q-11 -14 -25 -13zM375 421q0 50 132 65q26 3 57 3t53 -32
q22 -31 22 -85q1 -54 21 -175t20 -163q0 -75 -50 -75t-68 43v2q-12 -5 -60 -31t-100 -26t-96 18q-94 37 -146 127t-69 176q-39 195 -39 443l-1 151q0 198 13 284q12 86 26 141q43 177 136 247q73 58 167 58t94 -59q0 -22 -16 -35t-38 -13l-59 10q-76 -1 -122 -97t-59 -188
q-13 -91 -24 -175t-8 -291l-1 -127q0 -196 18 -279q33 -155 80 -214q85 -65 149 -73q91 0 151 86q-3 182 -33 234l-80 -8q-70 0 -70 58z" />
    <glyph glyph-name="gcircumflex" unicode="&#x11d;" horiz-adv-x="638" 
d="M146 1484q-14 0 -28 19t-13 51q0 32 33 122q34 92 82 174t83 82t83 -157t49 -238q-1 -25 -19 -41t-41 -16q-55 1 -77 189q-10 86 -13 97q1 -6 -15 -48t-28 -75q-12 -32 -22 -58q-12 -26 -24 -50q-12 -23 -25 -37q-11 -14 -25 -14zM338 -16q-142 0 -206 106
q-74 120 -83 343q-3 83 -3 135v88q0 290 17 366q41 186 93 244q77 88 178 88t101 -52q0 -24 -20 -40t-45 -15l-43 5q-71 0 -107 -140q-52 -200 -52 -438t12 -310t28 -122q44 -150 155 -151q99 0 99 326v94q-15 8 -48 8l-40 -1q-71 0 -71 47q1 29 21 44t49 15v-1h28
q184 0 184 -63l-22 -149l10 -217q-1 -102 -71 -156t-164 -54z" />
    <glyph glyph-name="Gbreve" unicode="&#x11e;" horiz-adv-x="727" 
d="M278 1693q-49 0 -89 37q-72 65 -72 196v10l38 32q47 0 61 -78t47 -102h44q14 0 30 32t16 52t1 31t6 27q6 16 18 22q12 7 33 7q21 1 37 -15t17 -29q0 -13 -8 -41l4 -16v-1q-52 -133 -108 -154q-26 -10 -75 -10zM375 421q0 50 132 65q26 3 57 3t53 -32q22 -31 22 -85
q1 -54 21 -175t20 -163q0 -75 -50 -75t-68 43v2q-12 -5 -60 -31t-100 -26t-96 18q-94 37 -146 127t-69 176q-39 195 -39 443l-1 151q0 198 13 284q12 86 26 141q43 177 136 247q73 58 167 58t94 -59q0 -22 -16 -35t-38 -13l-59 10q-76 -1 -122 -97t-59 -188
q-13 -91 -24 -175t-8 -291l-1 -127q0 -196 18 -279q33 -155 80 -214q85 -65 149 -73q91 0 151 86q-3 182 -33 234l-80 -8q-70 0 -70 58z" />
    <glyph glyph-name="gbreve" unicode="&#x11f;" horiz-adv-x="638" 
d="M249 1480q-49 0 -89 37q-72 65 -72 196v10l38 32q46 0 60 -78t48 -102h44q14 0 30 32t16 52t1 31q1 10 6 26t17 23t34 7t38 -16t16 -28q0 -13 -8 -41l4 -16v-1q-52 -133 -108 -154q-26 -10 -75 -10zM338 -16q-142 0 -206 106q-74 120 -83 343q-3 83 -3 135v88
q0 290 17 366q41 186 93 244q77 88 178 88t101 -52q0 -24 -20 -40t-45 -15l-43 5q-71 0 -107 -140q-52 -200 -52 -438t12 -310t28 -122q44 -150 155 -151q99 0 99 326v94q-15 8 -48 8l-40 -1q-71 0 -71 47q1 29 21 44t49 15v-1h28q184 0 184 -63l-22 -149l10 -217
q-1 -102 -71 -156t-164 -54z" />
    <glyph glyph-name="Gdotaccent" unicode="&#x120;" horiz-adv-x="727" 
d="M223 1768q0 30 23 53q23 24 53 24t52 -24q22 -23 22 -55t-23 -52q-22 -20 -54 -21q-32 1 -52 23t-21 52zM375 421q0 50 132 65q26 3 57 3t53 -32q22 -31 22 -85q1 -54 21 -175t20 -163q0 -75 -50 -75t-68 43v2q-12 -5 -60 -31t-100 -26t-96 18q-94 37 -146 127t-69 176
q-39 195 -39 443l-1 151q0 198 13 284q12 86 26 141q43 177 136 247q73 58 167 58t94 -59q0 -22 -16 -35t-38 -13l-59 10q-76 -1 -122 -97t-59 -188q-13 -91 -24 -175t-8 -291l-1 -127q0 -196 18 -279q33 -155 80 -214q85 -65 149 -73q91 0 151 86q-3 182 -33 234l-80 -8
q-70 0 -70 58z" />
    <glyph glyph-name="gdotaccent" unicode="&#x121;" horiz-adv-x="638" 
d="M195 1554q0 30 23 54t53 24t52 -24t22 -56t-23 -52q-22 -20 -54 -20t-52 22t-21 52zM338 -16q-142 0 -206 106q-74 120 -83 343q-3 83 -3 135v88q0 290 17 366q41 186 93 244q77 88 178 88t101 -52q0 -24 -20 -40t-45 -15l-43 5q-71 0 -107 -140q-52 -200 -52 -438
t12 -310t28 -122q44 -150 155 -151q99 0 99 326v94q-15 8 -48 8l-40 -1q-71 0 -71 47q1 29 21 44t49 15v-1h28q184 0 184 -63l-22 -149l10 -217q-1 -102 -71 -156t-164 -54z" />
    <glyph glyph-name="Gcedilla" unicode="&#x122;" horiz-adv-x="727" 
d="M403 -53q-52 0 -98 18q-3 -27 -5 -56q109 -15 159 -78t50 -136t-53 -126t-107 -53q-55 0 -93 15t-38 39t14 36q14 13 30 13t43 -11q25 -11 51 -11q26 1 46 29t20 66t-26 63q-26 26 -89 26q-62 0 -65 12l9 166q0 19 1 34q-56 36 -100 113q-100 174 -100 605l-1 151
q0 198 13 284q12 86 26 141q43 177 136 247q73 58 167 58t94 -59q0 -22 -16 -35t-38 -13l-59 10q-76 -1 -122 -97t-59 -188q-13 -91 -24 -175t-8 -291l-1 -127q0 -196 18 -279q33 -155 80 -214q85 -65 149 -73q91 0 151 86q-3 182 -33 234l-80 -8q-70 0 -70 58q0 50 132 65
q26 3 57 3t53 -32q22 -31 22 -85q1 -54 21 -175t20 -163q0 -75 -50 -75t-68 43v2q-12 -5 -60 -31t-99 -26z" />
    <glyph glyph-name="gcedilla" unicode="&#x123;" horiz-adv-x="638" 
d="M46 568v88q0 290 17 366q41 186 93 244q77 88 178 88t101 -52q0 -24 -20 -40t-45 -15l-43 5q-71 0 -107 -140q-52 -200 -52 -438t12 -310t28 -122q44 -150 155 -151q99 0 99 326v94q-15 8 -48 8l-40 -1q-71 0 -71 47q1 29 21 44t49 15v-1h28q184 0 184 -63l-22 -149
l10 -217q0 -101 -70 -155t-161 -55q-5 -36 -7 -75q109 -15 159 -78t50 -136t-53 -126t-107 -53t-92 15t-39 39q0 24 14 36q15 13 31 13t42 -11t52 -11q26 1 45 29q20 28 20 66q-1 38 -27 63q-26 26 -88 26t-65 12l9 166q0 16 1 29q-103 16 -152 97q-49 80 -66 172
q-23 130 -23 311z" />
    <glyph glyph-name="Hcircumflex" unicode="&#x124;" horiz-adv-x="560" 
d="M120 1691q-14 0 -28 19q-14 18 -13 50q0 32 33 124q34 92 82 173q48 82 83 82t83 -157t49 -238q-1 -24 -19 -40t-41 -17q-55 1 -77 189q-10 86 -13 97q1 -7 -15 -49t-28 -74t-22 -58q-12 -26 -24 -50t-25 -38q-11 -14 -25 -13zM440 -31q-52 0 -52 68q0 390 -18 722
q-55 10 -103 10t-86 -16q0 -114 17 -345t17 -349q0 -20 -12 -37t-32 -17q-56 -1 -82 351q-35 477 -35 1154q0 37 35 37q19 -1 41 -11t31 -22q-7 -73 -7 -154l14 -421l-2 -77q0 -29 4 -53l199 15l-8 672v54q78 0 93 -70q7 -34 7 -173q-1 -139 19 -589t20 -675q0 -27 -17 -51
t-43 -23z" />
    <glyph glyph-name="hcircumflex" unicode="&#x125;" horiz-adv-x="571" 
d="M108 1484q-14 0 -26 19q-14 19 -14 51t33 122q33 92 81 174t84 82t84 -157t48 -238q0 -25 -18 -41t-42 -16q-55 1 -77 189q-10 86 -13 97q0 -6 -16 -48t-26 -75q-12 -32 -24 -58t-24 -50q-12 -23 -24 -37t-26 -14zM143 5q-41 1 -57 75t-15 203l6 312q0 97 -3 107v10
q8 107 8 120l-14 462q0 24 17 42t41 19q65 0 65 -122l-8 -511q37 -10 112 -10h74q5 9 5 66q0 56 -14 250t-13 292q0 22 18 38t34 16t26 -3t22 -8t19 -7q0 -266 20 -778t19 -528q1 -18 -21 -34t-48 -16t-46 46q-19 46 -23 156q-4 109 -3 140l3 206v8l3 59l-12 19v2
q-17 -4 -37 -4l-132 19v-235l12 -337q0 -29 -15 -51t-43 -23z" />
    <glyph glyph-name="Hbar" unicode="&#x126;" horiz-adv-x="560" 
d="M284.5 1339q18.5 0 68.5 -2q-2 53 -2 159l-1 15q0 21 4.5 27t15.5 6h7q84 0 84 -51v-179q24 -11 24 -31.5t-23 -20.5q3 -177 20.5 -588t17.5 -631q0 -27 -17 -50.5t-43 -23.5q-52 0 -52 68q0 390 -18 722q-55 10 -103 10t-86 -16q0 -114 17 -345t17 -349q-1 -20 -13 -37
t-39 -17t-43 27.5t-20.5 145t-5.5 257t-16 345.5t-21 489q-14 8 -14 23t13 26q-3 100 -3 202q0 14 20 24t35.5 10t34 -12t18.5 -27l-7 -155v-25q112 4 130.5 4zM170 809l199 15q0 38 -14 442q-24 -1 -84 -1l-115 -4l12 -322l-2 -77q0 -29 4 -53z" />
    <glyph glyph-name="hbar" unicode="&#x127;" horiz-adv-x="571" 
d="M82 805q0 77 -7 259q-32 6 -32 27q0 26 29 36q-4 73 -4 167q0 24 17 42.5t41 18.5q65 0 65 -122q0 -64 -1 -96q50 2 81.5 2t81.5 -2q-6 91 -6 183q0 23 18 38.5t34 15.5t26 -3t22 -8t19 -7q0 -115 3 -246q16 -11 16 -28.5t-15 -19.5l35 -1000q1 -30 -21 -46t-46 -16
q-53 0 -56 38q-11 349 -11 510l-4 8l3 59l-1 19l-11 2q-17 -4 -37 -4l-132 19l-6 -226l6 -9l12 -337q0 -29 -15 -51.5t-43 -22.5q-41 0 -56.5 74.5t-15.5 203.5l6 312q0 79 -8 107q13 26 13 103zM374 769q0 48 -16 297q-26 -1 -77 -1t-92 -3q-6 -226 -6 -340q37 -10 112 -10
h74q5 9 5 57z" />
    <glyph glyph-name="Itilde" unicode="&#x128;" horiz-adv-x="432" 
d="M-4 1764q0 39 40 74t108 35q25 1 89 -41t84 -42q21 0 31 13t13 28t14 28t37 13t44 -16q17 -16 17 -37q1 -53 -39 -93t-94 -39q-99 0 -136 44t-81 43q-29 -11 -24 -39t-29 -40q-74 0 -74 69zM226 1401q0 -200 25 -599t25 -599v-79q21 3 42 3q85 0 85 -72v-12l-51 -35
l-139 -5q-177 0 -177 61q0 49 62 49l43 -3q30 0 30 48q0 158 -19 474t-19 473l4 209q0 66 -5 114q-27 -9 -48 -9q-48 0 -48 49q0 52 128 74q66 12 108 11t59 -17q18 -16 18 -38q1 -22 -13 -40q-14 -16 -35 -16l-36 1q-19 -1 -29 -9t-10 -33z" />
    <glyph glyph-name="itilde" unicode="&#x129;" horiz-adv-x="499" 
d="M-36 1557q0 39 40 74t108 35q25 0 89 -42t84 -41q21 0 31 13t13 28t14 28t37 13t44 -16q17 -16 17 -37q1 -52 -39 -92t-94 -40q-99 0 -136 44t-81 43q-29 -11 -24 -39t-29 -40q-74 0 -74 69zM465 79q-1 -27 -21 -45t-47 -18l-68 7q-5 1 -31 -11t-58 -12t-52 20
q-16 -2 -25 -2q-57 0 -76 37q0 40 32 55l7 8h58l4 27l-14 435l11 456q0 115 -10 218l-39 2q-8 2 -24 0t-34 -2t-36 12q-17 12 -17 43q0 47 101 47h17q263 0 263 -83q0 -11 -12 -38l-70 -5l-35 12q8 -75 8 -170l-11 -391l15 -435l-3 -62l-2 1q0 -39 10 -54l16 -3l59 2
q84 0 84 -51z" />
    <glyph glyph-name="Imacron" unicode="&#x12a;" horiz-adv-x="432" 
d="M398 1736q0 -45 -66 -45l-148 -4q-228 0 -228 56q0 44 90 44l144 4q208 0 208 -55zM226 1401q0 -200 25 -599t25 -599v-79q21 3 42 3q85 0 85 -72v-12l-51 -35l-139 -5q-177 0 -177 61q0 49 62 49l43 -3q30 0 30 48q0 158 -19 474t-19 473l4 209q0 66 -5 114
q-27 -9 -48 -9q-48 0 -48 49q0 52 128 74q66 12 108 11t59 -17q18 -16 18 -38q1 -22 -13 -40q-14 -16 -35 -16l-36 1q-19 -1 -29 -9t-10 -33z" />
    <glyph glyph-name="imacron" unicode="&#x12b;" horiz-adv-x="499" 
d="M456 1529q0 -45 -66 -45l-148 -4q-228 0 -228 56q0 44 90 44l144 4q208 0 208 -55zM465 79q-1 -27 -21 -45t-47 -18l-68 7q-5 1 -31 -11t-58 -12t-52 20q-16 -2 -25 -2q-57 0 -76 37q0 40 32 55l7 8h58l4 27l-14 435l11 456q0 115 -10 218l-39 2q-8 2 -24 0t-34 -2
t-36 12q-17 12 -17 43q0 47 101 47h17q263 0 263 -83q0 -11 -12 -38l-70 -5l-35 12q8 -75 8 -170l-11 -391l15 -435l-3 -62l-2 1q0 -39 10 -54l16 -3l59 2q84 0 84 -51z" />
    <glyph glyph-name="Ibreve" unicode="&#x12c;" horiz-adv-x="432" 
d="M191 1687q-49 0 -89 37q-72 65 -72 196v10l38 32q46 0 60 -78t48 -102h44q14 0 30 32t16 52t1 31t6 27t17 22q12 7 34 7q22 1 38 -15t16 -29t-8 -41l4 -16v-1q-52 -133 -108 -154q-26 -10 -75 -10zM226 1401q0 -200 25 -599t25 -599v-79q21 3 42 3q85 0 85 -72v-12
l-51 -35l-139 -5q-177 0 -177 61q0 49 62 49l43 -3q30 0 30 48q0 158 -19 474t-19 473l4 209q0 66 -5 114q-27 -9 -48 -9q-48 0 -48 49q0 52 128 74q66 12 108 11t59 -17q18 -16 18 -38q1 -22 -13 -40q-14 -16 -35 -16l-36 1q-19 -1 -29 -9t-10 -33z" />
    <glyph glyph-name="ibreve" unicode="&#x12d;" horiz-adv-x="499" 
d="M184 1480q-49 0 -89 37q-72 65 -72 196v10l38 32q47 0 61 -78t47 -102h44q14 0 30 32t16 52t1 31q1 10 6 26q6 16 18 23t33 7t37 -16t17 -28q0 -13 -8 -41l4 -16v-1q-52 -133 -108 -154q-26 -10 -75 -10zM465 79q-1 -27 -21 -45t-47 -18l-68 7q-5 1 -31 -11t-58 -12
t-52 20q-16 -2 -25 -2q-57 0 -76 37q0 40 32 55l7 8h58l4 27l-14 435l11 456q0 115 -10 218l-39 2q-8 2 -24 0t-34 -2t-36 12q-17 12 -17 43q0 47 101 47h17q263 0 263 -83q0 -11 -12 -38l-70 -5l-35 12q8 -75 8 -170l-11 -391l15 -435l-3 -62l-2 1q0 -39 10 -54l16 -3l59 2
q84 0 84 -51z" />
    <glyph glyph-name="Iogonek" unicode="&#x12e;" horiz-adv-x="432" 
d="M35 -240q0 131 142 244q-141 6 -141 60q0 49 62 49l43 -3q30 0 30 48q0 158 -19 474t-19 473l4 209q0 66 -5 114q-27 -9 -48 -9q-48 0 -48 49q0 52 128 74q66 12 108 11t59 -17q18 -16 18 -38q1 -22 -13 -40q-14 -16 -35 -16l-36 1q-19 -1 -29 -9t-10 -33q0 -200 25 -599
t25 -599v-79q21 3 42 3q85 0 85 -72v-12l-51 -35l-79 -3q-9 -7 -26 -22q-16 -13 -34 -29q-19 -16 -25 -23t-20 -23t-31 -40q-16 -25 -24 -49q-8 -25 -8 -63t27 -38q40 0 86 33l14 -34q0 -27 -38 -45t-74 -19q-36 0 -60 32t-25 75z" />
    <glyph glyph-name="iogonek" unicode="&#x12f;" horiz-adv-x="499" 
d="M217 18h-54q-73 0 -73 46q0 19 12 36t24 18h58l4 27l-14 435l11 456q0 117 -10 220h-39l-47 -2q-30 0 -47 12t-17 43q0 47 101 47h244q83 0 83 -43q0 -19 -18 -35t-41 -16h-105q8 -84 8 -190l-11 -391l10 -435v-61l-1 -57h27l59 2q84 0 84 -51q-1 -27 -21 -45t-47 -18
h-87q-10 -8 -27 -22q-16 -14 -34 -30q-19 -16 -25 -23t-20 -23t-31 -40q-16 -25 -24 -49q-8 -25 -8 -63t27 -38q40 0 86 33l14 -34q0 -27 -38 -45t-74 -19q-36 0 -60 32t-25 75q0 135 146 248z" />
    <glyph glyph-name="Idot" unicode="&#x130;" horiz-adv-x="432" 
d="M125 1762q0 30 23 53q23 24 53 24t52 -24q22 -23 22 -55t-23 -52q-22 -20 -54 -21q-32 1 -52 23t-21 52zM226 1401q0 -200 25 -599t25 -599v-79q21 3 42 3q85 0 85 -72v-12l-51 -35l-139 -5q-177 0 -177 61q0 49 62 49l43 -3q30 0 30 48q0 158 -19 474t-19 473l4 209
q0 66 -5 114q-27 -9 -48 -9q-48 0 -48 49q0 52 128 74q66 12 108 11t59 -17q18 -16 18 -38q1 -22 -13 -40q-14 -16 -35 -16l-36 1q-19 -1 -29 -9t-10 -33z" />
    <glyph glyph-name="dotlessi" unicode="&#x131;" horiz-adv-x="499" 
d="M465 79q0 -26 -20.5 -44.5t-47.5 -18.5l-68 7q-5 0 -31 -11.5t-57.5 -11.5t-52.5 20q-16 -2 -25 -2q-57 0 -76 37q0 40 32 55l7 8h58l4 27l-14 435l11 456q0 115 -10 218l-39 2q-8 1 -24 -0.5t-34.5 -1.5t-35.5 11.5t-17 43.5q0 47 101 47h17q263 0 263 -83
q0 -11 -12 -38l-70 -5l-35 12q8 -75 8 -170l-11 -391l15 -435l-3 -62l-2 1q0 -39 10 -54l16 -3l59 2q84 0 84 -51z" />
    <glyph glyph-name="IJ" unicode="&#x132;" horiz-adv-x="851" 
d="M508 1429q-22 -1 -38 15t-15 37q0 72 245 72h26q92 -1 92 -55t-85 -54l-6 1h-28v-16q0 -53 12 -159t12 -198q1 -92 19 -358t18 -399l-1 -163q-1 -120 -51 -216t-147 -130q-32 0 -53 16t-21 44q-1 28 25 51t55 35q28 36 55 116t27 173l1 284q0 594 -54 920q-7 -1 -37 -9
q-29 -8 -51 -7zM226 1401q0 -200 25 -599t25 -599v-79q21 3 42 3q85 0 85 -72v-12l-51 -35l-139 -5q-177 0 -177 61q0 49 62 49l43 -3q30 0 30 48q0 158 -19 474t-19 473l4 209q0 66 -5 114q-27 -9 -48 -9q-48 0 -48 49q0 52 128 74q66 12 108 11t59 -17q18 -16 18 -38
q1 -22 -13 -40q-14 -16 -35 -16l-36 1q-19 -1 -29 -9t-10 -33z" />
    <glyph glyph-name="ij" unicode="&#x133;" horiz-adv-x="1019" 
d="M851 164q-1 -102 -17 -148t-30 -75q-25 -52 -91 -93q-65 -41 -173 -41q-24 0 -24 25l2 34q0 12 29 22q106 37 133 66q59 64 59 233l-23 1046v9q-78 0 -112 14t-39 20q-6 8 -6 22t23 28q22 14 74 13t194 -13t141 -34t-17 -34q-16 -13 -39 -13h-105l21 -863v-218zM465 79
q-1 -27 -21 -45t-47 -18h-90q-93 0 -119 4q-16 -2 -25 -2q-73 0 -73 46q0 19 12 36t24 18h58l4 27l-14 435l11 456q0 117 -10 220h-39l-47 -2q-30 0 -47 12t-17 43q0 47 101 47h244q83 0 83 -43q0 -19 -18 -35t-41 -16h-105q8 -84 8 -190l-11 -391l10 -435v-61l-1 -57h27
l59 2q84 0 84 -51z" />
    <glyph glyph-name="Jcircumflex" unicode="&#x134;" horiz-adv-x="419" 
d="M46 1691q-14 0 -28 19q-14 18 -13 50q0 32 33 124q34 92 82 173q48 82 83 82t83 -157t49 -238q-1 -24 -19 -40t-41 -17q-55 1 -77 189q-10 86 -13 97q1 -7 -15 -49t-28 -74t-22 -58q-12 -26 -24 -50t-25 -38q-11 -14 -25 -13zM76 1429q-22 -1 -38 15t-15 37q0 72 245 72
h26q92 -1 92 -55t-85 -54l-6 1h-28v-16q0 -53 12 -159t12 -198q1 -92 19 -358t18 -399l-1 -163q-1 -120 -51 -216t-147 -130q-32 0 -53 16t-21 44q-1 28 25 51t55 35q28 36 55 116t27 173l1 284q0 594 -54 920q-7 -1 -37 -9q-29 -8 -51 -7z" />
    <glyph glyph-name="jcircumflex" unicode="&#x135;" horiz-adv-x="520" 
d="M148 1484q-14 0 -26 19q-14 19 -14 51t33 122q33 92 81 174t84 82t84 -157t48 -238q0 -25 -18 -41t-42 -16q-55 1 -77 189q-10 86 -13 97q0 -6 -16 -48t-26 -75q-12 -32 -24 -58t-24 -50q-12 -23 -24 -37t-26 -14zM106 -254h-24l-61 61l-2 19q-1 19 43 54t119 74
q59 70 59 233l-18 1046l-5 9q-22 0 -60 7q-97 19 -97 61q0 22 23 36t55 13q32 0 111 -10q79 -11 161 -37t82 -59q0 -22 -16 -35t-39 -13q-22 -1 -60 9t-45 11l-1 -17l21 -826v-224q-26 -42 -40 -147t-30 -155q-36 -110 -176 -110z" />
    <glyph glyph-name="Kcommaaccent" unicode="&#x136;" horiz-adv-x="650" 
d="M285 -526q-34 0 -34 23l7 37q44 200 114 280q32 36 64 36q4 -4 20 -8q36 -11 36 -33q0 -47 -45 -129t-95 -144t-67 -62zM70 1460q0 42 16 62t42 19q76 0 76 -166q0 -1 -9 -421q7 17 39 100q59 153 144 348q84 194 124 194q22 0 40 -16t18 -36q0 -22 -112 -256t-125 -297
v-36q29 -76 163 -497q134 -420 134 -446t-20 -43t-45 -17l-48 8q-51 292 -106 508t-144 412q-61 -109 -64 -132q-6 -62 -6 -98l13 -380v-168q0 -109 -70 -109q-60 -1 -60 103t14 288t13 276l3 389q0 102 -15 236q-15 133 -15 175z" />
    <glyph glyph-name="kcommaaccent" unicode="&#x137;" horiz-adv-x="637" 
d="M281 -513q-34 0 -34 23l7 37q44 200 114 280q32 36 64 36q4 -4 20 -8q36 -11 36 -33q0 -48 -45 -130t-95 -144t-67 -61zM602 19q0 -23 -18 -39t-40 -15q-96 0 -206 402q-54 199 -88 385q-74 -147 -74 -356v-379q0 -48 -42 -48q-32 -1 -50 17t-18 48v622q0 112 20 332
t19 330q19 39 53 39q34 -1 52 -19t19 -44v-6q-27 -47 -27 -373v-73q3 5 75 150q175 352 216 352q31 0 55 -14t24 -41q0 -1 -100 -165t-120 -205l-4 -122q0 -88 70 -329t118 -319q6 -9 26 -37t30 -49t10 -44z" />
    <glyph glyph-name="kgreenlandic" unicode="&#x138;" horiz-adv-x="637" 
d="M602 19q0 -23 -18 -39t-40 -15q-96 0 -206 402q-54 199 -88 385q-74 -147 -74 -356v-379q0 -48 -42 -48q-32 -1 -50 17t-18 48v622q0 112 20 332t19 330q19 39 53 39q34 -1 52 -19t19 -44v-6q-27 -47 -27 -373v-73q3 5 75 150q175 352 216 352q31 0 55 -14t24 -41
q0 -1 -100 -165t-120 -205l-4 -122q0 -88 70 -329t118 -319q6 -9 26 -37t30 -49t10 -44z" />
    <glyph glyph-name="Lacute" unicode="&#x139;" horiz-adv-x="430" 
d="M123 1714q1 12 29 38t128 112t122 105q12 4 27 4q15 1 36 -25t21 -50t-15 -34q-78 -57 -298 -173q-8 -4 -19 -4t-21 8t-10 19zM201 167v-52h156q44 -30 44 -57q0 -26 -15 -44t-31 -18t-37 7q-17 -4 -39 -4l-66 3q-21 -25 -53 -25q-32 -1 -52 19q-22 20 -22 46l13 90
q-1 232 -21 698t-20 699q0 19 15 31t37 11q22 0 42 -17q18 -17 18 -42l21 -737l2 -65v-9q8 -178 8 -534z" />
    <glyph glyph-name="lacute" unicode="&#x13a;" horiz-adv-x="467" 
d="M142 1507q0 11 28 37t130 113q100 86 121 105q12 4 27 4t36 -26t21 -49q0 -24 -15 -34q-78 -57 -298 -173q-8 -4 -19 -4t-21 8t-10 19zM184 586v-41l-8 -326q0 -141 69 -141l85 3q110 0 110 -60q0 -23 -19 -37t-43 -17q-75 24 -183 24q-33 -19 -63 -19t-48 21
q-17 21 -17 46q0 151 13 457t13 458v15q-12 128 -12 192q0 194 71 194q20 0 36 -15t16 -36l-14 -156l6 -492q-12 -28 -12 -70z" />
    <glyph glyph-name="Lcommaaccent" unicode="&#x13b;" horiz-adv-x="430" 
d="M175 -501q-34 0 -34 23l7 37q44 200 114 280q32 36 64 36q4 -4 20 -8q36 -11 36 -33q0 -48 -45 -130t-95 -144t-67 -61zM201 167v-52h156q44 -30 44 -57q0 -26 -15 -44t-31 -18t-37 7q-17 -4 -39 -4l-66 3q-21 -25 -53 -25q-32 -1 -52 19q-22 20 -22 46l13 90
q-1 232 -21 698t-20 699q0 19 15 31t37 11q22 0 42 -17q18 -17 18 -42l21 -737l2 -65v-9q8 -178 8 -534z" />
    <glyph glyph-name="lcommaaccent" unicode="&#x13c;" horiz-adv-x="467" 
d="M185 -511q-34 0 -34 23l7 37q44 200 114 280q32 36 64 36q4 -4 20 -8q36 -11 36 -33q0 -48 -45 -130t-95 -144t-67 -61zM184 586v-41l-8 -326q0 -141 69 -141l85 3q110 0 110 -60q0 -23 -19 -37t-43 -17q-75 24 -183 24q-33 -19 -63 -19t-48 21q-17 21 -17 46
q0 151 13 457t13 458v15q-12 128 -12 192q0 194 71 194q20 0 36 -15t16 -36l-14 -156l6 -492q-12 -28 -12 -70z" />
    <glyph glyph-name="Lcaron" unicode="&#x13d;" horiz-adv-x="506" 
d="M290 1198q-40 0 -40 26t25 46q45 52 65 184t81 131q71 0 71 -108q0 -47 -30 -112t-82 -116q-50 -51 -90 -51zM201 167v-52h156q44 -30 44 -57q0 -26 -15 -44t-31 -18t-37 7q-17 -4 -39 -4l-66 3q-21 -25 -53 -25q-32 -1 -52 19q-22 20 -22 46l13 90q-1 232 -21 698
t-20 699q0 19 15 31t37 11q22 0 42 -17q18 -17 18 -42l21 -737l2 -65v-9q8 -178 8 -534z" />
    <glyph glyph-name="lcaron" unicode="&#x13e;" horiz-adv-x="535" 
d="M312 991q-40 -1 -40 25t25 47q45 51 65 183t81 132q71 0 71 -108q0 -47 -30 -112t-82 -116q-50 -51 -90 -51zM184 586v-41l-8 -326q0 -141 69 -141l85 3q110 0 110 -60q0 -23 -19 -37t-43 -17q-75 24 -183 24q-33 -19 -63 -19t-48 21q-17 21 -17 46q0 151 13 457t13 458
v15q-12 128 -12 192q0 194 71 194q20 0 36 -15t16 -36l-14 -156l6 -492q-12 -28 -12 -70z" />
    <glyph glyph-name="Ldot" unicode="&#x13f;" horiz-adv-x="430" 
d="M346 780q0 30 23 53q23 24 53 24t52 -24q22 -23 22 -55t-23 -52t-55 -21q-32 1 -52 23t-20 52zM201 167v-52h156q44 -30 44 -57q0 -26 -15 -44t-31 -18t-37 7q-17 -4 -39 -4l-66 3q-21 -25 -53 -25q-32 -1 -52 19q-22 20 -22 46l13 90q-1 232 -21 698t-20 699q0 19 15 31
t37 11q22 0 42 -17q18 -17 18 -42l21 -737l2 -65v-9q8 -178 8 -534z" />
    <glyph glyph-name="ldot" unicode="&#x140;" horiz-adv-x="762" 
d="M541 708q0 30 23 53q23 24 53 24t52 -24q22 -23 22 -55t-23 -52q-22 -20 -54 -21q-32 1 -52 23t-21 52zM184 586v-41l-8 -326q0 -141 69 -141l85 3q110 0 110 -60q0 -23 -19 -37t-43 -17q-75 24 -183 24q-33 -19 -63 -19t-48 21q-17 21 -17 46q0 151 13 457t13 458v15
q-12 128 -12 192q0 194 71 194q20 0 36 -15t16 -36l-14 -156l6 -492q-12 -28 -12 -70z" />
    <glyph glyph-name="Lslash" unicode="&#x141;" horiz-adv-x="430" 
d="M26.5 754q-23.5 0 -44 14t-20.5 35q0 46 114 70q-18 438 -18 656q0 19 15 30.5t37.5 11.5t41 -17t18.5 -42q0 -116 9 -328.5t11 -279.5q103 45 176 45q14 0 26 -14.5t12 -37.5q0 -68 -213 -100v-2l3 -65q0 -13 -1 -20v-9q8 -178 8 -534v-52h156q44 -30 44 -57t-15 -44.5
t-31 -17.5t-37 7q-17 -4 -39 -4l-134 6q-22 0 -40.5 11t-18.5 26l13 90q0 212 -18 636q-31 -14 -54.5 -14z" />
    <glyph glyph-name="lslash" unicode="&#x142;" horiz-adv-x="467" 
d="M339.5 807q52.5 0 52.5 -35t-50 -50t-146 -36q-12 -39 -12 -116v-25l-8 -326q0 -141 7 -141l147 3q110 0 110 -60q0 -22 -19 -36.5t-43 -17.5q-75 24 -183 24q-33 -19 -63.5 -19t-47.5 21t-17 46q0 126 19 611q-67 -32 -93 -32q-43 0 -43 39q0 51 139 79q4 146 4 218v15
q-12 128 -12 192q0 194 71 194q21 0 36.5 -15t15.5 -36l-14 -156q0 -69 2.5 -196t2.5 -177q92 32 144.5 32z" />
    <glyph glyph-name="Nacute" unicode="&#x143;" horiz-adv-x="737" 
d="M290 1725q0 11 28 37t130 113q100 86 121 105q12 4 27 4t36 -26t21 -49q0 -24 -15 -34q-78 -57 -298 -173q-8 -4 -19 -4t-21 8t-10 19zM81 1462q0 102 43 102t112 -190q126 -345 302 -1139l2 -10l8 714v606q12 51 67 51t55 -80v-12q-12 -25 -12 -60l-13 -757v-626
q0 -31 -17 -61t-42 -30q-43 0 -168 422t-247 906v-672q1 -98 15 -292t14 -292q0 -20 -23 -32t-59 -12t-35 32l10 147q0 106 -13 344t-13 291v261l14 376v13z" />
    <glyph glyph-name="nacute" unicode="&#x144;" horiz-adv-x="827" 
d="M330 1507q0 11 28 37t130 113q100 86 121 105q12 4 27 4t36 -26t21 -49q0 -24 -15 -34q-78 -57 -298 -173q-8 -4 -19 -4t-21 8t-10 19zM197 56q-1 -16 -19 -35t-43 -19q-67 0 -67 125l-4 702l12 382q0 95 75 151v-13q8 5 15 5q48 0 120 -166t130 -363t116 -399t71 -237
q41 429 41 1039l-3 55q0 61 51 61q30 0 44 -24t14 -56v-155q-2 -241 -22 -643t-52 -455q-56 -17 -78 -17t-32 14q-12 14 -19 45q-7 30 -12 40l1 9q0 76 -147 483t-213 560v-1031q21 -42 21 -58z" />
    <glyph glyph-name="Ncommaaccent" unicode="&#x145;" horiz-adv-x="737" 
d="M343 -508q-34 0 -34 23l7 37q44 200 114 280q32 36 64 36q4 -4 20 -8q36 -11 36 -33q0 -47 -45 -129t-95 -144t-67 -62zM81 1462q0 102 43 102t112 -190q126 -345 302 -1139l2 -10l8 714v606q12 51 67 51t55 -80v-12q-12 -25 -12 -60l-13 -757v-626q0 -31 -17 -61
t-42 -30q-43 0 -168 422t-247 906v-672q1 -98 15 -292t14 -292q0 -20 -23 -32t-59 -12t-35 32l10 147q0 106 -13 344t-13 291v261l14 376v13z" />
    <glyph glyph-name="ncommaaccent" unicode="&#x146;" horiz-adv-x="827" 
d="M371 -484q-34 0 -34 23l7 37q44 200 114 280q32 36 64 36q4 -4 20 -8q36 -11 36 -33q0 -47 -45 -129t-95 -144t-67 -62zM197 56q-1 -16 -19 -35t-43 -19q-67 0 -67 125l-4 702l12 382q0 95 75 151v-13q8 5 15 5q48 0 120 -166t130 -363t116 -399t71 -237q41 429 41 1039
l-3 55q0 61 51 61q30 0 44 -24t14 -56v-155q-2 -241 -22 -643t-52 -455q-56 -17 -78 -17t-32 14q-12 14 -19 45q-7 30 -12 40l1 9q0 76 -147 483t-213 560v-1031q21 -42 21 -58z" />
    <glyph glyph-name="Ncaron" unicode="&#x147;" horiz-adv-x="737" 
d="M395 1764q0 -66 -52 -66q-41 0 -113 166t-72 223q0 15 15 27t34 12q43 0 101 -211l27 -94q4 22 11 90t24 145q16 77 55 77q19 1 31 -11t12 -32l-15 -31v-37l-29 -112q-29 -112 -29 -146zM81 1462q0 102 43 102t112 -190q126 -345 302 -1139l2 -10l8 714v606q12 51 67 51
t55 -80v-12q-12 -25 -12 -60l-13 -757v-626q0 -31 -17 -61t-42 -30q-43 0 -168 422t-247 906v-672q1 -98 15 -292t14 -292q0 -20 -23 -32t-59 -12t-35 32l10 147q0 106 -13 344t-13 291v261l14 376v13z" />
    <glyph glyph-name="ncaron" unicode="&#x148;" horiz-adv-x="827" 
d="M434 1546q0 -66 -52 -66q-40 0 -112 166t-73 223q0 15 15 27t34 12q43 0 101 -211l27 -94q4 22 11 90t24 145q16 77 55 77q18 1 30 -11t13 -32l-15 -31v-37l-29 -112q-29 -112 -29 -146zM197 56q-1 -16 -19 -35t-43 -19q-67 0 -67 125l-4 702l12 382q0 95 75 151v-13
q8 5 15 5q48 0 120 -166t130 -363t116 -399t71 -237q41 429 41 1039l-3 55q0 61 51 61q30 0 44 -24t14 -56v-155q-2 -241 -22 -643t-52 -455q-56 -17 -78 -17t-32 14q-12 14 -19 45q-7 30 -12 40l1 9q0 76 -147 483t-213 560v-1031q21 -42 21 -58z" />
    <glyph glyph-name="Eng" unicode="&#x14a;" horiz-adv-x="737" 
d="M615 1596q55 0 55 -80v-12q-2 -5 -14 -25t-11 -35v-1402q0 -204 -26 -256q-27 -52 -67 -82t-118 -92q-32 0 -53 16t-21 45t18.5 49.5t45.5 34t54 29.5q64 37 64 101l1 145q-120 261 -372 1266v-672q0 -98 14.5 -292t14.5 -292q0 -19 -23 -31.5t-58.5 -12.5t-35.5 32
l10 147q0 106 -13 344t-13 291v261l14 376v13q0 102 43 102t112 -190q126 -345 302 -1139l2 -10l8 714v606q12 51 67 51z" />
    <glyph glyph-name="eng" unicode="&#x14b;" horiz-adv-x="827" 
d="M197 56q0 -16 -18.5 -35t-43.5 -19q-67 0 -67 125l-4 702l12 382q0 95 75 151v-13q8 5 15 5q48 0 120 -165.5t130 -363.5t115.5 -399.5t71.5 -236.5q41 429 41 1039l-3 55q0 61 51 61q29 0 43.5 -24t14.5 -56v-263q0 -912 -81 -1208q-31 -113 -59 -174
q-61 -131 -155 -131q-32 0 -53 16t-21 45t16.5 40.5t41 17t49.5 16t46.5 45.5t27.5 85.5t9.5 129.5t7.5 116q-30 69 -203 577t-200 569v-1031q21 -42 21 -58z" />
    <glyph glyph-name="Omacron" unicode="&#x14c;" horiz-adv-x="650" 
d="M490 1736q0 -45 -66 -45l-148 -4q-228 0 -228 56q0 44 90 44l144 4q208 0 208 -55zM289 1477q-29 0 -49 -21q-31 -34 -56 -136q-24 -102 -29 -255q-5 -152 -6 -204v-9q0 -138 21 -296q22 -158 44 -259t60 -171t85 -71q81 0 113 314q19 187 17 293q-1 108 -3 180t-9 136
q-5 64 -15 140q-10 77 -26 137q-16 61 -36 113t-50 80t-61 29zM551 227q0 -65 -23 -127t-70 -110t-103 -47q-56 0 -102 38q-81 67 -124 223t-58 316t-14 242t-1 157t-2 101v55q3 197 28 299t71 156q47 55 112 55q65 1 111 -23t78 -76t54 -101q24 -49 38 -137t24 -165
q12 -78 12 -347v-118l-18 -259v-9q-13 -57 -13 -123z" />
    <glyph glyph-name="omacron" unicode="&#x14d;" horiz-adv-x="651" 
d="M498 1529q0 -45 -66 -45l-148 -4q-228 0 -228 56q0 44 90 44l144 4q208 0 208 -55zM478 568q0 77 -14 236t-13 237v36q-2 75 -49 133q-46 58 -118 59q-72 -1 -93 -73t-21 -169l2 -121l-10 -189q0 -297 48 -518q51 -129 97 -152q129 0 161 335q10 109 10 186zM50 714v37
q0 321 34 447t63 153t57 27q238 0 328 -240q52 -138 52 -340v-15l4 -232q0 -589 -273 -589q-113 0 -171 122q-92 194 -93 542l2 78q0 10 -3 10z" />
    <glyph glyph-name="Obreve" unicode="&#x14e;" horiz-adv-x="650" 
d="M248 1687q-49 0 -89 37q-72 65 -72 196v10l38 32q47 0 61 -78t47 -102h44q14 0 30 32t16 52t1 31t6 27q6 16 18 22q12 7 33 7q21 1 37 -15t17 -29q0 -13 -8 -41l4 -16v-1q-52 -133 -108 -154q-26 -10 -75 -10zM289 1477q-29 0 -49 -21q-31 -34 -56 -136
q-24 -102 -29 -255q-5 -152 -6 -204v-9q0 -138 21 -296q22 -158 44 -259t60 -171t85 -71q81 0 113 314q19 187 17 293q-1 108 -3 180t-9 136q-5 64 -15 140q-10 77 -26 137q-16 61 -36 113t-50 80t-61 29zM551 227q0 -65 -23 -127t-70 -110t-103 -47q-56 0 -102 38
q-81 67 -124 223t-58 316t-14 242t-1 157t-2 101v55q3 197 28 299t71 156q47 55 112 55q65 1 111 -23t78 -76t54 -101q24 -49 38 -137t24 -165q12 -78 12 -347v-118l-18 -259v-9q-13 -57 -13 -123z" />
    <glyph glyph-name="obreve" unicode="&#x14f;" horiz-adv-x="651" 
d="M256 1480q-49 0 -89 37q-72 65 -72 196v10l38 32q47 0 61 -78t47 -102h44q14 0 30 32t16 52t1 31q1 10 6 26q6 16 18 23t33 7t37 -16t17 -28q0 -13 -8 -41l4 -16v-1q-52 -133 -108 -154q-26 -10 -75 -10zM478 568q0 77 -14 236t-13 237v36q-2 75 -49 133q-46 58 -118 59
q-72 -1 -93 -73t-21 -169l2 -121l-10 -189q0 -297 48 -518q51 -129 97 -152q129 0 161 335q10 109 10 186zM50 714v37q0 321 34 447t63 153t57 27q238 0 328 -240q52 -138 52 -340v-15l4 -232q0 -589 -273 -589q-113 0 -171 122q-92 194 -93 542l2 78q0 10 -3 10z" />
    <glyph glyph-name="Ohungarumlaut" unicode="&#x150;" horiz-adv-x="650" 
d="M391 1725q0 27 86 125t181 188t117 89t39 -15t23 -33q-19 -49 -192 -197t-234 -182q-20 -1 -20 25zM435 2127q18 0 33 -11t15 -27q0 -45 -75 -141q-76 -96 -160 -174t-115 -87v13q1 30 69 136t142 198t91 93zM289 1477q-29 0 -49 -21q-31 -34 -56 -136q-24 -102 -29 -255
q-5 -152 -6 -204v-9q0 -138 21 -296q22 -158 44 -259t60 -171t85 -71q81 0 113 314q19 187 17 293q-1 108 -3 180t-9 136q-5 64 -15 140q-10 77 -26 137q-16 61 -36 113t-50 80t-61 29zM551 227q0 -65 -23 -127t-70 -110t-103 -47q-56 0 -102 38q-81 67 -124 223t-58 316
t-14 242t-1 157t-2 101v55q3 197 28 299t71 156q47 55 112 55q65 1 111 -23t78 -76t54 -101q24 -49 38 -137t24 -165q12 -78 12 -347v-118l-18 -259v-9q-13 -57 -13 -123z" />
    <glyph glyph-name="ohungarumlaut" unicode="&#x151;" horiz-adv-x="651" 
d="M399 1518q0 26 86 124t181 188t117 90t39 -14t23 -34q-19 -50 -192 -198t-234 -181q-20 -1 -20 25zM443 1920q18 0 33 -11t15 -27q0 -46 -75 -142q-76 -96 -160 -173q-84 -78 -115 -87v13q1 31 69 137t142 198t91 92zM478 568q0 77 -14 236t-13 237v36q-2 75 -49 133
q-46 58 -118 59q-72 -1 -93 -73t-21 -169l2 -121l-10 -189q0 -297 48 -518q51 -129 97 -152q129 0 161 335q10 109 10 186zM50 714v37q0 321 34 447t63 153t57 27q238 0 328 -240q52 -138 52 -340v-15l4 -232q0 -589 -273 -589q-113 0 -171 122q-92 194 -93 542l2 78
q0 10 -3 10z" />
    <glyph glyph-name="OE" unicode="&#x152;" horiz-adv-x="1113" 
d="M508 112q75 0 127.5 17.5t52.5 38.5q0 216 -19 621t-22 582q-70 78 -243 78q-112 -1 -170 -90q-90 -139 -89 -402l1 -137q0 -46 -1 -69q13 -24 24 -196q22 -317 88 -323q101 -120 251 -120zM954 85q136 0 136 -60v-7l-23 -34l-324 -6q-24 0 -49 13t-25 35l1 7
q-76 -24 -131.5 -24t-121 16t-114 42t-106 88t-102 201.5t-44.5 390.5t15 373t69 276.5t189.5 154.5t202.5 -11t122 -46l30 43l92 -12h152l51 4q47 -26 47 -53q0 -50 -60 -50l-218 7q0 -69 14 -207t14 -208l-4 -105q0 -33 5 -57l62 -2h9l45 1q41 0 70 -37q0 -64 -56 -64
l-100 4q-19 0 -28 -1l14 -677q103 7 133 7l4 -2h29z" />
    <glyph glyph-name="oe" unicode="&#x153;" horiz-adv-x="846" 
d="M311 47q129 0 161 335q10 109 10 186t-13.5 236t-13.5 237v36q-2 75 -49 133t-122 58t-98 -108t-23 -251l3 -192q0 -297 48 -518q33 -152 97 -152zM586 903.5q0 -64.5 6 -106.5l94 4q78 0 78 -32q0 -20 -12.5 -35.5t-32.5 -15.5h-130q6 -78 6 -155l-9 -371q0 -128 4 -128
l151 5q65 0 65 -48t-75 -48h-173q-27 0 -49 18.5t-23 44.5v91q-17 -80 -63 -122.5t-103 -42.5t-115.5 44t-103.5 205q-44 161 -46 415l2 78q0 10 -3 10v37q0 225 24.5 318.5t49.5 152.5q53 126 165 126q68 0 123.5 -49t81.5 -121q0 140 26 163q12 11 52.5 11t135.5 -25.5
t95 -65.5q0 -47 -35 -47t-93.5 19.5t-83.5 22.5v-108q-9 -180 -9 -244.5z" />
    <glyph glyph-name="Racute" unicode="&#x154;" horiz-adv-x="548" 
d="M176 1714q0 12 28 38t130 112q100 86 121 105q12 4 27 4q15 1 36 -25t21 -50t-15 -34q-78 -57 -298 -173q-8 -4 -19 -4t-21 8t-10 19zM286 1254q0 34 -24 117t-71 92l-11 -418q0 -63 2 -94q35 33 69 79l32 177q3 13 3 47zM187 52q0 -65 -51 -65q-30 1 -44 17t-14 40v16
l8 1201v252q0 24 10 34t52 10q93 0 160 -75q90 -112 90 -265q0 -100 -37 -192t-58 -149q1 -152 77 -395q26 -83 74 -225t60 -180v-5q0 -69 -16 -81t-34 -11q-38 0 -74 55v7q-10 186 -128 563q-54 172 -75 255v-807z" />
    <glyph glyph-name="racute" unicode="&#x155;" horiz-adv-x="504" 
d="M172 1507q0 11 28 37t130 113q100 86 121 105q12 4 27 4t36 -26t21 -49q0 -24 -15 -34q-78 -57 -298 -173q-8 -4 -19 -4t-21 8t-10 19zM98 218q0 114 -18 490q-18 375 -17 560q0 97 68 97q107 0 180 -56t73 -160v-144q0 -59 -22 -107t-51 -102t-32 -60q11 -50 39 -196
q60 -319 133 -459q21 -41 21 -63t-12 -38t-34 -15q-42 1 -82 99t-64 218q-73 367 -89 404h-25l-2 -222q0 -271 39 -427l-23 -55h-57l-27 30q2 92 2 206zM282 1096q0 73 -16 124q-20 66 -92 69l-7 -29q0 -84 4 -242t4 -231q47 25 77 131t30 178z" />
    <glyph glyph-name="Rcedilla" unicode="&#x156;" horiz-adv-x="548" 
d="M201 -550q-34 0 -34 23l7 37q44 200 114 280q32 36 64 36q4 -4 20 -8q36 -11 36 -33q0 -47 -45 -129t-95 -144t-67 -62zM286 1254q0 34 -24 117t-71 92l-11 -418q0 -63 2 -94q35 33 69 79l32 177q3 13 3 47zM187 52q0 -65 -51 -65q-30 1 -44 17t-14 40v16l8 1201v252
q0 24 10 34t52 10q93 0 160 -75q90 -112 90 -265q0 -100 -37 -192t-58 -149q1 -152 77 -395q26 -83 74 -225t60 -180v-5q0 -69 -16 -81t-34 -11q-38 0 -74 55v7q-10 186 -128 563q-54 172 -75 255v-807z" />
    <glyph glyph-name="rcommaaccent" unicode="&#x157;" horiz-adv-x="504" 
d="M215 -513q-34 0 -34 23l7 37q44 200 114 280q32 36 64 36q4 -4 20 -8q36 -11 36 -33q0 -48 -45 -130t-95 -144t-67 -61zM98 218q0 114 -18 490q-18 375 -17 560q0 97 68 97q107 0 180 -56t73 -160v-144q0 -59 -22 -107t-51 -102t-32 -60q11 -50 39 -196q60 -319 133 -459
q21 -41 21 -63t-12 -38t-34 -15q-42 1 -82 99t-64 218q-73 367 -89 404h-25l-2 -222q0 -271 39 -427l-23 -55h-57l-27 30q2 92 2 206zM282 1096q0 73 -16 124q-20 66 -92 69l-7 -29q0 -84 4 -242t4 -231q47 25 77 131t30 178z" />
    <glyph glyph-name="Rcaron" unicode="&#x158;" horiz-adv-x="548" 
d="M281 1753q0 -66 -52 -66q-41 0 -113 166t-72 223q0 16 15 28t34 11q43 0 101 -211l27 -94q4 22 11 90t24 145q16 77 55 77q19 0 31 -12t12 -31l-15 -31v-37l-29 -112q-29 -112 -29 -146zM286 1254q0 34 -24 117t-71 92l-11 -418q0 -63 2 -94q35 33 69 79l32 177
q3 13 3 47zM187 52q0 -65 -51 -65q-30 1 -44 17t-14 40v16l8 1201v252q0 24 10 34t52 10q93 0 160 -75q90 -112 90 -265q0 -100 -37 -192t-58 -149q1 -152 77 -395q26 -83 74 -225t60 -180v-5q0 -69 -16 -81t-34 -11q-38 0 -74 55v7q-10 186 -128 563q-54 172 -75 255v-807z
" />
    <glyph glyph-name="rcaron" unicode="&#x159;" horiz-adv-x="504" 
d="M276 1546q0 -66 -52 -66q-40 0 -112 166t-73 223q0 15 15 27t34 12q43 0 101 -211l27 -94q4 22 11 90t24 145q16 77 55 77q18 1 30 -11t13 -32l-15 -31v-37l-29 -112q-29 -112 -29 -146zM98 218q0 114 -18 490q-18 375 -17 560q0 97 68 97q107 0 180 -56t73 -160v-144
q0 -59 -22 -107t-51 -102t-32 -60q11 -50 39 -196q60 -319 133 -459q21 -41 21 -63t-12 -38t-34 -15q-42 1 -82 99t-64 218q-73 367 -89 404h-25l-2 -222q0 -271 39 -427l-23 -55h-57l-27 30q2 92 2 206zM282 1096q0 73 -16 124q-20 66 -92 69l-7 -29q0 -84 4 -242t4 -231
q47 25 77 131t30 178z" />
    <glyph glyph-name="Sacute" unicode="&#x15a;" horiz-adv-x="523" 
d="M143 1714q1 12 29 38t128 112t122 105q12 4 27 4q15 1 36 -25t21 -50t-15 -34q-78 -57 -298 -173q-8 -4 -19 -4t-21 8t-10 19zM38 24q0 55 46 55q22 1 60 -15t66 -16t59 35t59 114t28 165t-30 183q-30 98 -73 184t-87 172q-104 205 -104 369t102 256q54 48 127 48
q37 0 72 -20t49 -54l-35 -44q-51 0 -80 20q-38 -4 -66 -36q-51 -60 -51 -146q0 -164 77 -315q108 -212 143 -287q77 -162 77 -350q1 -132 -67 -254q-32 -58 -88 -96t-128 -37q-72 0 -114 22t-42 47z" />
    <glyph glyph-name="sacute" unicode="&#x15b;" horiz-adv-x="445" 
d="M118 1510q0 12 28 38t130 112q100 86 121 105q12 4 27 4q15 1 36 -25t21 -50t-15 -34q-78 -57 -298 -173q-8 -4 -19 -4t-21 8t-10 19zM295 364q0 76 -25 149q-26 73 -62 137t-72 130q-86 156 -86 306q0 92 31 163q58 132 154 132q37 0 69 -23t32 -50q0 -47 -50 -47
q-22 0 -43 12q-65 -3 -88 -145q-5 -30 -5 -72t18 -103t62 -136t105 -195t61 -262t-58 -255q-28 -55 -80 -91t-117 -37v-5q-84 12 -92 79l23 35l85 -15q77 1 117 143q20 74 21 150z" />
    <glyph glyph-name="scircumflex" unicode="&#x15d;" horiz-adv-x="445" 
d="M32 1487q-14 0 -26 19q-14 18 -14 50t33 124t81 173q48 82 84 82t84 -157t48 -238q0 -24 -18 -40t-42 -17q-55 1 -77 189q-10 86 -13 97q0 -7 -16 -49t-26 -74q-12 -32 -24 -58t-24 -50t-24 -38t-26 -13zM295 364q0 76 -25 149q-26 73 -62 137t-72 130q-86 156 -86 306
q0 92 31 163q58 132 154 132q37 0 69 -23t32 -50q0 -47 -50 -47q-22 0 -43 12q-65 -3 -88 -145q-5 -30 -5 -72t18 -103t62 -136t105 -195t61 -262t-58 -255q-28 -55 -80 -91t-117 -37v-5q-84 12 -92 79l23 35l85 -15q77 1 117 143q20 74 21 150z" />
    <glyph glyph-name="Scedilla" unicode="&#x15e;" horiz-adv-x="523" 
d="M38 24q0 55 46 55q22 1 60 -15t66 -16t59 35t59 114t28 165t-30 183q-30 98 -73 184t-87 172q-104 205 -104 369t102 256q54 48 127 48q37 0 72 -20t49 -54l-35 -44q-51 0 -80 20q-38 -4 -66 -36q-51 -60 -51 -146q0 -164 77 -315q108 -212 143 -287q77 -162 77 -350
q1 -132 -67 -254q-32 -58 -88 -96t-125 -37h-4q-7 -44 -10 -92q109 -15 159 -78t50 -136t-53 -126t-107 -53t-92 15t-39 39q0 24 14 36q15 13 31 13t42 -11t52 -11q26 1 45 29q20 28 20 66q-1 38 -27 63q-26 26 -88 26t-65 12l9 166q0 28 3 46q-33 5 -66 23q-33 17 -33 42z
" />
    <glyph glyph-name="scedilla" unicode="&#x15f;" horiz-adv-x="445" 
d="M295 364q0 76 -25 149q-26 73 -62 137t-72 130q-86 156 -86 306q0 92 31 163q58 132 154 132q37 0 69 -23t32 -50q0 -47 -50 -47q-22 0 -43 12q-65 -3 -88 -145q-5 -30 -5 -72t18 -103t62 -136t105 -195t61 -262t-58 -255q-28 -56 -74 -88t-97 -38q-8 -47 -11 -99
q109 -15 159 -78t50 -136t-53 -126t-107 -53q-55 0 -93 15q-38 14 -38 38t14 37t30 13t43 -11q25 -11 51 -11t46 28t20 66t-26 64t-89 26q-62 0 -65 12l9 166q0 30 4 49q-55 18 -62 72l23 35l85 -15q77 1 117 143q20 74 21 150z" />
    <glyph glyph-name="Scaron" unicode="&#x160;" horiz-adv-x="523" 
d="M248 1753q0 -66 -52 -66q-40 0 -112 166t-73 223q0 16 15 28t34 11q43 0 101 -211l27 -94q4 22 11 90t24 145q16 77 55 77q18 0 30 -12t13 -31l-15 -31v-37l-29 -112q-29 -112 -29 -146zM38 24q0 55 46 55q22 1 60 -15t66 -16t59 35t59 114t28 165t-30 183
q-30 98 -73 184t-87 172q-104 205 -104 369t102 256q54 48 127 48q37 0 72 -20t49 -54l-35 -44q-51 0 -80 20q-38 -4 -66 -36q-51 -60 -51 -146q0 -164 77 -315q108 -212 143 -287q77 -162 77 -350q1 -132 -67 -254q-32 -58 -88 -96t-128 -37q-72 0 -114 22t-42 47z" />
    <glyph glyph-name="scaron" unicode="&#x161;" horiz-adv-x="445" 
d="M223 1549q0 -66 -52 -66q-41 0 -113 166t-72 223q0 16 15 28t34 11q43 0 101 -211l27 -94q4 22 11 90t24 145q16 77 55 77q19 0 31 -12t12 -31l-15 -31v-37l-29 -112q-29 -112 -29 -146zM295 364q0 76 -25 149q-26 73 -62 137t-72 130q-86 156 -86 306q0 92 31 163
q58 132 154 132q37 0 69 -23t32 -50q0 -47 -50 -47q-22 0 -43 12q-65 -3 -88 -145q-5 -30 -5 -72t18 -103t62 -136t105 -195t61 -262t-58 -255q-28 -55 -80 -91t-117 -37v-5q-84 12 -92 79l23 35l85 -15q77 1 117 143q20 74 21 150z" />
    <glyph glyph-name="Tcommaaccent" unicode="&#x162;" horiz-adv-x="492" 
d="M21 1468q0 48 146 65t230 17q25 0 45 -16t21 -42q0 -26 -18 -40t-44 -14l-73 4q-14 0 -21 -1q14 -118 14 -252l-4 -264l18 -471l17 -368q0 -75 -33 -94q-8 -46 -11 -98q109 -15 159 -78t50 -136t-53 -126t-107 -53q-55 0 -93 15q-38 14 -38 38t14 37t30 13t43 -11
q25 -11 51 -11t46 28t20 66t-26 64t-89 26q-62 0 -65 12l9 166q0 31 4 50q-36 24 -36 95l16 327q0 106 -14 319t-14 319l3 179q0 147 -19 191l-111 -11q-26 -1 -46 15t-21 40z" />
    <glyph glyph-name="tcommaaccent" unicode="&#x163;" horiz-adv-x="493" 
d="M23 1316q0 20 22 32t43 12l278 -19l33 1q64 0 64 -49q0 -25 -21 -41t-47 -15l-94 14l-4 -21q0 -194 34 -581t34 -582q0 -31 -33 -51q-9 -48 -12 -102q109 -15 159 -78t50 -136t-53 -126t-107 -53q-55 0 -93 15q-38 14 -38 38t14 37t30 13t43 -11q25 -11 51 -11t46 28
t20 66t-26 64t-89 26q-62 0 -65 12l9 166q0 36 5 55l-19 14l-4 157q0 1 3 70q-8 26 -32 462t-27 533h-8q-166 3 -166 61z" />
    <glyph glyph-name="Tcaron" unicode="&#x164;" horiz-adv-x="492" 
d="M296 1753q0 -66 -52 -66q-40 0 -112 166t-73 223q0 16 15 28t34 11q43 0 101 -211l27 -94q4 22 11 90t24 145q16 77 55 77q18 0 30 -12t13 -31l-15 -31v-37l-29 -112q-29 -112 -29 -146zM293 -14q-34 0 -50 32t-16 71l16 327q0 106 -14 319t-14 319l3 179q0 147 -19 191
l-111 -11q-26 -1 -46 15t-21 40q0 48 146 65t230 17q25 0 45 -16t21 -42q0 -26 -18 -40t-44 -14l-73 4q-14 0 -21 -1q14 -118 14 -252l-4 -264l18 -471l17 -368q0 -100 -59 -100z" />
    <glyph glyph-name="tcaron" unicode="&#x165;" horiz-adv-x="493" 
d="M296 1573q0 -66 -52 -66q-40 0 -112 166t-73 223q0 16 15 28t34 11q43 0 101 -211l27 -94q4 22 11 90t24 145q16 77 55 77q18 0 30 -12t13 -31l-15 -31v-37l-29 -112q-29 -112 -29 -146zM23 1316q0 20 22 32t43 12l278 -19l33 1q64 0 64 -49q0 -25 -21 -41t-47 -15
l-94 14l-4 -21q0 -194 34 -581t34 -582q0 -25 -22 -43t-48 -18l-38 27l-4 157q0 1 3 70q-8 26 -32 462t-27 533h-8q-166 3 -166 61z" />
    <glyph glyph-name="Tbar" unicode="&#x166;" horiz-adv-x="492" 
d="M21 1468q0 48 146 65t230 17q25 0 45 -16t21 -42q0 -26 -18 -40t-44 -14l-73 4q-14 0 -21 -1q14 -118 14 -252l-3 -191q179 -4 179 -55q0 -45 -66 -45l-113 -3l17 -441l17 -368q0 -100 -59 -100q-34 0 -50 32t-16 71l16 327q0 106 -10 257t-13 222q-165 7 -165 53t90 46
l71 2q-1 32 -1 58l3 179q0 147 -19 191l-111 -11q-26 -1 -46 15t-21 40z" />
    <glyph glyph-name="tbar" unicode="&#x167;" horiz-adv-x="493" 
d="M365 67q0 -25 -22 -43t-48 -18l-38 27l-4 157q0 1 3 70q-8 25 -31 441q-169 7 -169 55q0 44 90 44l73 2q-20 365 -22 453h-8q-166 3 -166 61q0 20 22 32t43 12l278 -19l33 1q64 0 64 -49q0 -25 -21 -41t-47 -15l-94 14l-4 -21q0 -153 21 -426q180 -4 180 -55
q0 -45 -66 -45l-106 -3q39 -454 39 -634z" />
    <glyph glyph-name="Utilde" unicode="&#x168;" horiz-adv-x="699" 
d="M67 1764q0 39 40 74t108 35q25 1 89 -41t84 -42t30 13t14 28q3 15 14 28q12 13 38 13t43 -16t17 -37q0 -53 -40 -93t-92 -39q-99 0 -137 44q-37 44 -81 43q-29 -11 -24 -39t-29 -40q-74 0 -74 69zM39 1477q-1 25 17 44t42 19q74 0 74 -146l19 -712q13 -27 21 -109
q8 -81 8 -127t14 -112t40 -135q26 -68 70 -116t82 -48q69 0 84 71q11 54 11 113v400q0 65 -13 193t-13 193v14l-4 119l-15 351q0 25 25 41t52 15l50 -48v-34l-15 -125q0 -171 18 -515q18 -343 19 -465t-3 -162q-9 -106 -54 -170q-44 -63 -145 -63q-125 -1 -203 112t-113 289
q-55 277 -55 751l2 320q-15 17 -15 42z" />
    <glyph glyph-name="utilde" unicode="&#x169;" horiz-adv-x="641" 
d="M53 1568q0 39 40 74t108 35q25 1 89 -41t84 -42t30 13t14 28q3 15 14 28q12 13 38 13t43 -16t17 -37q0 -53 -40 -93t-92 -39q-99 0 -137 44q-37 44 -81 43q-29 -11 -24 -39t-29 -40q-74 0 -74 69zM464 1341q0 48 49 48t59 -29t11 -70l-14 -206l-9 -171l2 -35
q0 -909 -264 -909q-102 -1 -152 84t-64 193t-16 278t-3 489l-9 293q20 43 44 43q24 1 43 -37t19 -80v-557q0 -73 14 -217t15 -217q0 -150 130 -150q146 0 146 1101v115z" />
    <glyph glyph-name="Umacron" unicode="&#x16a;" horiz-adv-x="699" 
d="M559 1736q0 -45 -66 -45l-148 -4q-228 0 -228 56q0 44 90 44l144 4q208 0 208 -55zM39 1477q-1 25 17 44t42 19q74 0 74 -146l19 -712q13 -27 21 -109q8 -81 8 -127t14 -112t40 -135q26 -68 70 -116t82 -48q69 0 84 71q11 54 11 113v400q0 65 -13 193t-13 193v14l-4 119
l-15 351q0 25 25 41t52 15l50 -48v-34l-15 -125q0 -171 18 -515q18 -343 19 -465t-3 -162q-9 -106 -54 -170q-44 -63 -145 -63q-125 -1 -203 112t-113 289q-55 277 -55 751l2 320q-15 17 -15 42z" />
    <glyph glyph-name="umacron" unicode="&#x16b;" horiz-adv-x="641" 
d="M544 1540q0 -45 -66 -45l-148 -4q-228 0 -228 56q0 44 90 44l144 4q208 0 208 -55zM464 1341q0 48 49 48t59 -29t11 -70l-14 -206l-9 -171l2 -35q0 -909 -264 -909q-102 -1 -152 84t-64 193t-16 278t-3 489l-9 293q20 43 44 43q24 1 43 -37t19 -80v-557q0 -73 14 -217
t15 -217q0 -150 130 -150q146 0 146 1101v115z" />
    <glyph glyph-name="Ubreve" unicode="&#x16c;" horiz-adv-x="699" 
d="M286 1687q-49 0 -89 37q-72 65 -72 196v10l38 32q47 0 61 -78t47 -102h44q14 0 30 32t16 52t1 31t6 27q6 16 18 22q12 7 33 7q21 1 37 -15t17 -29q0 -13 -8 -41l4 -16v-1q-52 -133 -108 -154q-26 -10 -75 -10zM39 1477q-1 25 17 44t42 19q74 0 74 -146l19 -712
q13 -27 21 -109q8 -81 8 -127t14 -112t40 -135q26 -68 70 -116t82 -48q69 0 84 71q11 54 11 113v400q0 65 -13 193t-13 193v14l-4 119l-15 351q0 25 25 41t52 15l50 -48v-34l-15 -125q0 -171 18 -515q18 -343 19 -465t-3 -162q-9 -106 -54 -170q-44 -63 -145 -63
q-125 -1 -203 112t-113 289q-55 277 -55 751l2 320q-15 17 -15 42z" />
    <glyph glyph-name="ubreve" unicode="&#x16d;" horiz-adv-x="641" 
d="M272 1491q-49 0 -89 37q-72 65 -72 196v10l38 32q47 0 61 -78t47 -102h44q14 0 30 32t16 52t1 31t6 27q6 16 18 22q12 7 33 7q21 1 37 -15t17 -29q0 -13 -8 -41l4 -16v-1q-52 -133 -108 -154q-26 -10 -75 -10zM464 1341q0 48 49 48t59 -29t11 -70l-14 -206l-9 -171l2 -35
q0 -909 -264 -909q-102 -1 -152 84t-64 193t-16 278t-3 489l-9 293q20 43 44 43q24 1 43 -37t19 -80v-557q0 -73 14 -217t15 -217q0 -150 130 -150q146 0 146 1101v115z" />
    <glyph glyph-name="Uring" unicode="&#x16e;" horiz-adv-x="699" 
d="M109 1914q1 -48 51 -99t104 -51t100 15q47 15 75 53t40 76t12 64t-6 48q-15 53 -64 92q-49 38 -144 38t-131 -74t-37 -162zM261 2219q101 0 164 -31t84 -64q50 -76 50 -136q0 -129 -79 -215t-222 -86t-198 141q-27 68 -27 162q-1 94 63 162t165 67zM39 1477q-1 25 17 44
t42 19q74 0 74 -146l19 -712q13 -27 21 -109q8 -81 8 -127t14 -112t40 -135q26 -68 70 -116t82 -48q69 0 84 71q11 54 11 113v400q0 65 -13 193t-13 193v14l-4 119l-15 351q0 25 25 41t52 15l50 -48v-34l-15 -125q0 -171 18 -515q18 -343 19 -465t-3 -162q-9 -106 -54 -170
q-44 -63 -145 -63q-125 -1 -203 112t-113 289q-55 277 -55 751l2 320q-15 17 -15 42z" />
    <glyph glyph-name="uring" unicode="&#x16f;" horiz-adv-x="641" 
d="M95 1718q1 -48 51 -99t104 -51t100 15q47 15 75 53t40 76t12 64t-6 48q-15 53 -64 92q-49 38 -144 38t-131 -74t-37 -162zM247 2023q101 0 164 -31t84 -64q50 -76 50 -136q0 -129 -79 -215t-222 -86t-198 141q-27 68 -27 162q-1 94 63 162t165 67zM464 1341q0 48 49 48
t59 -29t11 -70l-14 -206l-9 -171l2 -35q0 -909 -264 -909q-102 -1 -152 84t-64 193t-16 278t-3 489l-9 293q20 43 44 43q24 1 43 -37t19 -80v-557q0 -73 14 -217t15 -217q0 -150 130 -150q146 0 146 1101v115z" />
    <glyph glyph-name="Uhungarumlaut" unicode="&#x170;" horiz-adv-x="699" 
d="M396 1725q0 27 86 125t181 188t117 89t39 -15t23 -33q-19 -49 -192 -197t-234 -182q-20 -1 -20 25zM440 2127q18 0 33 -11t15 -27q0 -45 -75 -141t-159 -174t-116 -87v13q2 30 70 136t140 198q74 92 92 93zM39 1477q-1 25 17 44t42 19q74 0 74 -146l19 -712
q13 -27 21 -109q8 -81 8 -127t14 -112t40 -135q26 -68 70 -116t82 -48q69 0 84 71q11 54 11 113v400q0 65 -13 193t-13 193v14l-4 119l-15 351q0 25 25 41t52 15l50 -48v-34l-15 -125q0 -171 18 -515q18 -343 19 -465t-3 -162q-9 -106 -54 -170q-44 -63 -145 -63
q-125 -1 -203 112t-113 289q-55 277 -55 751l2 320q-15 17 -15 42z" />
    <glyph glyph-name="uhungarumlaut" unicode="&#x171;" horiz-adv-x="641" 
d="M381 1529q0 27 86 125t181 188t117 89t39 -15t23 -33q-19 -49 -192 -197t-234 -182q-20 -1 -20 25zM425 1931q18 0 33 -11t15 -27q0 -45 -75 -141q-76 -96 -160 -174t-115 -87v13q1 30 69 136t142 198t91 93zM464 1341q0 48 49 48t59 -29t11 -70l-14 -206l-9 -171l2 -35
q0 -909 -264 -909q-102 -1 -152 84t-64 193t-16 278t-3 489l-9 293q20 43 44 43q24 1 43 -37t19 -80v-557q0 -73 14 -217t15 -217q0 -150 130 -150q146 0 146 1101v115z" />
    <glyph glyph-name="Uogonek" unicode="&#x172;" horiz-adv-x="699" 
d="M273 -264q0 120 123 228q-106 10 -180 117t-109 283q-55 277 -55 751l2 320q-15 17 -15 42q-1 25 17 44t42 19q74 0 74 -146l19 -712q13 -27 21 -109q8 -81 8 -127t14 -112t40 -135q26 -68 70 -116t82 -48q69 0 84 71q11 54 11 113v400q0 65 -13 193t-13 193v14l-4 119
l-15 351q0 25 25 41t52 15l50 -48v-34l-15 -125q0 -171 18 -515q18 -343 19 -465t-3 -162q-15 -173 -114 -217q-9 -7 -24 -20t-33 -29q-19 -16 -25 -23t-20 -23t-31 -40q-16 -25 -24 -49q-8 -25 -8 -63t27 -38q40 0 86 33l14 -34q0 -27 -38 -45t-74 -19q-36 0 -60 32t-25 75
z" />
    <glyph glyph-name="uogonek" unicode="&#x173;" horiz-adv-x="641" 
d="M464 1341q0 48 49 48t59 -29t11 -70l-14 -206l-9 -171l2 -35q0 -855 -233 -906q-11 -8 -29 -23q-17 -15 -35 -31q-19 -16 -25 -23t-20 -23t-31 -40q-16 -25 -24 -49q-8 -25 -8 -63t27 -38q40 0 86 33l14 -34q0 -27 -38 -45t-74 -19q-36 0 -60 32t-25 75q0 138 153 253
q-59 17 -102 89q-42 72 -56 180t-16 278t-3 489l-9 293q20 43 44 43q24 1 43 -37t19 -80v-557q0 -73 14 -217t15 -217q0 -150 130 -150q146 0 146 1101v115z" />
    <glyph glyph-name="Ydieresis" unicode="&#x178;" horiz-adv-x="453" 
d="M317 1757q0 28 22 51t50 23q29 -1 49 -23t20 -52t-23 -49q-23 -20 -51 -20t-48 21q-19 21 -19 49zM98 1687q-30 0 -46 19t-15 49q0 29 20 51q19 22 49 22t51 -20t21 -50t-26 -50q-24 -21 -54 -21zM183 788q0 143 -79 358t-79 367q-1 15 17 25t37 11q19 0 41 -47t39 -120
t33 -146q16 -74 29 -142t19 -88q4 18 14 137t28 231q28 165 82 165t54 -22q0 -115 -49 -343t-49 -346l-6 -71v-31l11 -543l7 -102v-46q0 -27 -20 -43t-45 -17q-23 1 -39 15t-16 35l10 396q0 59 -20 177t-19 190z" />
    <glyph glyph-name="Zacute" unicode="&#x179;" horiz-adv-x="429" 
d="M160 1714q0 12 28 38t130 112q100 86 121 105q12 4 27 4q15 1 36 -25t21 -50t-15 -34q-78 -57 -298 -173q-8 -4 -19 -4t-21 8t-10 19zM388 1505q0 -536 -227 -1420l108 8q108 0 108 -63v-9l-32 -32l-253 -8q-39 0 -58 50q48 75 106 389t96 608q38 293 45 423
q-70 -10 -117 -10q-111 0 -111 65v9l28 34v1q27 -7 58 -7l193 21q24 0 40 -18t16 -41z" />
    <glyph glyph-name="zacute" unicode="&#x17a;" horiz-adv-x="493" 
d="M227 1507q1 11 29 37t128 113q100 86 122 105q12 4 27 4t36 -26t21 -49q0 -24 -15 -34q-78 -57 -298 -173q-8 -4 -19 -4t-21 8t-10 19zM92 -4q-18 0 -34 14q-17 14 -17 47q0 183 138 638t165 561l-167 -12q-21 0 -37 18t-16 39q0 58 225 58q101 0 101 -57q0 -72 -44 -196
t-53 -173q-26 -163 -107 -475t-89 -353h35l86 6v1q83 0 83 -50q0 -26 -22 -38t-49 -12l-121 6q-13 0 -36 -11t-41 -11z" />
    <glyph glyph-name="Zdotaccent" unicode="&#x17b;" horiz-adv-x="429" 
d="M166 1762q0 30 23 53q23 24 53 24t52 -24q22 -23 22 -55t-23 -52t-55 -21q-32 1 -52 23t-20 52zM388 1505q0 -536 -227 -1420l108 8q108 0 108 -63v-9l-32 -32l-253 -8q-39 0 -58 50q48 75 106 389t96 608q38 293 45 423q-70 -10 -117 -10q-111 0 -111 65v9l28 34v1
q27 -7 58 -7l193 21q24 0 40 -18t16 -41z" />
    <glyph glyph-name="zdotaccent" unicode="&#x17c;" horiz-adv-x="493" 
d="M216 1554q0 30 23 54t53 24t52 -24t22 -56t-23 -52t-55 -20t-52 22t-20 52zM92 -4q-18 0 -34 14q-17 14 -17 47q0 183 138 638t165 561l-167 -12q-21 0 -37 18t-16 39q0 58 225 58q101 0 101 -57q0 -72 -44 -196t-53 -173q-26 -163 -107 -475t-89 -353h35l86 6v1
q83 0 83 -50q0 -26 -22 -38t-49 -12l-121 6q-13 0 -36 -11t-41 -11z" />
    <glyph glyph-name="Zcaron" unicode="&#x17d;" horiz-adv-x="429" 
d="M314 1753q0 -66 -52 -66q-40 0 -112 166t-73 223q0 16 15 28t34 11q43 0 101 -211l27 -94q4 22 11 90t24 145q16 77 55 77q18 0 30 -12t13 -31l-15 -31v-37l-29 -112q-29 -112 -29 -146zM388 1505q0 -536 -227 -1420l108 8q108 0 108 -63v-9l-32 -32l-253 -8
q-39 0 -58 50q48 75 106 389t96 608q38 293 45 423q-70 -10 -117 -10q-111 0 -111 65v9l28 34v1q27 -7 58 -7l193 21q24 0 40 -18t16 -41z" />
    <glyph glyph-name="zcaron" unicode="&#x17e;" horiz-adv-x="493" 
d="M360 1546q0 -66 -52 -66q-40 0 -112 166t-73 223q0 15 15 27t34 12q43 0 101 -211l27 -94q4 22 11 90t24 145q16 77 55 77q18 1 30 -11t13 -32l-15 -31v-37l-29 -112q-29 -112 -29 -146zM92 -4q-18 0 -34 14q-17 14 -17 47q0 183 138 638t165 561l-167 -12q-21 0 -37 18
t-16 39q0 58 225 58q101 0 101 -57q0 -72 -44 -196t-53 -173q-26 -163 -107 -475t-89 -353h35l86 6v1q83 0 83 -50q0 -26 -22 -38t-49 -12l-121 6q-13 0 -36 -11t-41 -11z" />
    <glyph glyph-name="uni01C4" unicode="&#x1c4;" horiz-adv-x="1082" 
d="M967 1753q0 -66 -52 -66q-41 0 -113 166t-72 223q0 16 15 28t34 11q43 0 101 -211l27 -94q4 22 11 90t24 145q16 77 55 77q19 0 31 -12t12 -31l-15 -31v-37l-29 -112q-29 -112 -29 -146zM1041 1505q0 -536 -227 -1420l108 8q108 0 108 -63v-9l-32 -32l-253 -8
q-39 0 -58 50q47 75 105 389t96 608q38 293 46 423q-70 -10 -117 -10q-111 0 -111 65v9l28 34v1q27 -7 58 -7l193 21q24 0 40 -18t16 -41zM113 306q0 114 -19 339t-19 337l6 224q-1 54 -23 146t-22 129q0 71 157 71h31q209 0 303 -234q66 -163 66 -450v-95q-5 -9 -5 -19
l5 -43q1 -145 -82 -356t-203 -305q-68 -54 -123 -54q-117 -1 -117 69q45 47 45 241zM211 310v-196q77 50 134 140t87 195q56 203 56 420t-58 353t-146 180q-54 28 -122 27v-2q0 -185 24 -557t25 -560z" />
    <glyph glyph-name="uni01C5" unicode="&#x1c5;" horiz-adv-x="1146" 
d="M1013 1546q0 -66 -52 -66q-41 0 -113 166t-72 223q0 15 15 27t34 12q43 0 101 -211l27 -94q4 22 11 90t24 145q16 77 55 77q19 1 31 -11t12 -32l-15 -31v-37l-29 -112q-29 -112 -29 -146zM746 -4q-18 0 -35 14t-17 47q0 183 138 638t165 561l-167 -12q-22 0 -38 18
t-15 39q0 58 225 58q101 0 101 -57q-1 -72 -45 -196t-52 -173q-26 -163 -107 -475t-89 -353h35l86 6v1q83 0 83 -50q0 -26 -22 -38t-49 -12l-121 6q-13 0 -36 -11q-22 -11 -40 -11zM113 306q0 114 -19 339t-19 337l6 224q-1 54 -23 146t-22 129q0 71 157 71h31
q209 0 303 -234q66 -163 66 -450v-95q-5 -9 -5 -19l5 -43q1 -145 -82 -356t-203 -305q-68 -54 -123 -54q-117 -1 -117 69q45 47 45 241zM211 310v-196q77 50 134 140t87 195q56 203 56 420t-58 353t-146 180q-54 28 -122 27v-2q0 -185 24 -557t25 -560z" />
    <glyph glyph-name="uni01C6" unicode="&#x1c6;" horiz-adv-x="1103" 
d="M970 1546q0 -66 -52 -66q-40 0 -112 166t-73 223q0 15 15 27t34 12q43 0 101 -211l27 -94q4 22 11 90t24 145q16 77 55 77q18 1 30 -11t13 -32l-15 -31v-37l-29 -112q-29 -112 -29 -146zM702 -4q-18 0 -34 14q-17 14 -17 47q0 183 138 638t165 561l-167 -12q-21 0 -37 18
t-16 39q0 58 225 58q101 0 101 -57q0 -72 -44 -196t-53 -173q-26 -163 -107 -475t-89 -353h35l86 6v1q83 0 83 -50q0 -26 -22 -38t-49 -12l-121 6q-13 0 -36 -11t-41 -11zM216 141v-49q178 0 214 360q8 83 8 160q0 618 -238 646q-15 -80 -15 -222q-1 -142 15 -443t16 -452z
M55 1275q0 37 23 57t49 21q211 0 343 -247q76 -141 76 -298l-4 -103v-113q0 -206 -18 -275q-35 -131 -94 -205q-58 -74 -157 -124h-148q-52 0 -52 268l6 645q0 65 -12 201t-12 173z" />
    <glyph glyph-name="uni01c7" unicode="&#x1c7;" horiz-adv-x="849" 
d="M506 1429q-22 -1 -38 15t-15 37q0 72 245 72h26q92 -1 92 -55t-85 -54l-6 1h-28v-16q0 -53 12 -159t12 -198q1 -92 19 -358t18 -399l-1 -163q-1 -120 -51 -216t-147 -130q-32 0 -53 16t-21 44q-1 28 25 51t55 35q28 36 55 116t27 173l1 284q0 594 -54 920q-7 -1 -37 -9
q-29 -8 -51 -7zM201 167v-52h156q44 -30 44 -57q0 -26 -15 -44t-31 -18t-37 7q-17 -4 -39 -4l-66 3q-21 -25 -53 -25q-32 -1 -52 19q-22 20 -22 46l13 90q-1 232 -21 698t-20 699q0 19 15 31t37 11q22 0 42 -17q18 -17 18 -42l21 -737l2 -65v-9q8 -178 8 -534z" />
    <glyph glyph-name="uni01c8" unicode="&#x1c8;" horiz-adv-x="950" 
d="M782 164q0 -102 -16 -148t-32 -75q-25 -52 -90 -93t-173 -41q-24 0 -24 25l2 34q0 12 29 22q106 37 133 66q59 64 59 233l-23 1046v9q-77 0 -111 14t-40 20q-6 8 -6 22t23 28t75 13t192 -13q142 -12 142 -34t-16 -34q-16 -13 -40 -13h-105l21 -863v-218zM201 167v-52h156
q44 -30 44 -57q0 -26 -15 -44t-31 -18t-37 7q-17 -4 -39 -4l-66 3q-21 -25 -53 -25q-32 -1 -52 19q-22 20 -22 46l13 90q-1 232 -21 698t-20 699q0 19 15 31t37 11q22 0 42 -17q18 -17 18 -42l21 -737l2 -65v-9q8 -178 8 -534z" />
    <glyph glyph-name="uni01C9" unicode="&#x1c9;" horiz-adv-x="987" 
d="M819 164q-1 -102 -17 -148t-30 -75q-25 -52 -91 -93q-65 -41 -173 -41q-24 0 -24 25l2 34q0 12 29 22q106 37 133 66q59 64 59 233l-23 1046v9q-78 0 -112 14t-39 20q-6 8 -6 22t23 28q22 14 74 13t194 -13t141 -34t-17 -34q-16 -13 -39 -13h-105l21 -863v-218zM184 586
v-41l-8 -326q0 -141 69 -141l85 3q110 0 110 -60q0 -23 -19 -37t-43 -17q-75 24 -183 24q-33 -19 -63 -19t-48 21q-17 21 -17 46q0 151 13 457t13 458v15q-12 128 -12 192q0 194 71 194q20 0 36 -15t16 -36l-14 -156l6 -492q-12 -28 -12 -70z" />
    <glyph glyph-name="uni01ca" unicode="&#x1ca;" horiz-adv-x="1156" 
d="M812 1429q-22 -1 -36 15q-16 16 -16 37q0 72 245 72h26q92 -1 92 -55t-85 -54l-6 1h-28v-16q0 -53 12 -159t12 -198t18 -358t19 -399l-1 -163q0 -120 -50 -216t-148 -130q-32 0 -53 16t-21 44t26 51t54 35q28 36 55 116t27 173l1 284q0 594 -54 920q-7 -1 -37 -9t-52 -7z
M81 1462q0 102 43 102t112 -190q126 -345 302 -1139l2 -10l8 714v606q12 51 67 51t55 -80v-12q-12 -25 -12 -60l-13 -757v-626q0 -31 -17 -61t-42 -30q-43 0 -168 422t-247 906v-672q1 -98 15 -292t14 -292q0 -20 -23 -32t-59 -12t-35 32l10 147q0 106 -13 344t-13 291v261
l14 376v13z" />
    <glyph glyph-name="uni01cb" unicode="&#x1cb;" horiz-adv-x="1257" 
d="M1089 164q-1 -102 -17 -148t-30 -75q-25 -52 -91 -93q-65 -41 -173 -41q-24 0 -24 25l2 34q0 12 29 22q106 37 133 66q59 64 59 233l-23 1046v9q-78 0 -112 14t-39 20q-6 8 -6 22t23 28q22 14 74 13t194 -13t141 -34t-17 -34q-16 -13 -39 -13h-105l21 -863v-218zM81 1462
q0 102 43 102t112 -190q126 -345 302 -1139l2 -10l8 714v606q12 51 67 51t55 -80v-12q-12 -25 -12 -60l-13 -757v-626q0 -31 -17 -61t-42 -30q-43 0 -168 422t-247 906v-672q1 -98 15 -292t14 -292q0 -20 -23 -32t-59 -12t-35 32l10 147q0 106 -13 344t-13 291v261l14 376
v13z" />
    <glyph glyph-name="uni01CC" unicode="&#x1cc;" horiz-adv-x="1347" 
d="M1179 164q-1 -102 -17 -148t-30 -75q-25 -52 -91 -93q-65 -41 -173 -41q-24 0 -24 25l2 34q0 12 29 22q106 37 133 66q59 64 59 233l-23 1046v9q-78 0 -112 14t-39 20q-6 8 -6 22t23 28q22 14 74 13t194 -13t141 -34t-17 -34q-16 -13 -39 -13h-105l21 -863v-218zM197 56
q-1 -16 -19 -35t-43 -19q-67 0 -67 125l-4 702l12 382q0 95 75 151v-13q8 5 15 5q48 0 120 -166t130 -363t116 -399t71 -237q41 429 41 1039l-3 55q0 61 51 61q30 0 44 -24t14 -56v-155q-2 -241 -22 -643t-52 -455q-56 -17 -78 -17t-32 14q-12 14 -19 45q-7 30 -12 40l1 9
q0 76 -147 483t-213 560v-1031q21 -42 21 -58z" />
    <glyph glyph-name="uni01F1" unicode="&#x1f1;" horiz-adv-x="1082" 
d="M1041 1505q0 -536 -227 -1420l108 8q108 0 108 -63v-9l-32 -32l-253 -8q-39 0 -58 50q47 75 105 389t96 608q38 293 46 423q-70 -10 -117 -10q-111 0 -111 65v9l28 34v1q27 -7 58 -7l193 21q24 0 40 -18t16 -41zM113 306q0 114 -19 339t-19 337l6 224q-1 54 -23 146
t-22 129q0 71 157 71h31q209 0 303 -234q66 -163 66 -450v-95q-5 -9 -5 -19l5 -43q1 -145 -82 -356t-203 -305q-68 -54 -123 -54q-117 -1 -117 69q45 47 45 241zM211 310v-196q77 50 134 140t87 195q56 203 56 420t-58 353t-146 180q-54 28 -122 27v-2q0 -185 24 -557
t25 -560z" />
    <glyph glyph-name="uni01F2" unicode="&#x1f2;" horiz-adv-x="1146" 
d="M746 -4q-18 0 -35 14t-17 47q0 183 138 638t165 561l-167 -12q-22 0 -38 18t-15 39q0 58 225 58q101 0 101 -57q-1 -72 -45 -196t-52 -173q-26 -163 -107 -475t-89 -353h35l86 6v1q83 0 83 -50q0 -26 -22 -38t-49 -12l-121 6q-13 0 -36 -11q-22 -11 -40 -11zM113 306
q0 114 -19 339t-19 337l6 224q-1 54 -23 146t-22 129q0 71 157 71h31q209 0 303 -234q66 -163 66 -450v-95q-5 -9 -5 -19l5 -43q1 -145 -82 -356t-203 -305q-68 -54 -123 -54q-117 -1 -117 69q45 47 45 241zM211 310v-196q77 50 134 140t87 195q56 203 56 420t-58 353
t-146 180q-54 28 -122 27v-2q0 -185 24 -557t25 -560z" />
    <glyph glyph-name="uni01F3" unicode="&#x1f3;" horiz-adv-x="1103" 
d="M702 -4q-18 0 -34 14q-17 14 -17 47q0 183 138 638t165 561l-167 -12q-21 0 -37 18t-16 39q0 58 225 58q101 0 101 -57q0 -72 -44 -196t-53 -173q-26 -163 -107 -475t-89 -353h35l86 6v1q83 0 83 -50q0 -26 -22 -38t-49 -12l-121 6q-13 0 -36 -11t-41 -11zM216 141v-49
q178 0 214 360q8 83 8 160q0 618 -238 646q-15 -80 -15 -222q-1 -142 15 -443t16 -452zM55 1275q0 37 23 57t49 21q211 0 343 -247q76 -141 76 -298l-4 -103v-113q0 -206 -18 -275q-35 -131 -94 -205q-58 -74 -157 -124h-148q-52 0 -52 268l6 645q0 65 -12 201t-12 173z" />
    <glyph glyph-name="uni01F4" unicode="&#x1f4;" horiz-adv-x="727" 
d="M282 1720q0 12 28 38t130 112q100 86 121 105q12 4 27 4q15 1 36 -25t21 -50t-15 -34q-78 -57 -298 -173q-8 -4 -19 -4t-21 8t-10 19zM375 421q0 50 132 65q26 3 57 3t53 -32q22 -31 22 -85q1 -54 21 -175t20 -163q0 -75 -50 -75t-68 43v2q-12 -5 -60 -31t-100 -26
t-96 18q-94 37 -146 127t-69 176q-39 195 -39 443l-1 151q0 198 13 284q12 86 26 141q43 177 136 247q73 58 167 58t94 -59q0 -22 -16 -35t-38 -13l-59 10q-76 -1 -122 -97t-59 -188q-13 -91 -24 -175t-8 -291l-1 -127q0 -196 18 -279q33 -155 80 -214q85 -65 149 -73
q91 0 151 86q-3 182 -33 234l-80 -8q-70 0 -70 58z" />
    <glyph glyph-name="uni01F5" unicode="&#x1f5;" horiz-adv-x="638" 
d="M245 1507q1 11 29 37t128 113q100 86 122 105q12 4 27 4t36 -26t21 -49q0 -24 -15 -34q-78 -57 -298 -173q-8 -4 -19 -4t-21 8t-10 19zM338 -16q-142 0 -206 106q-74 120 -83 343q-3 83 -3 135v88q0 290 17 366q41 186 93 244q77 88 178 88t101 -52q0 -24 -20 -40
t-45 -15l-43 5q-71 0 -107 -140q-52 -200 -52 -438t12 -310t28 -122q44 -150 155 -151q99 0 99 326v94q-15 8 -48 8l-40 -1q-71 0 -71 47q1 29 21 44t49 15v-1h28q184 0 184 -63l-22 -149l10 -217q-1 -102 -71 -156t-164 -54z" />
    <glyph glyph-name="uni0200" unicode="&#x200;" horiz-adv-x="656" 
d="M253 2026q0 11 17 20q16 9 36 9t119 -154t102 -193l-13 -21q-109 103 -185 203t-76 136zM-7 2085q19 0 91 -80q72 -81 139 -169q66 -88 66 -110t-20 -23q-310 290 -315 296l-19 34q7 21 23 37t35 15zM394 1214q0 34 1 40q-33 -33 -93 -367t-64 -423q84 -23 142 -23t82 6
q-3 41 -21 223q-19 182 -33 346t-14 198zM527 1q-63 0 -63 53v267q-28 20 -104 34t-135 18q-21 -36 -35 -104t-28 -137t-38 -109q-80 0 -90 41q28 40 91 409t103 577t88 351q47 142 90 142t66 -18q0 -73 40 -395t40 -416t22 -314t21 -330q0 -69 -68 -69z" />
    <glyph glyph-name="uni0201" unicode="&#x201;" 
d="M257 1819q0 11 17 20q16 9 36 9t119 -154t102 -193l-13 -21q-109 104 -185 204t-76 135zM-3 1878q19 0 91 -80t139 -168q66 -88 66 -112q0 -22 -20 -22q-310 290 -315 296l-19 34q7 20 23 36t35 16zM579 41v-2q0 -45 -34 -58q-43 0 -67 14t-24 54q0 87 -30 253l-202 30
q-19 -68 -29 -149t-19 -118q-18 -76 -67 -76q-25 -1 -45 15t-20 40l5 18q138 533 205 1038q2 14 9 123t35 150h69q28 0 49 -13t21 -39q-1 -156 41 -463t42 -442l22 -126q0 -25 20 -122t19 -127zM405 480q-1 74 -9 184t-24 258q-16 146 -22 212q-93 -515 -120 -726
q35 -23 181 -33q-6 31 -6 105z" />
    <glyph glyph-name="uni0202" unicode="&#x202;" horiz-adv-x="656" 
d="M592 1738q0 -12 -16 -26q-16 -16 -45 -16q-51 0 -51 77q0 22 -14 58t-33 36h-43q-32 -23 -48 -101t-61 -79l-38 32q-1 93 27 146q50 97 136 97t127 -55q19 -25 55 -109l-5 -17q9 -31 9 -43zM394 1214q0 34 1 40q-33 -33 -93 -367t-64 -423q84 -23 142 -23t82 6
q-3 41 -21 223q-19 182 -33 346t-14 198zM527 1q-63 0 -63 53v267q-28 20 -104 34t-135 18q-21 -36 -35 -104t-28 -137t-38 -109q-80 0 -90 41q28 40 91 409t103 577t88 351q47 142 90 142t66 -18q0 -73 40 -395t40 -416t22 -314t21 -330q0 -69 -68 -69z" />
    <glyph glyph-name="uni0203" unicode="&#x203;" 
d="M545 1532q-1 -12 -17 -28t-44 -15q-51 0 -51 77q-1 22 -15 58t-32 36h-43q-33 -24 -49 -102t-60 -78l-38 32q-1 93 27 146q50 97 136 97t127 -55q19 -25 55 -109l-5 -17q9 -30 9 -42zM579 41v-2q0 -45 -34 -58q-43 0 -67 14t-24 54q0 87 -30 253l-202 30
q-19 -68 -29 -149t-19 -118q-18 -76 -67 -76q-25 -1 -45 15t-20 40l5 18q138 533 205 1038q2 14 9 123t35 150h69q28 0 49 -13t21 -39q-1 -156 41 -463t42 -442l22 -126q0 -25 20 -122t19 -127zM405 480q-1 74 -9 184t-24 258q-16 146 -22 212q-93 -515 -120 -726
q35 -23 181 -33q-6 31 -6 105z" />
    <glyph glyph-name="uni0204" unicode="&#x204;" horiz-adv-x="457" 
d="M199 2026q0 11 17 20q16 9 36 9t119 -154t102 -193l-13 -21q-109 103 -185 203t-76 136zM-61 2085q19 0 91 -80q72 -81 139 -169q66 -88 66 -110t-20 -23q-310 290 -315 296l-19 34q7 21 23 37t35 15zM314 111q117 0 117 -54v-7q-14 -28 -48 -43t-60 -17t-67 -2h-64
q-76 0 -94 30q-8 14 -8 37v1190q0 35 -14 104t-14 105v7q34 56 51 72l152 18q31 -1 63 -19t31 -48q0 -61 -93 -61l-59 2q-15 0 -22 -1l16 -338q0 -42 -5 -120t-5 -114q11 2 41 10t54 8t42 -17t19 -41q0 -24 -15 -43t-39 -19l-51 2q-30 0 -42 -15v-632q105 6 114 6z" />
    <glyph glyph-name="uni0205" unicode="&#x205;" horiz-adv-x="455" 
d="M222 1819q0 11 17 20t37 9t118 -154q99 -154 102 -193l-13 -21q-109 104 -185 204t-76 135zM-38 1878q20 0 92 -80t138 -168t66 -112q0 -22 -20 -22q-310 290 -315 296l-19 34q6 20 22 36t36 16zM161 1352q55 0 150 -26t95 -66q0 -41 -60 -63q-95 32 -155 39q3 -44 3 -88
l-9 -294q0 -2 6 -32l73 3q99 0 99 -56q0 -23 -18 -39q-17 -16 -45 -16t-60 4h-52q6 -78 6 -155l-9 -371q0 -115 4 -115l151 5q78 0 78 -50q0 -31 -27 -45t-61 -14h-173q-27 1 -49 19t-23 44v54l-13 346l14 598l-11 173q0 145 86 145z" />
    <glyph glyph-name="uni0206" unicode="&#x206;" horiz-adv-x="457" 
d="M354 1738q0 -12 -16 -26q-16 -16 -45 -16q-51 0 -51 77q0 22 -14 58t-33 36h-43q-32 -23 -48 -101t-61 -79l-38 32q-1 93 27 146q50 97 136 97t127 -55q19 -25 55 -109l-5 -17q9 -31 9 -43zM314 111q117 0 117 -54v-7q-14 -28 -48 -43t-60 -17t-67 -2h-64q-76 0 -94 30
q-8 14 -8 37v1190q0 35 -14 104t-14 105v7q34 56 51 72l152 18q31 -1 63 -19t31 -48q0 -61 -93 -61l-59 2q-15 0 -22 -1l16 -338q0 -42 -5 -120t-5 -114q11 2 41 10t54 8t42 -17t19 -41q0 -24 -15 -43t-39 -19l-51 2q-30 0 -42 -15v-632q105 6 114 6z" />
    <glyph glyph-name="uni0207" unicode="&#x207;" horiz-adv-x="455" 
d="M378 1532q0 -12 -16 -28t-45 -15q-51 0 -51 77q0 22 -14 58t-33 36h-43q-32 -24 -48 -102t-61 -78l-38 32q-1 93 27 146q50 97 136 97t127 -55q19 -25 55 -109l-5 -17q9 -30 9 -42zM161 1352q55 0 150 -26t95 -66q0 -41 -60 -63q-95 32 -155 39q3 -44 3 -88l-9 -294
q0 -2 6 -32l73 3q99 0 99 -56q0 -23 -18 -39q-17 -16 -45 -16t-60 4h-52q6 -78 6 -155l-9 -371q0 -115 4 -115l151 5q78 0 78 -50q0 -31 -27 -45t-61 -14h-173q-27 1 -49 19t-23 44v54l-13 346l14 598l-11 173q0 145 86 145z" />
    <glyph glyph-name="uni0208" unicode="&#x208;" horiz-adv-x="432" 
d="M162 2026q0 11 17 20t37 9t118 -154q99 -154 102 -193l-13 -21q-109 103 -185 203t-76 136zM-98 2085q20 0 92 -80q72 -81 138 -169t66 -110t-20 -23q-310 290 -315 296l-19 34q6 21 22 37t36 15zM226 1401q0 -200 25 -599t25 -599v-79q21 3 42 3q85 0 85 -72v-12
l-51 -35l-139 -5q-177 0 -177 61q0 49 62 49l43 -3q30 0 30 48q0 158 -19 474t-19 473l4 209q0 66 -5 114q-27 -9 -48 -9q-48 0 -48 49q0 52 128 74q66 12 108 11t59 -17q18 -16 18 -38q1 -22 -13 -40q-14 -16 -35 -16l-36 1q-19 -1 -29 -9t-10 -33z" />
    <glyph glyph-name="uni0209" unicode="&#x209;" horiz-adv-x="499" 
d="M220 1819q0 11 17 20t37 9t118 -154q99 -154 102 -193l-13 -21q-109 104 -185 204t-76 135zM-40 1878q20 0 92 -80t138 -168t66 -112q0 -22 -20 -22q-310 290 -315 296l-19 34q6 20 22 36t36 16zM465 79q-1 -27 -21 -45t-47 -18l-68 7q-5 1 -31 -11t-58 -12t-52 20
q-16 -2 -25 -2q-57 0 -76 37q0 40 32 55l7 8h58l4 27l-14 435l11 456q0 115 -10 218l-39 2q-8 2 -24 0t-34 -2t-36 12q-17 12 -17 43q0 47 101 47h17q263 0 263 -83q0 -11 -12 -38l-70 -5l-35 12q8 -75 8 -170l-11 -391l15 -435l-3 -62l-2 1q0 -39 10 -54l16 -3l59 2
q84 0 84 -51z" />
    <glyph glyph-name="uni020A" unicode="&#x20a;" horiz-adv-x="432" 
d="M322 1738q0 -12 -16 -26q-16 -16 -45 -16q-51 0 -51 77q0 22 -14 58t-33 36h-43q-32 -23 -48 -101t-61 -79l-38 32q-1 93 27 146q50 97 136 97t127 -55q19 -25 55 -109l-5 -17q9 -31 9 -43zM226 1401q0 -200 25 -599t25 -599v-79q21 3 42 3q85 0 85 -72v-12l-51 -35
l-139 -5q-177 0 -177 61q0 49 62 49l43 -3q30 0 30 48q0 158 -19 474t-19 473l4 209q0 66 -5 114q-27 -9 -48 -9q-48 0 -48 49q0 52 128 74q66 12 108 11t59 -17q18 -16 18 -38q1 -22 -13 -40q-14 -16 -35 -16l-36 1q-19 -1 -29 -9t-10 -33z" />
    <glyph glyph-name="uni020B" unicode="&#x20b;" horiz-adv-x="499" 
d="M380 1532q0 -12 -16 -28t-45 -15q-51 0 -51 77q0 22 -14 58t-33 36h-43q-32 -24 -48 -102t-61 -78l-38 32q-1 93 27 146q50 97 136 97t127 -55q19 -25 55 -109l-5 -17q9 -30 9 -42zM465 79q-1 -27 -21 -45t-47 -18l-68 7q-5 1 -31 -11t-58 -12t-52 20q-16 -2 -25 -2
q-57 0 -76 37q0 40 32 55l7 8h58l4 27l-14 435l11 456q0 115 -10 218l-39 2q-8 2 -24 0t-34 -2t-36 12q-17 12 -17 43q0 47 101 47h17q263 0 263 -83q0 -11 -12 -38l-70 -5l-35 12q8 -75 8 -170l-11 -391l15 -435l-3 -62l-2 1q0 -39 10 -54l16 -3l59 2q84 0 84 -51z" />
    <glyph glyph-name="uni020C" unicode="&#x20c;" horiz-adv-x="650" 
d="M288 2026q0 11 17 20t37 9t118 -154q99 -154 102 -193l-13 -21q-109 103 -185 203t-76 136zM28 2085q20 0 92 -80q72 -81 138 -169t66 -110t-20 -23q-310 290 -315 296l-19 34q6 21 22 37t36 15zM289 1477q-29 0 -49 -21q-31 -34 -56 -136q-24 -102 -29 -255
q-5 -152 -6 -204v-9q0 -138 21 -296q22 -158 44 -259t60 -171t85 -71q81 0 113 314q19 187 17 293q-1 108 -3 180t-9 136q-5 64 -15 140q-10 77 -26 137q-16 61 -36 113t-50 80t-61 29zM551 227q0 -65 -23 -127t-70 -110t-103 -47q-56 0 -102 38q-81 67 -124 223t-58 316
t-14 242t-1 157t-2 101v55q3 197 28 299t71 156q47 55 112 55q65 1 111 -23t78 -76t54 -101q24 -49 38 -137t24 -165q12 -78 12 -347v-118l-18 -259v-9q-13 -57 -13 -123z" />
    <glyph glyph-name="uni020D" unicode="&#x20d;" horiz-adv-x="651" 
d="M297 1819q0 11 17 20q16 9 36 9t119 -154t102 -193l-13 -21q-109 104 -185 204t-76 135zM37 1878q19 0 91 -80t139 -168q66 -88 66 -112q0 -22 -20 -22q-310 290 -315 296l-19 34q7 20 23 36t35 16zM478 568q0 77 -14 236t-13 237v36q-2 75 -49 133q-46 58 -118 59
q-72 -1 -93 -73t-21 -169l2 -121l-10 -189q0 -297 48 -518q51 -129 97 -152q129 0 161 335q10 109 10 186zM50 714v37q0 321 34 447t63 153t57 27q238 0 328 -240q52 -138 52 -340v-15l4 -232q0 -589 -273 -589q-113 0 -171 122q-92 194 -93 542l2 78q0 10 -3 10z" />
    <glyph glyph-name="uni020E" unicode="&#x20e;" horiz-adv-x="650" 
d="M444 1738q0 -12 -16 -26q-16 -16 -45 -16q-51 0 -51 77q0 22 -14 58t-33 36h-43q-32 -23 -48 -101t-61 -79l-38 32q-1 93 27 146q50 97 136 97t127 -55q19 -25 55 -109l-5 -17q9 -31 9 -43zM289 1477q-29 0 -49 -21q-31 -34 -56 -136q-24 -102 -29 -255q-5 -152 -6 -204
v-9q0 -138 21 -296q22 -158 44 -259t60 -171t85 -71q81 0 113 314q19 187 17 293q-1 108 -3 180t-9 136q-5 64 -15 140q-10 77 -26 137q-16 61 -36 113t-50 80t-61 29zM551 227q0 -65 -23 -127t-70 -110t-103 -47q-56 0 -102 38q-81 67 -124 223t-58 316t-14 242t-1 157
t-2 101v55q3 197 28 299t71 156q47 55 112 55q65 1 111 -23t78 -76t54 -101q24 -49 38 -137t24 -165q12 -78 12 -347v-118l-18 -259v-9q-13 -57 -13 -123z" />
    <glyph glyph-name="uni020F" unicode="&#x20f;" horiz-adv-x="651" 
d="M452 1532q0 -12 -16 -28t-45 -15q-51 0 -51 77q0 22 -14 58t-33 36h-43q-32 -24 -48 -102t-61 -78l-38 32q-1 93 27 146q50 97 136 97t127 -55q19 -25 55 -109l-5 -17q9 -30 9 -42zM478 568q0 77 -14 236t-13 237v36q-2 75 -49 133q-46 58 -118 59q-72 -1 -93 -73
t-21 -169l2 -121l-10 -189q0 -297 48 -518q51 -129 97 -152q129 0 161 335q10 109 10 186zM50 714v37q0 321 34 447t63 153t57 27q238 0 328 -240q52 -138 52 -340v-15l4 -232q0 -589 -273 -589q-113 0 -171 122q-92 194 -93 542l2 78q0 10 -3 10z" />
    <glyph glyph-name="uni0210" unicode="&#x210;" horiz-adv-x="548" 
d="M234 2026q0 11 17 20t37 9t118 -154q99 -154 102 -193l-13 -21q-109 103 -185 203t-76 136zM-26 2085q20 0 92 -80q72 -81 138 -169t66 -110t-20 -23q-310 290 -315 296l-19 34q6 21 22 37t36 15zM286 1254q0 34 -24 117t-71 92l-11 -418q0 -63 2 -94q35 33 69 79l32 177
q3 13 3 47zM187 52q0 -65 -51 -65q-30 1 -44 17t-14 40v16l8 1201v252q0 24 10 34t52 10q93 0 160 -75q90 -112 90 -265q0 -100 -37 -192t-58 -149q1 -152 77 -395q26 -83 74 -225t60 -180v-5q0 -69 -16 -81t-34 -11q-38 0 -74 55v7q-10 186 -128 563q-54 172 -75 255v-807z
" />
    <glyph glyph-name="uni0211" unicode="&#x211;" horiz-adv-x="504" 
d="M230 1819q0 11 17 20t37 9t118 -154q99 -154 102 -193l-13 -21q-109 104 -185 204t-76 135zM-30 1878q20 0 92 -80t138 -168t66 -112q0 -22 -20 -22q-310 290 -315 296l-19 34q6 20 22 36t36 16zM98 218q0 114 -18 490q-18 375 -17 560q0 97 68 97q107 0 180 -56t73 -160
v-144q0 -59 -22 -107t-51 -102t-32 -60q11 -50 39 -196q60 -319 133 -459q21 -41 21 -63t-12 -38t-34 -15q-42 1 -82 99t-64 218q-73 367 -89 404h-25l-2 -222q0 -271 39 -427l-23 -55h-57l-27 30q2 92 2 206zM282 1096q0 73 -16 124q-20 66 -92 69l-7 -29q0 -84 4 -242
t4 -231q47 25 77 131t30 178z" />
    <glyph glyph-name="uni0212" unicode="&#x212;" horiz-adv-x="548" 
d="M390 1738q0 -12 -16 -26q-16 -16 -45 -16q-51 0 -51 77q0 22 -14 58t-33 36h-43q-32 -23 -48 -101t-61 -79l-38 32q-1 93 27 146q50 97 136 97t127 -55q19 -25 55 -109l-5 -17q9 -31 9 -43zM286 1254q0 34 -24 117t-71 92l-11 -418q0 -63 2 -94q35 33 69 79l32 177
q3 13 3 47zM187 52q0 -65 -51 -65q-30 1 -44 17t-14 40v16l8 1201v252q0 24 10 34t52 10q93 0 160 -75q90 -112 90 -265q0 -100 -37 -192t-58 -149q1 -152 77 -395q26 -83 74 -225t60 -180v-5q0 -69 -16 -81t-34 -11q-38 0 -74 55v7q-10 186 -128 563q-54 172 -75 255v-807z
" />
    <glyph glyph-name="uni0213" unicode="&#x213;" horiz-adv-x="504" 
d="M385 1532q-1 -12 -17 -28t-44 -15q-51 0 -51 77q-1 22 -15 58t-32 36h-43q-33 -24 -49 -102t-60 -78l-38 32q-1 93 27 146q50 97 136 97t127 -55q19 -25 55 -109l-5 -17q9 -30 9 -42zM98 218q0 114 -18 490q-18 375 -17 560q0 97 68 97q107 0 180 -56t73 -160v-144
q0 -59 -22 -107t-51 -102t-32 -60q11 -50 39 -196q60 -319 133 -459q21 -41 21 -63t-12 -38t-34 -15q-42 1 -82 99t-64 218q-73 367 -89 404h-25l-2 -222q0 -271 39 -427l-23 -55h-57l-27 30q2 92 2 206zM282 1096q0 73 -16 124q-20 66 -92 69l-7 -29q0 -84 4 -242t4 -231
q47 25 77 131t30 178z" />
    <glyph glyph-name="uni0214" unicode="&#x214;" horiz-adv-x="699" 
d="M327 2026q0 11 17 20q16 9 36 9t119 -154t102 -193l-13 -21q-109 103 -185 203t-76 136zM67 2085q19 0 91 -80q72 -81 139 -169q66 -88 66 -110t-20 -23q-310 290 -315 296l-19 34q7 21 23 37t35 15zM39 1477q-1 25 17 44t42 19q74 0 74 -146l19 -712q13 -27 21 -109
q8 -81 8 -127t14 -112t40 -135q26 -68 70 -116t82 -48q69 0 84 71q11 54 11 113v400q0 65 -13 193t-13 193v14l-4 119l-15 351q0 25 25 41t52 15l50 -48v-34l-15 -125q0 -171 18 -515q18 -343 19 -465t-3 -162q-9 -106 -54 -170q-44 -63 -145 -63q-125 -1 -203 112t-113 289
q-55 277 -55 751l2 320q-15 17 -15 42z" />
    <glyph glyph-name="uni0215" unicode="&#x215;" horiz-adv-x="641" 
d="M312 1830q0 11 17 20t37 9t118 -154q99 -154 102 -193l-13 -21q-109 103 -185 203t-76 136zM52 1889q20 0 92 -80q72 -81 138 -169t66 -110t-20 -23q-310 290 -315 296l-19 34q6 21 22 37t36 15zM464 1341q0 48 49 48t59 -29t11 -70l-14 -206l-9 -171l2 -35
q0 -909 -264 -909q-102 -1 -152 84t-64 193t-16 278t-3 489l-9 293q20 43 44 43q24 1 43 -37t19 -80v-557q0 -73 14 -217t15 -217q0 -150 130 -150q146 0 146 1101v115z" />
    <glyph glyph-name="uni0216" unicode="&#x216;" horiz-adv-x="699" 
d="M482 1738q0 -12 -16 -26q-16 -16 -45 -16q-51 0 -51 77q0 22 -14 58t-33 36h-43q-32 -23 -48 -101t-61 -79l-38 32q-1 93 27 146q50 97 136 97t127 -55q19 -25 55 -109l-5 -17q9 -31 9 -43zM39 1477q-1 25 17 44t42 19q74 0 74 -146l19 -712q13 -27 21 -109q8 -81 8 -127
t14 -112t40 -135q26 -68 70 -116t82 -48q69 0 84 71q11 54 11 113v400q0 65 -13 193t-13 193v14l-4 119l-15 351q0 25 25 41t52 15l50 -48v-34l-15 -125q0 -171 18 -515q18 -343 19 -465t-3 -162q-9 -106 -54 -170q-44 -63 -145 -63q-125 -1 -203 112t-113 289
q-55 277 -55 751l2 320q-15 17 -15 42z" />
    <glyph glyph-name="uni0217" unicode="&#x217;" horiz-adv-x="641" 
d="M468 1542q0 -12 -16 -26q-16 -16 -45 -16q-51 0 -51 77q0 22 -14 58t-33 36h-43q-32 -23 -48 -101t-61 -79l-38 32q-1 93 27 146q50 97 136 97t127 -55q19 -25 55 -109l-5 -17q9 -31 9 -43zM464 1341q0 48 49 48t59 -29t11 -70l-14 -206l-9 -171l2 -35q0 -909 -264 -909
q-102 -1 -152 84t-64 193t-16 278t-3 489l-9 293q20 43 44 43q24 1 43 -37t19 -80v-557q0 -73 14 -217t15 -217q0 -150 130 -150q146 0 146 1101v115z" />
    <glyph glyph-name="Scommaaccent" unicode="&#x218;" horiz-adv-x="523" 
d="M197 -523q-34 0 -34 23l7 37q44 200 114 280q32 36 64 36q4 -4 20 -8q36 -11 36 -33q0 -48 -45 -130t-95 -144t-67 -61zM38 24q0 55 46 55q22 1 60 -15t66 -16t59 35t59 114t28 165t-30 183q-30 98 -73 184t-87 172q-104 205 -104 369t102 256q54 48 127 48q37 0 72 -20
t49 -54l-35 -44q-51 0 -80 20q-38 -4 -66 -36q-51 -60 -51 -146q0 -164 77 -315q108 -212 143 -287q77 -162 77 -350q1 -132 -67 -254q-32 -58 -88 -96t-128 -37q-72 0 -114 22t-42 47z" />
    <glyph glyph-name="scommaaccent" unicode="&#x219;" horiz-adv-x="445" 
d="M161 -506q-34 0 -34 23l7 37q44 200 114 280q32 36 64 36q4 -4 20 -8q36 -11 36 -33q0 -47 -45 -129t-95 -144t-67 -62zM295 364q0 76 -25 149q-26 73 -62 137t-72 130q-86 156 -86 306q0 92 31 163q58 132 154 132q37 0 69 -23t32 -50q0 -47 -50 -47q-22 0 -43 12
q-65 -3 -88 -145q-5 -30 -5 -72t18 -103t62 -136t105 -195t61 -262t-58 -255q-28 -55 -80 -91t-117 -37v-5q-84 12 -92 79l23 35l85 -15q77 1 117 143q20 74 21 150z" />
    <glyph glyph-name="uni021A" unicode="&#x21a;" horiz-adv-x="492" 
d="M243 -492q-34 0 -34 23l7 37q44 200 114 280q32 36 64 36q4 -4 20 -8q36 -11 36 -33q0 -47 -45 -129t-95 -144t-67 -62zM293 -14q-34 0 -50 32t-16 71l16 327q0 106 -14 319t-14 319l3 179q0 147 -19 191l-111 -11q-26 -1 -46 15t-21 40q0 48 146 65t230 17q25 0 45 -16
t21 -42q0 -26 -18 -40t-44 -14l-73 4q-14 0 -21 -1q14 -118 14 -252l-4 -264l18 -471l17 -368q0 -100 -59 -100z" />
    <glyph glyph-name="uni021B" unicode="&#x21b;" horiz-adv-x="493" 
d="M234 -472q-34 0 -34 23l7 37q44 200 114 280q32 36 64 36q4 -4 20 -8q36 -11 36 -33q0 -47 -45 -129t-95 -144t-67 -62zM23 1316q0 20 22 32t43 12l278 -19l33 1q64 0 64 -49q0 -25 -21 -41t-47 -15l-94 14l-4 -21q0 -194 34 -581t34 -582q0 -25 -22 -43t-48 -18l-38 27
l-4 157q0 1 3 70q-8 26 -32 462t-27 533h-8q-166 3 -166 61z" />
    <glyph glyph-name="uni0237" unicode="&#x237;" horiz-adv-x="520" 
d="M106 -254h-24l-61 61l-2 19q-1 19 43 54t119 74q59 70 59 233l-18 1046l-5 9q-22 0 -89.5 12.5t-67.5 45t23 46t54.5 13.5t111.5 -10t161.5 -36.5t81.5 -59.5q0 -22 -16.5 -35t-38.5 -13t-60 9.5t-45 10.5l-1 -17l21 -826v-224q-26 -42 -40 -147t-30 -155
q-36 -110 -176 -110z" />
    <glyph glyph-name="circumflex" unicode="&#x2c6;" horiz-adv-x="516" 
d="M133.5 911q-13.5 0 -27 19t-13.5 50.5t33 123t81.5 173.5t83.5 82t83.5 -157t48.5 -238q0 -24 -18.5 -40.5t-41.5 -16.5q-55 1 -77 189q-10 86 -13 97q0 -6 -15.5 -48.5t-27 -74.5t-23 -58t-24 -50t-24.5 -37.5t-25.5 -13.5z" />
    <glyph glyph-name="caron" unicode="&#x2c7;" horiz-adv-x="498" 
d="M331 994q0 -66 -52 -66q-40 0 -112.5 166t-72.5 223q0 16 15 27.5t34 11.5q43 0 101 -211l27 -94q4 22 11.5 90t23.5 145t55 77q18 0 30.5 -11.5t12.5 -31.5l-15 -31v-37l-29 -112q-29 -112 -29 -146z" />
    <glyph glyph-name="breve" unicode="&#x2d8;" horiz-adv-x="576" 
d="M275 867q-49 0 -89 37q-72 65 -72 196v10l38 32q46 0 60 -78t48 -102h44q14 0 30 32t16 52t1 31t6 26.5t17.5 22.5t33.5 7t37.5 -15.5t16.5 -28.5t-8 -41l4 -16v-1q-52 -133 -108 -154q-26 -10 -75 -10z" />
    <glyph glyph-name="dotaccent" unicode="&#x2d9;" horiz-adv-x="355" 
d="M103 176.5q0 29.5 23 53.5t53 24t52 -24t22 -55.5t-23 -52t-54.5 -20.5t-52 22.5t-20.5 52z" />
    <glyph glyph-name="ring" unicode="&#x2da;" horiz-adv-x="685" 
d="M156 329q0 -48 50.5 -99t104 -51t100 15t75.5 53q28 37 40 75t12 65t-10.5 64t-59.5 75.5t-144.5 39t-131.5 -73.5t-36 -163zM308 634q101 0 163.5 -30.5t84.5 -64.5q50 -76 50 -170.5t-79 -180.5t-222 -86t-198 141q-27 69 -27 162.5t63.5 161t164.5 67.5z" />
    <glyph glyph-name="ogonek" unicode="&#x2db;" horiz-adv-x="427" 
d="M187 -301q40 0 86 33l14 -34q0 -27 -38 -45.5t-74 -18.5t-60.5 32t-24.5 75q0 82 56 156t136 123l55 -27q-12 -8 -31.5 -25.5t-37.5 -33t-24.5 -22.5t-21 -22.5t-30.5 -40t-24 -49.5q-8 -24 -8 -62.5t27 -38.5z" />
    <glyph glyph-name="tilde" unicode="&#x2dc;" horiz-adv-x="675" 
d="M99 1100q0 54 40 89t108 35q25 0 89 -41.5t84 -41.5t30.5 13t13.5 28t14 28t37.5 13t43.5 -16t17 -37q0 -53 -39.5 -92.5t-116 -39.5t-113.5 44t-81 43q-29 -11 -24 -39t-29 -40q-74 0 -74 54z" />
    <glyph glyph-name="hungarumlaut" unicode="&#x2dd;" horiz-adv-x="684" 
d="M408 38q0 26 86 124.5t181 188t117 89.5t39 -14.5t23 -33.5q-19 -50 -192 -197.5t-234 -181.5q-20 -1 -20 25zM452 440q18 0 33 -11t15 -27q0 -46 -75 -141.5t-159.5 -173.5t-115.5 -87v13q2 31 69.5 136.5t141 198t91.5 92.5z" />
    <glyph glyph-name="uni0307" unicode="&#x307;" horiz-adv-x="384" 
d="M120 1464.5q0 29.5 23 53.5t53 24t52 -24t22 -55.5t-23 -52t-54.5 -20.5t-52 22.5t-20.5 52z" />
    <glyph glyph-name="uni030F" unicode="&#x30f;" horiz-adv-x="997" 
d="M516 331q0 11 17 20t36.5 9t118.5 -154t102 -193l-13 -21q-109 103 -185 203.5t-76 135.5zM256 390q19 0 91.5 -80t138.5 -168.5t66 -111t-20 -22.5q-310 290 -315 296l-19 34q6 21 22.5 36.5t35.5 15.5z" />
    <glyph glyph-name="uni0311" unicode="&#x311;" horiz-adv-x="575" 
d="M462 918.5q0 -11.5 -16.5 -27t-44.5 -15.5q-51 0 -51 77q0 22 -14.5 58t-32.5 36h-43q-32 -23 -48 -101t-61 -79l-38 32q-1 93 27 146q50 97 136 97t127 -55q19 -25 55 -109l-5 -17q9 -31 9 -42.5z" />
    <glyph glyph-name="uni0326" unicode="&#x326;" horiz-adv-x="462" 
d="M151 -550q-34 0 -34 23l7 37q44 200 114 280q32 36 64 36q4 -4 20 -8q36 -11 36 -33q0 -47 -45 -129.5t-95 -144t-67 -61.5z" />
    <glyph glyph-name="endash" unicode="&#x2013;" horiz-adv-x="924" 
d="M115 691q0 21 12.5 33.5t33.5 12.5h171l195 4q281 0 281 -58q0 -21 -13.5 -34t-34.5 -13l-563 10q-82 0 -82 45z" />
    <glyph glyph-name="emdash" unicode="&#x2014;" horiz-adv-x="1162" 
d="M124 733q0 21 12.5 33.5t33.5 12.5h477l152 3q239 0 239 -57q0 -52 -172 -52l-173 7l-368 -3l-78 -3q-123 0 -123 59z" />
    <glyph glyph-name="quoteleft" unicode="&#x2018;" horiz-adv-x="354" 
d="M91 1081q-21 0 -21 65t36 174.5t82 183t74 73.5q22 1 22 -41t-14 -115t-37 -150.5t-61.5 -133.5t-80.5 -56z" />
    <glyph glyph-name="quoteright" unicode="&#x2019;" horiz-adv-x="349" 
d="M72 1119q0 34 21 137t62.5 207.5t85.5 104.5q37 0 37 -45q0 -87 -30 -191.5t-75 -177.5t-83 -73q-18 4 -18 38z" />
    <glyph glyph-name="quotesinglbase" unicode="&#x201a;" horiz-adv-x="349" 
d="M72 -295q0 34 21 137t62.5 207.5t85.5 104.5q37 0 37 -45q0 -87 -30 -191.5t-75 -177.5t-83 -73q-18 4 -18 38z" />
    <glyph glyph-name="quotedblleft" unicode="&#x201c;" horiz-adv-x="559" 
d="M532 1540q0 -34 -21 -136.5t-62.5 -207.5t-85.5 -105q-38 0 -38 45q0 87 30.5 191.5t75.5 177.5t83 73q18 -4 18 -38zM90 1081q-21 0 -21 65t36 174.5t82 183t74 73.5q22 1 22 -41t-14 -115t-37 -150.5t-61.5 -133.5t-80.5 -56z" />
    <glyph glyph-name="quotedblright" unicode="&#x201d;" horiz-adv-x="560" 
d="M69 1119q0 34 21 137t62.5 207.5t85.5 104.5q37 0 37 -45q0 -87 -30 -191.5t-75 -177.5t-83 -73q-18 4 -18 38zM521 1578q21 0 21 -65t-36 -174.5t-82 -183t-74 -73.5q-22 0 -22 41q17 72 40.5 209.5t54.5 191.5t98 54z" />
    <glyph glyph-name="quotedblbase" unicode="&#x201e;" horiz-adv-x="660" 
d="M103 -333q0 34 21 137t62.5 207.5t85.5 104.5q37 0 37 -45q0 -87 -30 -191.5t-75 -177.5t-83 -73q-18 4 -18 38zM565 126q21 0 21 -65t-36 -174.5t-82 -183t-74 -73.5q-22 0 -22 42t14 114.5t37 150t61.5 133.5t80.5 56z" />
    <glyph glyph-name="dagger" unicode="&#x2020;" horiz-adv-x="853" 
d="M140 655q0 21 12.5 37t33.5 16l121 -7q26 0 47 4l-12 150q0 113 66 113q23 0 37.5 -17t14.5 -42v-25q0 -183 6 -183l140 8q106 0 106 -62q0 -24 -17 -40t-41 -16l-121 11q-65 0 -65 -6q0 -139 16 -338t16 -300q0 -25 -20.5 -40.5t-45.5 -15.5t-46 14.5t-21 37.5l-13 431
l-13 199v15l-114 -9q-87 0 -87 65z" />
    <glyph glyph-name="daggerdbl" unicode="&#x2021;" horiz-adv-x="853" 
d="M140 655q0 21 12.5 37t33.5 16l121 -7q26 0 47 4l-12 150q0 113 66 113q23 0 37.5 -17t14.5 -42v-25q0 -183 27 -183l119 8q106 0 106 -62q0 -24 -17 -40t-41 -16l-121 11q-65 0 -65 -6q0 -56 11 -191t21 -135l119 8q106 0 106 -62q0 -24 -17 -40t-41 -16l-121 11
q-65 0 -65 -9l19 -204q0 -25 -20.5 -40.5t-45.5 -15.5t-46 14.5t-21 37.5l-13 199v15l-114 -9q-87 0 -87 65q0 21 12.5 37t33.5 16l121 -7q26 0 47 4l-13 111l-13 199v15l-114 -9q-87 0 -87 65z" />
    <glyph glyph-name="bullet" unicode="&#x2022;" horiz-adv-x="637" 
d="M301 1011q136 -1 186 -79t50 -153q0 -126 -61 -210t-153.5 -84t-154.5 61t-62 119l-1 62q0 96 69 193q10 21 57.5 56t69.5 35z" />
    <glyph glyph-name="ellipsis" unicode="&#x2026;" horiz-adv-x="936" 
d="M103 42.5q0 29.5 23 53.5t53 24t52 -24t22 -55.5t-23 -52t-54.5 -20.5t-52 22.5t-20.5 52zM398 42.5q0 29.5 23 53.5t53 24t52 -24t22 -55.5t-23 -52t-54.5 -20.5t-52 22.5t-20.5 52zM693 42.5q0 29.5 23 53.5t53 24t52 -24t22 -55.5t-23 -52t-54.5 -20.5t-52 22.5
t-20.5 52z" />
    <glyph glyph-name="guilsinglleft" unicode="&#x2039;" horiz-adv-x="524" 
d="M154 702q0 -15 137.5 -292t173.5 -341l26 -20q-2 -27 -15.5 -49t-38.5 -22l-44 4q-107 163 -216.5 408.5t-139.5 307.5q2 56 106 282t111.5 252.5t30 121.5t75.5 93l7 -1l45 -35q-18 -134 -138 -370t-120 -339z" />
    <glyph glyph-name="guilsinglright" unicode="&#x203a;" horiz-adv-x="523" 
d="M126 -19l-38 -4q-25 0 -39 22.5t-15 49.5l25 20q40 75 175 347t135 286q-1 102 -91 280q-38 74 -74 147q-90 177 -92 282l45 35l10 -2q42 -20 59 -60t25 -77.5t17 -69.5t113 -256t106 -283l-357 -717h-4z" />
    <glyph glyph-name="fraction" unicode="&#x2044;" horiz-adv-x="512" 
d="M37 30q0 136 65.5 407t152 579.5t102 388t22.5 114t36.5 34.5t46 -14t16.5 -47t-37 -157q-37 -123 -137 -587t-128.5 -620.5t-92.5 -158.5h-8q-38 24 -38 61z" />
    <glyph glyph-name="uni2074" unicode="&#x2074;" horiz-adv-x="480" 
d="M373 1072q0 -319 -4 -476l59 5q61 0 61 -44q0 -50 -82 -50q-33 0 -33 -18q0 -69 6 -190t15 -144q-4 -24 -4 -44t9 -35v-37q0 -77 -48 -77q-31 0 -48 32t-17 65v7q11 38 11 74l-15 199l2 89q0 35 -4 63l-112 -11v-1q-38 0 -80 33q0 46 9 79q-9 49 -9 117q-1 68 15 209
t16 207v379q0 20 7 30t31 10t43 -14t19 -37l-9 -159l-1 -37q0 -21 4 -37v-7q6 -54 6 -125t-14 -245t-15 -228q0 -55 3 -78q35 1 75 11l19 573q0 22 18 34t35 12l32 -36v-98z" />
    <glyph glyph-name="Euro" unicode="&#x20ac;" horiz-adv-x="649" 
d="M361 852q0 -19 -14 -31q-50 -6 -188 -10l5 -86q143 2 190 6q14 -12 14 -31q0 -48 -158 -48l-40 1q36 -445 69 -493q46 -67 141 -67t145 59q35 0 65 10l27 -27q0 -103 -117 -147q-58 -21 -118.5 -21t-99 14t-66 37t-50 59t-58.5 126t-44 451l-79 3q-13 11 -13 30
q0 37 72 37h16l-4 84h-72q-18 8 -18 30t8 30t36 9h45l-2 161q0 109 14 188q-6 33 -6 63q0 126 94 201t232 75q49 0 96 -27.5t47 -72.5q0 -22 -17 -34t-38.5 -12t-56 14.5t-61 14.5t-96.5 -20.5t-85 -156.5q-6 -58 -6 -174t-11 -218l65 1q137 0 137 -28z" />
    <glyph glyph-name="trademark" unicode="&#x2122;" horiz-adv-x="1037" 
d="M959 785q0 -162 -50 -161t-65.5 14t-15.5 35l12 235q0 44 -3.5 124.5t-4.5 106.5q-4 -12 -18 -42t-13 -61l-5 -9q-10 -113 -49 -161q-17 -21 -39 -21q-69 -1 -112 277q-19 122 -22 132q-4 -86 -4 -258l12 -203q0 -172 -77 -172q-48 0 -48 69l13 220l-2 279q0 200 15 340
q-12 -44 -96 -44l-58 2q-5 -49 -5 -118l13 -488q0 -95 -5 -162l8 -28q0 -44 -69 -62l-54 28q11 34 11 82v48l-10 411l6 202q0 47 -4 84q-81 -9 -94 -9q-82 0 -82 45v13l23 41q245 21 315 21l65 -4l39 -39v-5q2 20 28.5 44.5t49 24.5t58.5 -41q-4 -13 -4 -53.5t47 -197.5
t52 -195q69 193 99 331t37 147.5t18 20.5t36 11t42 -15t17 -37l-22 -434q0 -61 7 -183.5t7 -183.5l1 7v-8z" />
    <glyph glyph-name="minus" unicode="&#x2212;" horiz-adv-x="684" 
d="M57 655q0 21 12.5 33.5t33.5 12.5h301l126 7q99 0 99 -61q0 -47 -58 -47l-432 -10q-82 0 -82 65z" />
    <glyph glyph-name="Gcommaaccent" horiz-adv-x="727" 
d="M271 -550q-34 0 -34 23l7 37q44 200 114 280q32 36 64 36q4 -4 20 -8q36 -11 36 -33q0 -47 -45 -129t-95 -144t-67 -62zM375 421q0 50 132 65q26 3 57 3t53 -32q22 -31 22 -85q1 -54 21 -175t20 -163q0 -75 -50 -75t-68 43v2q-12 -5 -60 -31t-100 -26t-96 18
q-94 37 -146 127t-69 176q-39 195 -39 443l-1 151q0 198 13 284q12 86 26 141q43 177 136 247q73 58 167 58t94 -59q0 -22 -16 -35t-38 -13l-59 10q-76 -1 -122 -97t-59 -188q-13 -91 -24 -175t-8 -291l-1 -127q0 -196 18 -279q33 -155 80 -214q85 -65 149 -73q91 0 151 86
q-3 182 -33 234l-80 -8q-70 0 -70 58z" />
    <glyph glyph-name="Rcommaaccent" horiz-adv-x="548" 
d="M201 -550q-34 0 -34 23l7 37q44 200 114 280q32 36 64 36q4 -4 20 -8q36 -11 36 -33q0 -47 -45 -129t-95 -144t-67 -62zM286 1254q0 34 -24 117t-71 92l-11 -418q0 -63 2 -94q35 33 69 79l32 177q3 13 3 47zM187 52q0 -65 -51 -65q-30 1 -44 17t-14 40v16l8 1201v252
q0 24 10 34t52 10q93 0 160 -75q90 -112 90 -265q0 -100 -37 -192t-58 -149q1 -152 77 -395q26 -83 74 -225t60 -180v-5q0 -69 -16 -81t-34 -11q-38 0 -74 55v7q-10 186 -128 563q-54 172 -75 255v-807z" />
    <glyph glyph-name="foundryicon" horiz-adv-x="1251" 
d="M975 106q0 -34 -33 -34q-26 0 -144 152q-44 56 -99 103.5t-95 47.5h-12q-83 -70 -195 -154q-5 -4 -57 -55t-80.5 -51t-28.5 26q0 11 6.5 25t14.5 50t52 156l52 148l-38 48q-43 50 -181 167q-10 9 -43 27q-76 43 -76 78q0 30 39 30q3 0 79 -11t143 -11l190 -8l94 235
q10 15 25.5 59.5t33.5 72.5t38 28t37.5 -17t17.5 -30q0 -69 53 -293l10 -47q87 -6 203 -6l190 6q54 0 54 -41q0 -11 -45.5 -39t-59.5 -40t-90 -90t-149 -116v-12q0 -40 19.5 -99.5t21.5 -66.5q6 -1 29.5 -108.5t23.5 -129.5z" />
    <glyph glyph-name="commaaccent" horiz-adv-x="462" 
d="M151 -550q-34 0 -34 23l7 37q44 200 114 280q32 36 64 36q4 -4 20 -8q36 -11 36 -33q0 -47 -45 -129.5t-95 -144t-67 -61.5z" />
    <glyph glyph-name="Dcroat" horiz-adv-x="653" 
d="M162 1427q0 -154 17 -437q19 4 46 4l144 4q67 0 113 -6q-13 137 -52 228q-59 138 -146 182q-54 28 -122 27v-2zM113 306q0 114 -19 339t-19 337l6 224q-1 54 -23 146t-22 129q0 71 157 71h31q209 0 303 -234q66 -163 66 -450v-95q-5 -9 -5 -19l5 -43q1 -145 -82 -356
t-203 -305q-68 -54 -123 -54q-117 -1 -117 69q45 47 45 241zM211 310v-196q77 50 134 140t87 195q56 203 56 405q0 22 -1 43l-124 -3q-122 0 -179 16q27 -423 27 -600z" />
    <glyph glyph-name="dslash" horiz-adv-x="1707" 
 />
    <glyph glyph-name=".ttfautohint" horiz-adv-x="1707" 
 />
    </font>
</defs>
</svg>
